<svg width="21" height="20" viewBox="0 0 21 20" fill="none" xmlns="http://www.w3.org/2000/svg">
<path d="M18 10.0003L8 10.0003M18 5.00033L8 5.00033M18 15.0003L8 15.0003M4.66667 10.0003C4.66667 10.4606 4.29357 10.8337 3.83333 10.8337C3.3731 10.8337 3 10.4606 3 10.0003C3 9.54009 3.3731 9.16699 3.83333 9.16699C4.29357 9.16699 4.66667 9.54009 4.66667 10.0003ZM4.66667 5.00033C4.66667 5.46056 4.29357 5.83366 3.83333 5.83366C3.3731 5.83366 3 5.46056 3 5.00033C3 4.54009 3.3731 4.16699 3.83333 4.16699C4.29357 4.16699 4.66667 4.54009 4.66667 5.00033ZM4.66667 15.0003C4.66667 15.4606 4.29357 15.8337 3.83333 15.8337C3.3731 15.8337 3 15.4606 3 15.0003C3 14.5401 3.3731 14.167 3.83333 14.167C4.29357 14.167 4.66667 14.5401 4.66667 15.0003Z" stroke="#667085" stroke-width="1.66667" stroke-linecap="round" stroke-linejoin="round"/>
</svg>
