<svg width="19" height="20" viewBox="0 0 19 20" fill="none" xmlns="http://www.w3.org/2000/svg">
<path d="M8.66699 3.3332H5.16699C3.76686 3.3332 3.0668 3.3332 2.53202 3.60568C2.06161 3.84536 1.67916 4.22782 1.43948 4.69822C1.16699 5.233 1.16699 5.93307 1.16699 7.3332V14.3332C1.16699 15.7333 1.16699 16.4334 1.43948 16.9682C1.67916 17.4386 2.06161 17.821 2.53202 18.0607C3.0668 18.3332 3.76686 18.3332 5.16699 18.3332H12.167C13.5671 18.3332 14.2672 18.3332 14.802 18.0607C15.2724 17.821 15.6548 17.4386 15.8945 16.9682C16.167 16.4334 16.167 15.7333 16.167 14.3332V10.8332M6.16697 13.3332H7.56242C7.97007 13.3332 8.1739 13.3332 8.36571 13.2871C8.53577 13.2463 8.69835 13.179 8.84747 13.0876C9.01566 12.9845 9.15979 12.8404 9.44804 12.5521L17.417 4.5832C18.1073 3.89284 18.1073 2.77355 17.417 2.0832C16.7266 1.39284 15.6073 1.39284 14.917 2.0832L6.94802 10.0521C6.65977 10.3404 6.51564 10.4845 6.41257 10.6527C6.32119 10.8018 6.25385 10.9644 6.21302 11.1345C6.16697 11.3263 6.16697 11.5301 6.16697 11.9378V13.3332Z" stroke="#344054" stroke-width="1.66667" stroke-linecap="round" stroke-linejoin="round"/>
</svg>
