<svg width="56" height="56" viewBox="0 0 56 56" fill="none" xmlns="http://www.w3.org/2000/svg">
<rect x="4" y="4" width="48" height="48" rx="24" fill="#FEF0C7"/>
<path d="M27 20H22.8C21.1198 20 20.2798 20 19.638 20.327C19.0735 20.6146 18.6146 21.0735 18.327 21.638C18 22.2797 18 23.1198 18 24.8V33.2C18 34.8801 18 35.7202 18.327 36.362C18.6146 36.9264 19.0735 37.3854 19.638 37.673C20.2798 38 21.1198 38 22.8 38H31.2C32.8802 38 33.7202 38 34.362 37.673C34.9265 37.3854 35.3854 36.9264 35.673 36.362C36 35.7202 36 34.8801 36 33.2V29M24 32H25.6745C26.1637 32 26.4083 32 26.6385 31.9447C26.8425 31.8957 27.0376 31.8149 27.2166 31.7053C27.4184 31.5816 27.5914 31.4086 27.9373 31.0627L37.5 21.5C38.3284 20.6716 38.3284 19.3284 37.5 18.5C36.6716 17.6716 35.3284 17.6716 34.5 18.5L24.9372 28.0627C24.5913 28.4086 24.4184 28.5816 24.2947 28.7834C24.185 28.9624 24.1042 29.1574 24.0552 29.3615C24 29.5917 24 29.8363 24 30.3255V32Z" stroke="#F79009" stroke-width="2" stroke-linecap="round" stroke-linejoin="round"/>
<rect x="4" y="4" width="48" height="48" rx="24" stroke="#FFFAEB" stroke-width="8"/>
</svg>
