<svg width="19" height="22" viewBox="0 0 19 22" fill="none" xmlns="http://www.w3.org/2000/svg">
<path d="M10.5 1H13.2C14.8802 1 15.7202 1 16.362 1.32698C16.9265 1.6146 17.3854 2.07354 17.673 2.63803C18 3.27976 18 4.11984 18 5.8V16.2C18 17.8802 18 18.7202 17.673 19.362C17.3854 19.9265 16.9265 20.3854 16.362 20.673C15.7202 21 14.8802 21 13.2 21H6.8C5.11984 21 4.27976 21 3.63803 20.673C3.07354 20.3854 2.6146 19.9265 2.32698 19.362C2 18.7202 2 17.8802 2 16.2V15.5M14 12H9.5M14 8H10.5M14 16H6M4 9V3.5C4 2.67157 4.67157 2 5.5 2C6.32843 2 7 2.67157 7 3.5V9C7 10.6569 5.65685 12 4 12C2.34315 12 1 10.6569 1 9V5" stroke="#475467" stroke-width="2" stroke-linecap="round" stroke-linejoin="round"/>
</svg>
