<svg width="540" height="192" viewBox="0 0 540 192" fill="none" xmlns="http://www.w3.org/2000/svg">
<path d="M6.56534 120.357C6.16193 120.403 5.84943 120.59 5.62784 120.92C5.40341 121.249 5.29119 121.664 5.29119 122.164C5.29119 122.522 5.34801 122.832 5.46165 123.093C5.57244 123.355 5.72585 123.558 5.92187 123.703C6.11506 123.845 6.33523 123.916 6.58239 123.916C6.78977 123.916 6.96875 123.867 7.11932 123.771C7.26989 123.671 7.39631 123.542 7.49858 123.383C7.59801 123.221 7.68182 123.048 7.75 122.863C7.81534 122.678 7.86932 122.501 7.91193 122.33L8.13352 121.478C8.2017 121.2 8.29403 120.914 8.41051 120.622C8.52699 120.329 8.6804 120.058 8.87074 119.808C9.06108 119.558 9.29687 119.356 9.57812 119.203C9.85937 119.046 10.196 118.968 10.5881 118.968C11.0824 118.968 11.5213 119.096 11.9048 119.352C12.2884 119.605 12.5909 119.972 12.8125 120.455C13.0341 120.936 13.1449 121.517 13.1449 122.198C13.1449 122.852 13.0412 123.417 12.8338 123.894C12.6264 124.372 12.3324 124.745 11.9517 125.015C11.5682 125.285 11.1136 125.434 10.5881 125.463L10.5881 124.142C10.9034 124.116 11.1662 124.014 11.3764 123.835C11.5838 123.653 11.7386 123.421 11.8409 123.14C11.9403 122.856 11.9901 122.545 11.9901 122.207C11.9901 121.835 11.9318 121.504 11.8153 121.214C11.696 120.921 11.5312 120.691 11.321 120.524C11.108 120.356 10.8594 120.272 10.5753 120.272C10.3168 120.272 10.1051 120.346 9.94034 120.494C9.77557 120.639 9.6392 120.836 9.53125 121.086C9.4233 121.333 9.32812 121.613 9.24574 121.926L8.96449 122.957C8.77415 123.656 8.49432 124.21 8.125 124.619C7.75568 125.025 7.26705 125.228 6.65909 125.228C6.15625 125.228 5.71733 125.092 5.34233 124.819C4.96733 124.546 4.67614 124.177 4.46875 123.711C4.25852 123.245 4.15341 122.72 4.15341 122.134C4.15341 121.544 4.2571 121.022 4.46449 120.57C4.67187 120.116 4.95739 119.758 5.32102 119.497C5.68182 119.235 6.09659 119.099 6.56534 119.088L6.56534 120.357ZM13.1321 114.676C13.1321 115.321 12.9943 115.876 12.7187 116.342C12.4403 116.805 12.0497 117.163 11.5469 117.416C11.0412 117.666 10.4489 117.791 9.76989 117.791C9.09943 117.791 8.50852 117.666 7.99716 117.416C7.48579 117.163 7.08665 116.811 6.79972 116.359C6.51278 115.905 6.36932 115.373 6.36932 114.765C6.36932 114.396 6.4304 114.038 6.55256 113.692C6.67472 113.345 6.86648 113.034 7.12784 112.758C7.3892 112.483 7.72869 112.265 8.14631 112.106C8.56108 111.947 9.06534 111.868 9.65909 111.868L10.1108 111.868L10.1108 117.071L9.15625 117.071L9.15625 113.116C8.82102 113.116 8.52415 113.184 8.26562 113.321C8.00426 113.457 7.79829 113.649 7.64773 113.896C7.49716 114.14 7.42187 114.427 7.42187 114.757C7.42187 115.115 7.50994 115.427 7.68608 115.694C7.85937 115.959 8.08665 116.163 8.3679 116.308C8.64631 116.45 8.94886 116.521 9.27557 116.521L10.0213 116.521C10.4588 116.521 10.831 116.444 11.1378 116.291C11.4446 116.135 11.679 115.917 11.8409 115.639C12 115.361 12.0795 115.035 12.0795 114.663C12.0795 114.422 12.0455 114.202 11.9773 114.003C11.9062 113.804 11.8011 113.632 11.6619 113.487C11.5227 113.342 11.3509 113.231 11.1463 113.155L11.3636 111.949C11.7187 112.045 12.0298 112.219 12.2969 112.469C12.5611 112.716 12.767 113.027 12.9148 113.402C13.0597 113.774 13.1321 114.199 13.1321 114.676ZM13.1321 107.697C13.1321 108.33 12.9886 108.876 12.7017 109.333C12.4119 109.788 12.0128 110.137 11.5043 110.382C10.9957 110.626 10.4134 110.748 9.7571 110.748C9.09233 110.748 8.50568 110.623 7.99716 110.373C7.48579 110.123 7.08665 109.771 6.79971 109.316C6.51278 108.862 6.36932 108.326 6.36932 107.71C6.36932 107.213 6.46165 106.769 6.64631 106.38C6.82812 105.991 7.08381 105.677 7.41335 105.438C7.7429 105.197 8.12784 105.053 8.56818 105.008L8.56818 106.248C8.26136 106.316 7.99716 106.472 7.77557 106.717C7.55398 106.958 7.44318 107.282 7.44318 107.688C7.44318 108.044 7.53693 108.355 7.72443 108.622C7.90909 108.886 8.17329 109.092 8.51704 109.24C8.85795 109.387 9.26136 109.461 9.72727 109.461C10.2045 109.461 10.6165 109.389 10.9631 109.244C11.3097 109.099 11.5781 108.894 11.7685 108.63C11.9588 108.363 12.054 108.049 12.054 107.688C12.054 107.447 12.0099 107.228 11.9219 107.032C11.831 106.833 11.7017 106.667 11.5341 106.534C11.3665 106.397 11.1648 106.302 10.929 106.248L10.929 105.008C11.3523 105.053 11.7301 105.191 12.0625 105.421C12.3949 105.651 12.6562 105.96 12.8466 106.346C13.0369 106.73 13.1321 107.18 13.1321 107.697ZM10.2855 99.4991L6.45454 99.4991L6.45454 98.2207L13 98.2207L13 99.4735L11.8665 99.4735L11.8665 99.5417C12.2159 99.6923 12.5071 99.9338 12.7401 100.266C12.9702 100.596 13.0852 101.006 13.0852 101.498C13.0852 101.918 12.9929 102.29 12.8082 102.614C12.6207 102.935 12.3437 103.188 11.9773 103.373C11.6108 103.555 11.1577 103.645 10.6179 103.645L6.45454 103.645L6.45454 102.371L10.4645 102.371C10.9105 102.371 11.2656 102.248 11.5298 102.001C11.794 101.753 11.9261 101.432 11.9261 101.037C11.9261 100.799 11.8665 100.562 11.7472 100.326C11.6278 100.087 11.4474 99.8897 11.206 99.7335C10.9645 99.5744 10.6577 99.4963 10.2855 99.4991ZM13 96.5087L6.45454 96.5087L6.45454 95.2772L7.49432 95.2772L7.49432 95.209C7.14204 95.0897 6.86506 94.8794 6.66335 94.5783C6.45881 94.2743 6.35653 93.9306 6.35653 93.5471C6.35653 93.4675 6.35937 93.3738 6.36506 93.2658C6.37074 93.155 6.37784 93.0684 6.38636 93.0059L7.60511 93.0059C7.59091 93.057 7.57528 93.1479 7.55824 93.2786C7.53835 93.4093 7.52841 93.5399 7.52841 93.6706C7.52841 93.9718 7.59233 94.2402 7.72017 94.476C7.84517 94.709 8.01988 94.8936 8.24432 95.03C8.46591 95.1664 8.71875 95.2346 9.00284 95.2346L13 95.2346L13 96.5087ZM13 91.9032L6.45454 91.9032L6.45454 90.6291L13 90.6291L13 91.9032ZM5.4446 91.2598C5.4446 91.4814 5.37074 91.6717 5.22301 91.8308C5.07244 91.987 4.89346 92.0652 4.68608 92.0652C4.47585 92.0652 4.29687 91.987 4.14915 91.8308C3.99858 91.6717 3.92329 91.4814 3.92329 91.2598C3.92329 91.0382 3.99858 90.8493 4.14915 90.693C4.29687 90.5339 4.47585 90.4544 4.68608 90.4544C4.89346 90.4544 5.07244 90.5339 5.22301 90.693C5.37074 90.8493 5.4446 91.0382 5.4446 91.2598ZM6.45454 85.8596L7.47727 85.8596L7.47727 89.4348L6.45454 89.4348L6.45454 85.8596ZM4.88636 88.476L4.88636 87.2019L11.0781 87.2019C11.3253 87.2019 11.5114 87.1649 11.6364 87.0911C11.7585 87.0172 11.8423 86.9221 11.8878 86.8056C11.9304 86.6863 11.9517 86.557 11.9517 86.4178C11.9517 86.3155 11.9446 86.226 11.9304 86.1493C11.9162 86.0726 11.9048 86.013 11.8963 85.9703L12.9489 85.7402C12.9773 85.8141 13.0057 85.9192 13.0341 86.0556C13.0653 86.1919 13.0824 86.3624 13.0852 86.5669C13.0909 86.9022 13.0312 87.2147 12.9062 87.5044C12.7812 87.7942 12.5881 88.0286 12.3267 88.2076C12.0653 88.3865 11.7372 88.476 11.3423 88.476L4.88636 88.476ZM15.4545 83.6447C15.4545 83.835 15.4389 84.0083 15.4077 84.1646C15.3793 84.3208 15.348 84.4373 15.3139 84.514L14.2699 84.2072C14.3324 83.9743 14.3594 83.7669 14.3509 83.585C14.3423 83.4032 14.2741 83.2427 14.1463 83.1035C14.0185 82.9615 13.8097 82.8365 13.5199 82.7285L13.0852 82.5708L6.45454 84.9657L6.45454 83.6021L11.5341 81.9444L11.5341 81.8762L6.45454 80.2186L6.45454 78.8507L13.8736 81.5481C14.2145 81.6731 14.5028 81.8322 14.7386 82.0254C14.9773 82.2186 15.1562 82.4487 15.2756 82.7157C15.3949 82.9828 15.4545 83.2924 15.4545 83.6447ZM13 74.4774L6.45454 74.4774L6.45454 73.2459L7.49432 73.2459L7.49432 73.1777C7.14204 73.0584 6.86505 72.8482 6.66335 72.5471C6.4588 72.2431 6.35653 71.8993 6.35653 71.5158C6.35653 71.4363 6.35937 71.3425 6.36505 71.2346C6.37074 71.1238 6.37784 71.0371 6.38636 70.9746L7.60511 70.9746C7.59091 71.0257 7.57528 71.1167 7.55824 71.2473C7.53835 71.378 7.52841 71.5087 7.52841 71.6394C7.52841 71.9405 7.59233 72.209 7.72017 72.4448C7.84517 72.6777 8.01988 72.8624 8.24432 72.9988C8.46591 73.1351 8.71875 73.2033 9.00284 73.2033L13 73.2033L13 74.4774ZM13.1449 68.0257C13.1449 68.4405 13.0682 68.8155 12.9148 69.1507C12.7585 69.486 12.5327 69.7516 12.2372 69.9476C11.9418 70.1408 11.5795 70.2374 11.1506 70.2374C10.7812 70.2374 10.4773 70.1664 10.2386 70.0243C10 69.8823 9.81108 69.6905 9.67187 69.449C9.53267 69.2076 9.42755 68.9377 9.35653 68.6394C9.28551 68.3411 9.23153 68.0371 9.1946 67.7274C9.14914 67.3354 9.11221 67.0172 9.0838 66.7729C9.05255 66.5286 9.00284 66.351 8.93466 66.2402C8.86647 66.1294 8.75568 66.074 8.60227 66.074L8.57244 66.074C8.20028 66.074 7.91193 66.1792 7.70738 66.3894C7.50284 66.5968 7.40057 66.9064 7.40057 67.3184C7.40057 67.7473 7.49574 68.0854 7.68608 68.3326C7.87358 68.5769 8.08238 68.7459 8.3125 68.8397L8.03977 70.0371C7.64204 69.8951 7.32102 69.6877 7.0767 69.4149C6.82954 69.1394 6.65057 68.8226 6.53977 68.4647C6.42613 68.1067 6.36932 67.7303 6.36932 67.3354C6.36932 67.074 6.40057 66.7971 6.46307 66.5044C6.52272 66.209 6.63352 65.9334 6.79545 65.6777C6.95738 65.4192 7.18892 65.2076 7.49005 65.0428C7.78835 64.878 8.17613 64.7956 8.65341 64.7956L13 64.7956L13 66.0399L12.1051 66.0399L12.1051 66.0911C12.2699 66.1735 12.4318 66.2971 12.5909 66.4618C12.75 66.6266 12.8821 66.8382 12.9872 67.0968C13.0923 67.3553 13.1449 67.6649 13.1449 68.0257ZM12.1222 67.7488C12.1222 67.3965 12.0526 67.0953 11.9133 66.8453C11.7741 66.5925 11.5923 66.4007 11.3679 66.2701C11.1406 66.1365 10.8977 66.0698 10.6392 66.0698L9.79545 66.0698C9.84091 66.1152 9.88352 66.2033 9.92329 66.334C9.96022 66.4618 9.9929 66.6081 10.0213 66.7729C10.0469 66.9377 10.071 67.0982 10.0937 67.2544C10.1136 67.4107 10.1307 67.5414 10.1449 67.6465C10.1761 67.8936 10.2287 68.1195 10.3026 68.324C10.3764 68.5257 10.483 68.6877 10.6222 68.8098C10.7585 68.9292 10.9403 68.9888 11.1676 68.9888C11.483 68.9888 11.7216 68.8723 11.8835 68.6394C12.0426 68.4064 12.1222 68.1096 12.1222 67.7488ZM6.45454 60.0431L7.47727 60.0431L7.47727 63.6184L6.45454 63.6184L6.45454 60.0431ZM4.88636 62.6596L4.88636 61.3855L11.0781 61.3855C11.3253 61.3855 11.5114 61.3485 11.6364 61.2747C11.7585 61.2008 11.8423 61.1056 11.8878 60.9892C11.9304 60.8699 11.9517 60.7406 11.9517 60.6014C11.9517 60.4991 11.9446 60.4096 11.9304 60.3329C11.9162 60.2562 11.9048 60.1966 11.8963 60.1539L12.9489 59.9238C12.9773 59.9977 13.0057 60.1028 13.0341 60.2392C13.0653 60.3755 13.0824 60.546 13.0852 60.7505C13.0909 61.0858 13.0312 61.3983 12.9062 61.688C12.7812 61.9778 12.5881 62.2122 12.3267 62.3912C12.0653 62.5701 11.7372 62.6596 11.3423 62.6596L4.88636 62.6596ZM13 58.6337L6.45454 58.6337L6.45454 57.3596L13 57.3596L13 58.6337ZM5.4446 57.9902C5.4446 58.2118 5.37074 58.4022 5.22301 58.5613C5.07244 58.7175 4.89346 58.7956 4.68608 58.7956C4.47585 58.7956 4.29687 58.7175 4.14914 58.5613C3.99858 58.4022 3.92329 58.2118 3.92329 57.9902C3.92329 57.7686 3.99858 57.5797 4.14914 57.4235C4.29687 57.2644 4.47585 57.1848 4.68608 57.1848C4.89346 57.1848 5.07244 57.2644 5.22301 57.4235C5.37074 57.5797 5.4446 57.7686 5.4446 57.9902ZM9.11363 54.3713L13 54.3713L13 55.6454L6.45454 55.6454L6.45454 54.4224L7.51988 54.4224L7.51988 54.3414C7.17329 54.1909 6.89488 53.9551 6.68466 53.6341C6.47443 53.3102 6.36932 52.9025 6.36932 52.411C6.36931 51.965 6.46306 51.5744 6.65056 51.2392C6.83522 50.9039 7.11079 50.644 7.47727 50.4593C7.84375 50.2747 8.29687 50.1824 8.83664 50.1824L13 50.1823L13 51.4565L8.99005 51.4565C8.51562 51.4565 8.14488 51.5801 7.87784 51.8272C7.60795 52.0744 7.47301 52.4139 7.47301 52.8457C7.47301 53.1412 7.53693 53.4039 7.66477 53.6341C7.79261 53.8613 7.98011 54.0417 8.22727 54.1752C8.47159 54.3059 8.76704 54.3713 9.11363 54.3713ZM15.5909 45.7292C15.5909 46.2491 15.5227 46.6966 15.3864 47.0716C15.25 47.4437 15.0696 47.7477 14.8452 47.9835C14.6207 48.2193 14.375 48.3954 14.108 48.5119L13.6562 47.4167C13.7812 47.34 13.9133 47.2377 14.0526 47.1099C14.1946 46.9792 14.3153 46.8031 14.4148 46.5815C14.5142 46.3571 14.5639 46.0687 14.5639 45.7164C14.5639 45.2335 14.446 44.8343 14.2102 44.519C13.9773 44.2037 13.6051 44.046 13.0937 44.046L11.8068 44.046L11.8068 44.127C11.946 44.2037 12.1008 44.3145 12.2713 44.4593C12.4418 44.6014 12.5895 44.7974 12.7145 45.0474C12.8395 45.2974 12.902 45.6227 12.902 46.0233C12.902 46.5403 12.7812 47.0062 12.5398 47.421C12.2955 47.8329 11.9361 48.1596 11.4616 48.4011C10.9844 48.6397 10.3977 48.7591 9.7017 48.7591C9.00568 48.7591 8.40909 48.6412 7.91193 48.4054C7.41477 48.1667 7.03409 47.84 6.76988 47.4252C6.50284 47.0105 6.36931 46.5403 6.36931 46.0147C6.36931 45.6085 6.4375 45.2804 6.57386 45.0304C6.70738 44.7804 6.86363 44.5858 7.04261 44.4466C7.22159 44.3045 7.37926 44.1951 7.51562 44.1184L7.51562 44.0247L6.45454 44.0247L6.45454 42.7761L13.1449 42.7761C13.7074 42.7761 14.169 42.9068 14.5298 43.1681C14.8906 43.4295 15.1577 43.7832 15.331 44.2292C15.5043 44.6724 15.5909 45.1724 15.5909 45.7292ZM11.8452 45.742C11.8452 45.3755 11.7599 45.0659 11.5895 44.813C11.4162 44.5574 11.169 44.3642 10.848 44.2335C10.5241 44.1 10.1364 44.0332 9.68466 44.0332C9.24431 44.0332 8.85653 44.0985 8.5213 44.2292C8.18608 44.3599 7.92471 44.5517 7.73721 44.8045C7.54687 45.0574 7.4517 45.3699 7.4517 45.742C7.4517 46.1255 7.55113 46.4451 7.75 46.7008C7.94602 46.9565 8.21306 47.1497 8.55113 47.2804C8.8892 47.4082 9.26704 47.4721 9.68466 47.4721C10.1136 47.4721 10.4901 47.4068 10.8139 47.2761C11.1378 47.1454 11.3906 46.9522 11.5724 46.6966C11.7543 46.438 11.8452 46.1199 11.8452 45.742Z" fill="#475467"/>
<circle cx="442" cy="10" r="4" fill="#444CE7"/>
<path d="M454.676 5.91193V4.81818H462.312V5.91193H459.111V15H457.878V5.91193H454.676ZM466.051 15.1591C465.362 15.1591 464.757 14.995 464.237 14.6669C463.719 14.3388 463.315 13.8797 463.023 13.2898C462.735 12.6998 462.591 12.0104 462.591 11.2216C462.591 10.4261 462.735 9.73177 463.023 9.13849C463.315 8.54522 463.719 8.08452 464.237 7.75639C464.757 7.42827 465.362 7.2642 466.051 7.2642C466.741 7.2642 467.344 7.42827 467.861 7.75639C468.381 8.08452 468.786 8.54522 469.074 9.13849C469.366 9.73177 469.511 10.4261 469.511 11.2216C469.511 12.0104 469.366 12.6998 469.074 13.2898C468.786 13.8797 468.381 14.3388 467.861 14.6669C467.344 14.995 466.741 15.1591 466.051 15.1591ZM466.051 14.1051C466.575 14.1051 467.006 13.9709 467.344 13.7024C467.682 13.4339 467.932 13.081 468.094 12.6435C468.257 12.206 468.338 11.732 468.338 11.2216C468.338 10.7112 468.257 10.2356 468.094 9.79474C467.932 9.35393 467.682 8.99763 467.344 8.72585C467.006 8.45407 466.575 8.31818 466.051 8.31818C465.527 8.31818 465.097 8.45407 464.759 8.72585C464.42 8.99763 464.17 9.35393 464.008 9.79474C463.845 10.2356 463.764 10.7112 463.764 11.2216C463.764 11.732 463.845 12.206 464.008 12.6435C464.17 13.081 464.42 13.4339 464.759 13.7024C465.097 13.9709 465.527 14.1051 466.051 14.1051ZM474.623 7.36364V8.35795H470.666V7.36364H474.623ZM471.819 5.53409H472.993V12.8125C472.993 13.1439 473.041 13.3925 473.137 13.5582C473.236 13.7206 473.362 13.83 473.515 13.8864C473.671 13.9394 473.835 13.9659 474.007 13.9659C474.136 13.9659 474.242 13.9593 474.325 13.946C474.408 13.9295 474.474 13.9162 474.524 13.9062L474.763 14.9602C474.683 14.9901 474.572 15.0199 474.43 15.0497C474.287 15.0829 474.106 15.0994 473.888 15.0994C473.556 15.0994 473.231 15.0282 472.913 14.8857C472.598 14.7431 472.336 14.526 472.128 14.2344C471.922 13.9427 471.819 13.5748 471.819 13.1307V5.53409ZM478.635 15.179C478.152 15.179 477.712 15.0878 477.318 14.9055C476.924 14.7199 476.61 14.4531 476.378 14.1051C476.146 13.7538 476.03 13.3295 476.03 12.8324C476.03 12.3949 476.117 12.0402 476.289 11.7685C476.461 11.4934 476.692 11.2779 476.98 11.1222C477.268 10.9664 477.586 10.8504 477.934 10.7741C478.286 10.6946 478.639 10.6316 478.993 10.5852C479.457 10.5256 479.834 10.4808 480.122 10.451C480.414 10.4179 480.626 10.3632 480.758 10.2869C480.894 10.2107 480.962 10.0781 480.962 9.8892V9.84943C480.962 9.3589 480.828 8.97775 480.559 8.70597C480.294 8.43419 479.892 8.2983 479.351 8.2983C478.791 8.2983 478.352 8.42093 478.034 8.66619C477.716 8.91146 477.492 9.1733 477.363 9.4517L476.249 9.05398C476.448 8.58996 476.713 8.22869 477.045 7.97017C477.379 7.70833 477.744 7.52604 478.138 7.4233C478.536 7.31723 478.927 7.2642 479.312 7.2642C479.557 7.2642 479.839 7.29403 480.157 7.35369C480.478 7.41004 480.788 7.5277 481.086 7.70668C481.388 7.88565 481.638 8.15578 481.837 8.51705C482.036 8.87831 482.135 9.36222 482.135 9.96875V15H480.962V13.9659H480.903C480.823 14.1316 480.69 14.3089 480.505 14.4979C480.319 14.6868 480.072 14.8475 479.764 14.9801C479.456 15.1127 479.08 15.179 478.635 15.179ZM478.814 14.125C479.278 14.125 479.67 14.0339 479.988 13.8516C480.309 13.6693 480.551 13.4339 480.714 13.1456C480.879 12.8572 480.962 12.554 480.962 12.2358V11.1619C480.912 11.2216 480.803 11.2763 480.634 11.326C480.468 11.3724 480.276 11.4138 480.057 11.4503C479.842 11.4834 479.631 11.5133 479.426 11.5398C479.224 11.563 479.06 11.5829 478.934 11.5994C478.629 11.6392 478.344 11.7038 478.079 11.7933C477.817 11.8795 477.605 12.0104 477.442 12.1861C477.283 12.3584 477.204 12.5937 477.204 12.892C477.204 13.2997 477.354 13.608 477.656 13.8168C477.961 14.0223 478.347 14.125 478.814 14.125ZM485.45 4.81818V15H484.277V4.81818H485.45ZM492.929 4.81818V15H491.696V4.81818H492.929ZM496.415 10.4062V15H495.242V7.36364H496.375V8.55682H496.475C496.654 8.16903 496.926 7.85748 497.29 7.62216C497.655 7.38352 498.125 7.2642 498.702 7.2642C499.219 7.2642 499.672 7.37027 500.059 7.58239C500.447 7.79119 500.749 8.10938 500.964 8.53693C501.18 8.96117 501.287 9.49811 501.287 10.1477V15H500.114V10.2273C500.114 9.62737 499.958 9.16004 499.647 8.82528C499.335 8.48722 498.908 8.31818 498.364 8.31818C497.989 8.31818 497.655 8.39938 497.36 8.56179C497.068 8.72419 496.838 8.96117 496.669 9.27273C496.5 9.58428 496.415 9.96212 496.415 10.4062ZM506.534 15.1591C505.818 15.1591 505.201 14.9901 504.684 14.652C504.167 14.3139 503.769 13.8482 503.491 13.255C503.213 12.6617 503.073 11.9839 503.073 11.2216C503.073 10.446 503.216 9.7616 503.501 9.16832C503.789 8.57173 504.19 8.10606 504.704 7.77131C505.221 7.43324 505.824 7.2642 506.514 7.2642C507.051 7.2642 507.535 7.36364 507.965 7.5625C508.396 7.76136 508.749 8.03977 509.024 8.39773C509.299 8.75568 509.47 9.1733 509.536 9.65057H508.363C508.274 9.30256 508.075 8.99432 507.767 8.72585C507.462 8.45407 507.051 8.31818 506.534 8.31818C506.076 8.31818 505.675 8.4375 505.33 8.67614C504.989 8.91146 504.722 9.24455 504.53 9.67543C504.341 10.103 504.247 10.6051 504.247 11.1818C504.247 11.7718 504.339 12.2855 504.525 12.723C504.714 13.1605 504.979 13.5002 505.32 13.7422C505.665 13.9841 506.07 14.1051 506.534 14.1051C506.838 14.1051 507.115 14.0521 507.364 13.946C507.612 13.84 507.823 13.6875 507.995 13.4886C508.168 13.2898 508.29 13.0511 508.363 12.7727H509.536C509.47 13.2235 509.306 13.6295 509.044 13.9908C508.786 14.3487 508.443 14.6338 508.015 14.8459C507.591 15.0547 507.097 15.1591 506.534 15.1591ZM514.354 15.1591C513.664 15.1591 513.06 14.995 512.539 14.6669C512.022 14.3388 511.618 13.8797 511.326 13.2898C511.038 12.6998 510.894 12.0104 510.894 11.2216C510.894 10.4261 511.038 9.73177 511.326 9.13849C511.618 8.54522 512.022 8.08452 512.539 7.75639C513.06 7.42827 513.664 7.2642 514.354 7.2642C515.043 7.2642 515.646 7.42827 516.164 7.75639C516.684 8.08452 517.088 8.54522 517.377 9.13849C517.668 9.73177 517.814 10.4261 517.814 11.2216C517.814 12.0104 517.668 12.6998 517.377 13.2898C517.088 13.8797 516.684 14.3388 516.164 14.6669C515.646 14.995 515.043 15.1591 514.354 15.1591ZM514.354 14.1051C514.878 14.1051 515.308 13.9709 515.646 13.7024C515.985 13.4339 516.235 13.081 516.397 12.6435C516.56 12.206 516.641 11.732 516.641 11.2216C516.641 10.7112 516.56 10.2356 516.397 9.79474C516.235 9.35393 515.985 8.99763 515.646 8.72585C515.308 8.45407 514.878 8.31818 514.354 8.31818C513.83 8.31818 513.399 8.45407 513.061 8.72585C512.723 8.99763 512.473 9.35393 512.311 9.79474C512.148 10.2356 512.067 10.7112 512.067 11.2216C512.067 11.732 512.148 12.206 512.311 12.6435C512.473 13.081 512.723 13.4339 513.061 13.7024C513.399 13.9709 513.83 14.1051 514.354 14.1051ZM519.605 15V7.36364H520.739V8.55682H520.838C520.997 8.14915 521.254 7.83262 521.609 7.60724C521.963 7.37855 522.389 7.2642 522.886 7.2642C523.39 7.2642 523.809 7.37855 524.144 7.60724C524.482 7.83262 524.746 8.14915 524.935 8.55682H525.014C525.21 8.16241 525.503 7.84919 525.894 7.61719C526.285 7.38187 526.754 7.2642 527.301 7.2642C527.984 7.2642 528.542 7.47798 528.977 7.90554C529.411 8.32978 529.628 8.991 529.628 9.8892V15H528.455V9.8892C528.455 9.32576 528.3 8.92306 527.992 8.68111C527.684 8.43916 527.321 8.31818 526.903 8.31818C526.366 8.31818 525.951 8.48059 525.656 8.8054C525.361 9.12689 525.213 9.53456 525.213 10.0284V15H524.02V9.76989C524.02 9.3357 523.879 8.98603 523.597 8.72088C523.316 8.45241 522.953 8.31818 522.509 8.31818C522.204 8.31818 521.919 8.39938 521.653 8.56179C521.392 8.72419 521.179 8.94957 521.017 9.23793C520.858 9.52296 520.778 9.85275 520.778 10.2273V15H519.605ZM534.975 15.1591C534.239 15.1591 533.604 14.9967 533.071 14.6719C532.54 14.3438 532.131 13.8864 531.843 13.2997C531.558 12.7098 531.415 12.0237 531.415 11.2415C531.415 10.4593 531.558 9.76989 531.843 9.1733C532.131 8.57339 532.532 8.10606 533.046 7.77131C533.563 7.43324 534.166 7.2642 534.855 7.2642C535.253 7.2642 535.646 7.33049 536.034 7.46307C536.422 7.59564 536.775 7.81108 537.093 8.10938C537.411 8.40436 537.664 8.79545 537.853 9.28267C538.042 9.76989 538.137 10.3698 538.137 11.0824V11.5795H532.25V10.5653H536.944C536.944 10.1345 536.857 9.75 536.685 9.41193C536.516 9.07386 536.274 8.80705 535.959 8.61151C535.648 8.41596 535.28 8.31818 534.855 8.31818C534.388 8.31818 533.984 8.43419 533.642 8.66619C533.304 8.89489 533.044 9.19318 532.862 9.56108C532.68 9.92898 532.588 10.3234 532.588 10.7443V11.4205C532.588 11.9972 532.688 12.486 532.887 12.8871C533.089 13.2848 533.369 13.5881 533.727 13.7969C534.085 14.0024 534.501 14.1051 534.975 14.1051C535.283 14.1051 535.561 14.062 535.81 13.9759C536.062 13.8864 536.279 13.7538 536.461 13.5781C536.644 13.3991 536.784 13.1771 536.884 12.9119L538.017 13.2301C537.898 13.6146 537.698 13.9527 537.416 14.2443C537.134 14.5327 536.786 14.758 536.372 14.9205C535.958 15.0795 535.492 15.1591 534.975 15.1591Z" fill="#475467"/>
<path d="M45.3935 26.2727V35H44.3366V27.3807H44.2855L42.1548 28.7955V27.7216L44.3366 26.2727H45.3935ZM50.75 35.1193C50.108 35.1193 49.5611 34.9446 49.1094 34.5952C48.6577 34.2429 48.3125 33.733 48.0739 33.0653C47.8352 32.3949 47.7159 31.5852 47.7159 30.6364C47.7159 29.6932 47.8352 28.8878 48.0739 28.2202C48.3153 27.5497 48.6619 27.0384 49.1136 26.6861C49.5682 26.331 50.1136 26.1534 50.75 26.1534C51.3864 26.1534 51.9304 26.331 52.3821 26.6861C52.8366 27.0384 53.1832 27.5497 53.4219 28.2202C53.6634 28.8878 53.7841 29.6932 53.7841 30.6364C53.7841 31.5852 53.6648 32.3949 53.4261 33.0653C53.1875 33.733 52.8423 34.2429 52.3906 34.5952C51.9389 34.9446 51.392 35.1193 50.75 35.1193ZM50.75 34.1818C51.3864 34.1818 51.8807 33.875 52.233 33.2614C52.5852 32.6477 52.7614 31.7727 52.7614 30.6364C52.7614 29.8807 52.6804 29.2372 52.5185 28.706C52.3594 28.1747 52.1293 27.7699 51.8281 27.4915C51.5298 27.2131 51.1705 27.0739 50.75 27.0739C50.1193 27.0739 49.6264 27.3849 49.2713 28.0071C48.9162 28.6264 48.7386 29.5028 48.7386 30.6364C48.7386 31.392 48.8182 32.0341 48.9773 32.5625C49.1364 33.0909 49.3651 33.4929 49.6634 33.7685C49.9645 34.044 50.3267 34.1818 50.75 34.1818ZM58.25 35.1193C57.608 35.1193 57.0611 34.9446 56.6094 34.5952C56.1577 34.2429 55.8125 33.733 55.5739 33.0653C55.3352 32.3949 55.2159 31.5852 55.2159 30.6364C55.2159 29.6932 55.3352 28.8878 55.5739 28.2202C55.8153 27.5497 56.1619 27.0384 56.6136 26.6861C57.0682 26.331 57.6136 26.1534 58.25 26.1534C58.8864 26.1534 59.4304 26.331 59.8821 26.6861C60.3366 27.0384 60.6832 27.5497 60.9219 28.2202C61.1634 28.8878 61.2841 29.6932 61.2841 30.6364C61.2841 31.5852 61.1648 32.3949 60.9261 33.0653C60.6875 33.733 60.3423 34.2429 59.8906 34.5952C59.4389 34.9446 58.892 35.1193 58.25 35.1193ZM58.25 34.1818C58.8864 34.1818 59.3807 33.875 59.733 33.2614C60.0852 32.6477 60.2614 31.7727 60.2614 30.6364C60.2614 29.8807 60.1804 29.2372 60.0185 28.706C59.8594 28.1747 59.6293 27.7699 59.3281 27.4915C59.0298 27.2131 58.6705 27.0739 58.25 27.0739C57.6193 27.0739 57.1264 27.3849 56.7713 28.0071C56.4162 28.6264 56.2386 29.5028 56.2386 30.6364C56.2386 31.392 56.3182 32.0341 56.4773 32.5625C56.6364 33.0909 56.8651 33.4929 57.1634 33.7685C57.4645 34.044 57.8267 34.1818 58.25 34.1818Z" fill="#344054"/>
<line x1="70.5" y1="31" x2="538.5" y2="31" stroke="#F2F4F7" stroke-linecap="round"/>
<path d="M50.8043 58.8185C50.2191 58.8185 49.7021 58.7148 49.2532 58.5075C48.8072 58.2972 48.4592 58.0089 48.2092 57.6424C47.9592 57.2731 47.8356 56.8526 47.8384 56.381C47.8356 56.0117 47.908 55.6708 48.0558 55.3583C48.2035 55.043 48.4052 54.7802 48.6609 54.57C48.9194 54.3569 49.2077 54.2219 49.5259 54.1651V54.114C49.1083 54.006 48.7759 53.7717 48.5288 53.4109C48.2816 53.0472 48.1594 52.6339 48.1623 52.1708C48.1594 51.7276 48.2717 51.3313 48.4989 50.9819C48.7262 50.6325 49.0387 50.3569 49.4364 50.1552C49.837 49.9535 50.293 49.8526 50.8043 49.8526C51.31 49.8526 51.7617 49.9535 52.1594 50.1552C52.5572 50.3569 52.8697 50.6325 53.0969 50.9819C53.3271 51.3313 53.4435 51.7276 53.4464 52.1708C53.4435 52.6339 53.3171 53.0472 53.0671 53.4109C52.82 53.7717 52.4918 54.006 52.0827 54.114V54.1651C52.3981 54.2219 52.6822 54.3569 52.935 54.57C53.1879 54.7802 53.3896 55.043 53.5401 55.3583C53.6907 55.6708 53.7674 56.0117 53.7702 56.381C53.7674 56.8526 53.6396 57.2731 53.3867 57.6424C53.1367 58.0089 52.7887 58.2972 52.3427 58.5075C51.8995 58.7148 51.3867 58.8185 50.8043 58.8185ZM50.8043 57.881C51.1992 57.881 51.5401 57.8171 51.8271 57.6893C52.114 57.5614 52.3356 57.381 52.4918 57.1481C52.6481 56.9151 52.7276 56.6424 52.7305 56.3299C52.7276 56.0004 52.6424 55.7092 52.4748 55.4563C52.3072 55.2035 52.0785 55.0046 51.7887 54.8597C51.5018 54.7148 51.1737 54.6424 50.8043 54.6424C50.4322 54.6424 50.0998 54.7148 49.8072 54.8597C49.5174 55.0046 49.2887 55.2035 49.1211 55.4563C48.9563 55.7092 48.8754 56.0004 48.8782 56.3299C48.8754 56.6424 48.9506 56.9151 49.104 57.1481C49.2603 57.381 49.4833 57.5614 49.7731 57.6893C50.0629 57.8171 50.4066 57.881 50.8043 57.881ZM50.8043 53.739C51.1168 53.739 51.3938 53.6765 51.6353 53.5515C51.8796 53.4265 52.0714 53.2518 52.2106 53.0273C52.3498 52.8029 52.4208 52.5401 52.4237 52.239C52.4208 51.9435 52.3512 51.6864 52.2148 51.4677C52.0785 51.2461 51.8896 51.0756 51.6481 50.9563C51.4066 50.8342 51.1254 50.7731 50.8043 50.7731C50.4776 50.7731 50.1921 50.8342 49.9478 50.9563C49.7035 51.0756 49.5146 51.2461 49.381 51.4677C49.2475 51.6864 49.1822 51.9435 49.185 52.239C49.1822 52.5401 49.2489 52.8029 49.3853 53.0273C49.5245 53.2518 49.7163 53.4265 49.9606 53.5515C50.2049 53.6765 50.4862 53.739 50.8043 53.739ZM58.25 58.8185C57.608 58.8185 57.0611 58.6438 56.6094 58.2944C56.1577 57.9421 55.8125 57.4322 55.5739 56.7646C55.3352 56.0941 55.2159 55.2844 55.2159 54.3356C55.2159 53.3924 55.3352 52.587 55.5739 51.9194C55.8153 51.2489 56.1619 50.7376 56.6136 50.3853C57.0682 50.0302 57.6136 49.8526 58.25 49.8526C58.8864 49.8526 59.4304 50.0302 59.8821 50.3853C60.3366 50.7376 60.6832 51.2489 60.9219 51.9194C61.1634 52.587 61.2841 53.3924 61.2841 54.3356C61.2841 55.2844 61.1648 56.0941 60.9261 56.7646C60.6875 57.4322 60.3423 57.9421 59.8906 58.2944C59.4389 58.6438 58.892 58.8185 58.25 58.8185ZM58.25 57.881C58.8864 57.881 59.3807 57.5742 59.733 56.9606C60.0852 56.3469 60.2614 55.4719 60.2614 54.3356C60.2614 53.5799 60.1804 52.9364 60.0185 52.4052C59.8594 51.8739 59.6293 51.4691 59.3281 51.1907C59.0298 50.9123 58.6705 50.7731 58.25 50.7731C57.6193 50.7731 57.1264 51.0842 56.7713 51.7063C56.4162 52.3256 56.2386 53.2021 56.2386 54.3356C56.2386 55.0913 56.3182 55.7333 56.4773 56.2617C56.6364 56.7901 56.8651 57.1921 57.1634 57.4677C57.4645 57.7433 57.8267 57.881 58.25 57.881Z" fill="#344054"/>
<line x1="70.5" y1="54.6992" x2="538.5" y2="54.6992" stroke="#F2F4F7" stroke-linecap="round"/>
<path d="M50.8129 80.0197C50.4549 80.014 50.0969 79.9458 49.739 79.8152C49.381 79.6845 49.0543 79.4643 48.7589 79.1547C48.4634 78.8422 48.2262 78.4203 48.0472 77.889C47.8683 77.3549 47.7788 76.6845 47.7788 75.8777C47.7788 75.1049 47.8512 74.4203 47.9961 73.8237C48.141 73.2243 48.3512 72.72 48.6268 72.3109C48.9023 71.899 49.2347 71.5865 49.6239 71.3734C50.016 71.1603 50.4577 71.0538 50.9492 71.0538C51.4379 71.0538 51.8725 71.1518 52.2532 71.3478C52.6367 71.541 52.9492 71.8109 53.1907 72.1575C53.4322 72.5041 53.5884 72.9032 53.6594 73.3549H52.6197C52.5231 72.9629 52.3356 72.6376 52.0572 72.3791C51.7788 72.1206 51.4094 71.9913 50.9492 71.9913C50.2731 71.9913 49.7404 72.2853 49.3512 72.8734C48.9648 73.4615 48.7702 74.2868 48.7674 75.3493H48.8356C48.9947 75.1078 49.1836 74.9018 49.4023 74.7314C49.6239 74.5581 49.8683 74.4245 50.1353 74.3308C50.4023 74.237 50.685 74.1902 50.9833 74.1902C51.4833 74.1902 51.9407 74.3152 52.3555 74.5652C52.7702 74.8123 53.1026 75.1547 53.3526 75.5922C53.6026 76.0268 53.7276 76.5254 53.7276 77.0879C53.7276 77.6277 53.6069 78.122 53.3654 78.5708C53.1239 79.0169 52.7844 79.372 52.3469 79.6362C51.9123 79.8975 51.4009 80.0254 50.8129 80.0197ZM50.8129 79.0822C51.1708 79.0822 51.4918 78.9927 51.7759 78.8137C52.0629 78.6348 52.2887 78.3947 52.4535 78.0936C52.6211 77.7924 52.7049 77.4572 52.7049 77.0879C52.7049 76.7271 52.6239 76.399 52.462 76.1035C52.3029 75.8052 52.0827 75.568 51.8015 75.3919C51.5231 75.2157 51.2049 75.1277 50.8469 75.1277C50.5771 75.1277 50.3256 75.1816 50.0927 75.2896C49.8597 75.3947 49.6552 75.5396 49.479 75.7243C49.3058 75.9089 49.1694 76.1206 49.07 76.3592C48.9705 76.595 48.9208 76.8436 48.9208 77.1049C48.9208 77.4515 49.0018 77.7754 49.1637 78.0765C49.3285 78.3777 49.5529 78.6206 49.837 78.8052C50.1239 78.9899 50.4492 79.0822 50.8129 79.0822ZM58.25 80.0197C57.608 80.0197 57.0611 79.845 56.6094 79.4956C56.1577 79.1433 55.8125 78.6333 55.5739 77.9657C55.3352 77.2953 55.2159 76.4856 55.2159 75.5368C55.2159 74.5936 55.3352 73.7882 55.5739 73.1206C55.8153 72.4501 56.1619 71.9387 56.6136 71.5865C57.0682 71.2314 57.6136 71.0538 58.25 71.0538C58.8864 71.0538 59.4304 71.2314 59.8821 71.5865C60.3366 71.9387 60.6832 72.4501 60.9219 73.1206C61.1634 73.7882 61.2841 74.5936 61.2841 75.5368C61.2841 76.4856 61.1648 77.2953 60.9261 77.9657C60.6875 78.6333 60.3423 79.1433 59.8906 79.4956C59.4389 79.845 58.892 80.0197 58.25 80.0197ZM58.25 79.0822C58.8864 79.0822 59.3807 78.7754 59.733 78.1618C60.0852 77.5481 60.2614 76.6731 60.2614 75.5368C60.2614 74.7811 60.1804 74.1376 60.0185 73.6064C59.8594 73.0751 59.6293 72.6703 59.3281 72.3919C59.0298 72.1135 58.6705 71.9743 58.25 71.9743C57.6193 71.9743 57.1264 72.2853 56.7713 72.9075C56.4162 73.5268 56.2386 74.4032 56.2386 75.5368C56.2386 76.2924 56.3182 76.9345 56.4773 77.4629C56.6364 77.9913 56.8651 78.3933 57.1634 78.6689C57.4645 78.9444 57.8267 79.0822 58.25 79.0822Z" fill="#344054"/>
<line x1="70.5" y1="75.9004" x2="538.5" y2="75.9004" stroke="#F2F4F7" stroke-linecap="round"/>
<path d="M47.4996 99.3098V98.4405L51.3349 92.3723H51.9656V93.7189H51.5394L48.6417 98.3042V98.3723H53.8065V99.3098H47.4996ZM51.6076 101.1V99.0456V98.6408V92.3723H52.6133V101.1H51.6076ZM58.25 101.219C57.608 101.219 57.0611 101.044 56.6094 100.695C56.1577 100.343 55.8125 99.8326 55.5739 99.165C55.3352 98.4945 55.2159 97.6848 55.2159 96.736C55.2159 95.7928 55.3352 94.9874 55.5739 94.3198C55.8153 93.6493 56.1619 93.138 56.6136 92.7857C57.0682 92.4306 57.6136 92.253 58.25 92.253C58.8864 92.253 59.4304 92.4306 59.8821 92.7857C60.3366 93.138 60.6832 93.6493 60.9219 94.3198C61.1634 94.9874 61.2841 95.7928 61.2841 96.736C61.2841 97.6848 61.1648 98.4945 60.9261 99.165C60.6875 99.8326 60.3423 100.343 59.8906 100.695C59.4389 101.044 58.892 101.219 58.25 101.219ZM58.25 100.281C58.8864 100.281 59.3807 99.9746 59.733 99.361C60.0852 98.7473 60.2614 97.8723 60.2614 96.736C60.2614 95.9803 60.1804 95.3368 60.0185 94.8056C59.8594 94.2743 59.6293 93.8695 59.3281 93.5911C59.0298 93.3127 58.6705 93.1735 58.25 93.1735C57.6193 93.1735 57.1264 93.4846 56.7713 94.1067C56.4162 94.726 56.2386 95.6024 56.2386 96.736C56.2386 97.4917 56.3182 98.1337 56.4773 98.6621C56.6364 99.1905 56.8651 99.5925 57.1634 99.8681C57.4645 100.144 57.8267 100.281 58.25 100.281Z" fill="#344054"/>
<line x1="70.5" y1="97.0996" x2="538.5" y2="97.0996" stroke="#F2F4F7" stroke-linecap="round"/>
<path d="M48.1378 122.301V121.534L51.0185 118.38C51.3565 118.011 51.6349 117.69 51.8537 117.417C52.0724 117.142 52.2344 116.883 52.3395 116.642C52.4474 116.397 52.5014 116.142 52.5014 115.875C52.5014 115.568 52.4276 115.302 52.2798 115.078C52.1349 114.853 51.9361 114.68 51.6832 114.558C51.4304 114.436 51.1463 114.375 50.831 114.375C50.4957 114.375 50.2031 114.444 49.9531 114.583C49.706 114.72 49.5142 114.912 49.3778 115.159C49.2443 115.406 49.1776 115.696 49.1776 116.028H48.1719C48.1719 115.517 48.2898 115.068 48.5256 114.681C48.7614 114.295 49.0824 113.994 49.4886 113.778C49.8977 113.562 50.3565 113.454 50.8651 113.454C51.3764 113.454 51.8295 113.562 52.2244 113.778C52.6193 113.994 52.929 114.285 53.1534 114.652C53.3778 115.018 53.4901 115.426 53.4901 115.875C53.4901 116.196 53.4318 116.51 53.3153 116.816C53.2017 117.12 53.0028 117.46 52.7188 117.835C52.4375 118.207 52.0469 118.662 51.5469 119.199L49.5866 121.295V121.363H53.6435V122.301H48.1378ZM58.25 122.42C57.608 122.42 57.0611 122.245 56.6094 121.896C56.1577 121.544 55.8125 121.034 55.5739 120.366C55.3352 119.696 55.2159 118.886 55.2159 117.937C55.2159 116.994 55.3352 116.189 55.5739 115.521C55.8153 114.85 56.1619 114.339 56.6136 113.987C57.0682 113.632 57.6136 113.454 58.25 113.454C58.8864 113.454 59.4304 113.632 59.8821 113.987C60.3366 114.339 60.6832 114.85 60.9219 115.521C61.1634 116.189 61.2841 116.994 61.2841 117.937C61.2841 118.886 61.1648 119.696 60.9261 120.366C60.6875 121.034 60.3423 121.544 59.8906 121.896C59.4389 122.245 58.892 122.42 58.25 122.42ZM58.25 121.483C58.8864 121.483 59.3807 121.176 59.733 120.562C60.0852 119.949 60.2614 119.074 60.2614 117.937C60.2614 117.181 60.1804 116.538 60.0185 116.007C59.8594 115.475 59.6293 115.071 59.3281 114.792C59.0298 114.514 58.6705 114.375 58.25 114.375C57.6193 114.375 57.1264 114.686 56.7713 115.308C56.4162 115.927 56.2386 116.804 56.2386 117.937C56.2386 118.693 56.3182 119.335 56.4773 119.863C56.6364 120.392 56.8651 120.794 57.1634 121.069C57.4645 121.345 57.8267 121.483 58.25 121.483Z" fill="#344054"/>
<line x1="70.5" y1="118.301" x2="538.5" y2="118.301" stroke="#F2F4F7" stroke-linecap="round"/>
<path d="M58.25 143.619C57.608 143.619 57.0611 143.445 56.6094 143.095C56.1577 142.743 55.8125 142.233 55.5739 141.565C55.3352 140.895 55.2159 140.085 55.2159 139.136C55.2159 138.193 55.3352 137.388 55.5739 136.72C55.8153 136.05 56.1619 135.538 56.6136 135.186C57.0682 134.831 57.6136 134.653 58.25 134.653C58.8864 134.653 59.4304 134.831 59.8821 135.186C60.3366 135.538 60.6832 136.05 60.9219 136.72C61.1634 137.388 61.2841 138.193 61.2841 139.136C61.2841 140.085 61.1648 140.895 60.9261 141.565C60.6875 142.233 60.3423 142.743 59.8906 143.095C59.4389 143.445 58.892 143.619 58.25 143.619ZM58.25 142.682C58.8864 142.682 59.3807 142.375 59.733 141.761C60.0852 141.148 60.2614 140.273 60.2614 139.136C60.2614 138.381 60.1804 137.737 60.0185 137.206C59.8594 136.675 59.6293 136.27 59.3281 135.991C59.0298 135.713 58.6705 135.574 58.25 135.574C57.6193 135.574 57.1264 135.885 56.7713 136.507C56.4162 137.126 56.2386 138.003 56.2386 139.136C56.2386 139.892 56.3182 140.534 56.4773 141.062C56.6364 141.591 56.8651 141.993 57.1634 142.268C57.4645 142.544 57.8267 142.682 58.25 142.682Z" fill="#344054"/>
<line x1="70.5" y1="139.5" x2="538.5" y2="139.5" stroke="#F2F4F7" stroke-linecap="round"/>
<path d="M90.7493 152.273H91.8061V158.511C91.8061 159.068 91.7038 159.541 91.4993 159.93C91.2947 160.32 91.0064 160.615 90.6342 160.817C90.2621 161.018 89.8232 161.119 89.3175 161.119C88.8402 161.119 88.4155 161.033 88.0433 160.859C87.6712 160.683 87.3786 160.433 87.1655 160.109C86.9524 159.786 86.8459 159.401 86.8459 158.955H87.8857C87.8857 159.202 87.9467 159.418 88.0689 159.602C88.1939 159.784 88.3643 159.926 88.5803 160.028C88.7962 160.131 89.0419 160.182 89.3175 160.182C89.6214 160.182 89.88 160.118 90.093 159.99C90.3061 159.862 90.468 159.675 90.5788 159.428C90.6925 159.178 90.7493 158.872 90.7493 158.511V152.273ZM95.7138 161.153C95.299 161.153 94.9226 161.075 94.5845 160.919C94.2464 160.76 93.978 160.531 93.7791 160.233C93.5803 159.932 93.4808 159.568 93.4808 159.142C93.4808 158.767 93.5547 158.463 93.7024 158.23C93.8501 157.994 94.0476 157.81 94.2947 157.676C94.5419 157.543 94.8146 157.443 95.1129 157.378C95.4141 157.31 95.7166 157.256 96.0206 157.216C96.4183 157.165 96.7408 157.126 96.9879 157.101C97.2379 157.072 97.4197 157.026 97.5334 156.96C97.6499 156.895 97.7081 156.781 97.7081 156.619V156.585C97.7081 156.165 97.593 155.838 97.3629 155.605C97.1357 155.372 96.7905 155.256 96.3274 155.256C95.8473 155.256 95.4709 155.361 95.1982 155.571C94.9254 155.781 94.7337 156.006 94.6229 156.244L93.6683 155.903C93.8388 155.506 94.0661 155.196 94.3501 154.974C94.6371 154.75 94.9496 154.594 95.2876 154.506C95.6286 154.415 95.9638 154.369 96.2933 154.369C96.5036 154.369 96.745 154.395 97.0178 154.446C97.2933 154.494 97.5589 154.595 97.8146 154.749C98.0732 154.902 98.2876 155.134 98.4581 155.443C98.6286 155.753 98.7138 156.168 98.7138 156.688V161H97.7081V160.114H97.657C97.5888 160.256 97.4751 160.408 97.3161 160.57C97.157 160.732 96.9453 160.869 96.6811 160.983C96.4169 161.097 96.0945 161.153 95.7138 161.153ZM95.8672 160.25C96.2649 160.25 96.6001 160.172 96.8729 160.016C97.1484 159.859 97.3558 159.658 97.495 159.411C97.6371 159.163 97.7081 158.903 97.7081 158.631V157.71C97.6655 157.761 97.5717 157.808 97.4268 157.851C97.2848 157.891 97.12 157.926 96.9325 157.957C96.7479 157.986 96.5675 158.011 96.3913 158.034C96.218 158.054 96.0774 158.071 95.9695 158.085C95.7081 158.119 95.4638 158.175 95.2365 158.251C95.0121 158.325 94.8303 158.437 94.6911 158.588C94.5547 158.736 94.4865 158.937 94.4865 159.193C94.4865 159.543 94.6158 159.807 94.8743 159.986C95.1357 160.162 95.4666 160.25 95.8672 160.25ZM101.555 157.062V161H100.549V154.455H101.521V155.477H101.606C101.76 155.145 101.993 154.878 102.305 154.676C102.618 154.472 103.021 154.369 103.515 154.369C103.958 154.369 104.346 154.46 104.679 154.642C105.011 154.821 105.27 155.094 105.454 155.46C105.639 155.824 105.731 156.284 105.731 156.841V161H104.725V156.909C104.725 156.395 104.592 155.994 104.325 155.707C104.058 155.418 103.691 155.273 103.225 155.273C102.904 155.273 102.618 155.342 102.365 155.482C102.115 155.621 101.917 155.824 101.772 156.091C101.627 156.358 101.555 156.682 101.555 157.062Z" fill="#475467"/>
<path d="M123.603 161V152.273H128.836V153.21H124.66V156.159H128.444V157.097H124.66V161H123.603ZM132.773 161.136C132.142 161.136 131.598 160.997 131.141 160.719C130.687 160.438 130.336 160.045 130.089 159.543C129.844 159.037 129.722 158.449 129.722 157.778C129.722 157.108 129.844 156.517 130.089 156.006C130.336 155.491 130.679 155.091 131.12 154.804C131.563 154.514 132.08 154.369 132.671 154.369C133.012 154.369 133.348 154.426 133.681 154.54C134.013 154.653 134.316 154.838 134.589 155.094C134.861 155.347 135.079 155.682 135.241 156.099C135.402 156.517 135.483 157.031 135.483 157.642V158.068H130.438V157.199H134.461C134.461 156.83 134.387 156.5 134.239 156.21C134.094 155.92 133.887 155.692 133.617 155.524C133.35 155.357 133.035 155.273 132.671 155.273C132.27 155.273 131.924 155.372 131.631 155.571C131.341 155.767 131.118 156.023 130.962 156.338C130.806 156.653 130.728 156.991 130.728 157.352V157.932C130.728 158.426 130.813 158.845 130.983 159.189C131.157 159.53 131.397 159.79 131.704 159.969C132.01 160.145 132.367 160.233 132.773 160.233C133.037 160.233 133.276 160.196 133.489 160.122C133.705 160.045 133.891 159.932 134.047 159.781C134.204 159.628 134.324 159.437 134.41 159.21L135.381 159.483C135.279 159.812 135.107 160.102 134.866 160.352C134.624 160.599 134.326 160.793 133.971 160.932C133.616 161.068 133.216 161.136 132.773 161.136ZM137.15 161V152.273H138.155V155.494H138.241C138.314 155.381 138.417 155.236 138.547 155.06C138.681 154.881 138.871 154.722 139.118 154.582C139.368 154.44 139.706 154.369 140.133 154.369C140.684 154.369 141.169 154.507 141.59 154.783C142.01 155.058 142.339 155.449 142.574 155.955C142.81 156.46 142.928 157.057 142.928 157.744C142.928 158.438 142.81 159.038 142.574 159.547C142.339 160.053 142.012 160.445 141.594 160.723C141.177 160.999 140.695 161.136 140.15 161.136C139.729 161.136 139.392 161.067 139.14 160.928C138.887 160.786 138.692 160.625 138.556 160.446C138.419 160.264 138.314 160.114 138.241 159.994H138.121V161H137.15ZM138.138 157.727C138.138 158.222 138.211 158.658 138.356 159.036C138.5 159.411 138.712 159.705 138.991 159.918C139.269 160.128 139.61 160.233 140.013 160.233C140.434 160.233 140.785 160.122 141.066 159.901C141.35 159.676 141.563 159.375 141.705 158.997C141.85 158.616 141.922 158.193 141.922 157.727C141.922 157.267 141.851 156.852 141.709 156.483C141.57 156.111 141.358 155.817 141.074 155.601C140.793 155.382 140.439 155.273 140.013 155.273C139.604 155.273 139.26 155.376 138.982 155.584C138.704 155.788 138.493 156.075 138.351 156.445C138.209 156.811 138.138 157.239 138.138 157.727Z" fill="#475467"/>
<path d="M160.196 152.273H161.458L164.424 159.517H164.526L167.492 152.273H168.753V161H167.765V154.369H167.679L164.952 161H163.998L161.27 154.369H161.185V161H160.196V152.273ZM172.662 161.153C172.247 161.153 171.871 161.075 171.533 160.919C171.195 160.76 170.926 160.531 170.727 160.233C170.528 159.932 170.429 159.568 170.429 159.142C170.429 158.767 170.503 158.463 170.651 158.23C170.798 157.994 170.996 157.81 171.243 157.676C171.49 157.543 171.763 157.443 172.061 157.378C172.362 157.31 172.665 157.256 172.969 157.216C173.367 157.165 173.689 157.126 173.936 157.101C174.186 157.072 174.368 157.026 174.482 156.96C174.598 156.895 174.656 156.781 174.656 156.619V156.585C174.656 156.165 174.541 155.838 174.311 155.605C174.084 155.372 173.739 155.256 173.276 155.256C172.796 155.256 172.419 155.361 172.146 155.571C171.874 155.781 171.682 156.006 171.571 156.244L170.617 155.903C170.787 155.506 171.014 155.196 171.298 154.974C171.585 154.75 171.898 154.594 172.236 154.506C172.577 154.415 172.912 154.369 173.242 154.369C173.452 154.369 173.693 154.395 173.966 154.446C174.242 154.494 174.507 154.595 174.763 154.749C175.021 154.902 175.236 155.134 175.406 155.443C175.577 155.753 175.662 156.168 175.662 156.688V161H174.656V160.114H174.605C174.537 160.256 174.423 160.408 174.264 160.57C174.105 160.732 173.894 160.869 173.629 160.983C173.365 161.097 173.043 161.153 172.662 161.153ZM172.815 160.25C173.213 160.25 173.548 160.172 173.821 160.016C174.097 159.859 174.304 159.658 174.443 159.411C174.585 159.163 174.656 158.903 174.656 158.631V157.71C174.614 157.761 174.52 157.808 174.375 157.851C174.233 157.891 174.068 157.926 173.881 157.957C173.696 157.986 173.516 158.011 173.34 158.034C173.166 158.054 173.026 158.071 172.918 158.085C172.656 158.119 172.412 158.175 172.185 158.251C171.96 158.325 171.778 158.437 171.639 158.588C171.503 158.736 171.435 158.937 171.435 159.193C171.435 159.543 171.564 159.807 171.823 159.986C172.084 160.162 172.415 160.25 172.815 160.25ZM177.498 161V154.455H178.469V155.443H178.537C178.657 155.119 178.873 154.857 179.185 154.655C179.498 154.453 179.85 154.352 180.242 154.352C180.316 154.352 180.408 154.354 180.519 154.357C180.63 154.359 180.714 154.364 180.77 154.369V155.392C180.736 155.384 180.658 155.371 180.536 155.354C180.417 155.334 180.29 155.324 180.157 155.324C179.839 155.324 179.554 155.391 179.304 155.524C179.057 155.655 178.861 155.837 178.716 156.07C178.574 156.3 178.503 156.562 178.503 156.858V161H177.498Z" fill="#475467"/>
<path d="M198.108 161H197L200.205 152.273H201.296L204.5 161H203.392L200.784 153.653H200.716L198.108 161ZM198.517 157.591H202.983V158.528H198.517V157.591ZM205.723 163.455V154.455H206.695V155.494H206.814C206.888 155.381 206.99 155.236 207.121 155.06C207.254 154.881 207.445 154.722 207.692 154.582C207.942 154.44 208.28 154.369 208.706 154.369C209.257 154.369 209.743 154.507 210.164 154.783C210.584 155.058 210.912 155.449 211.148 155.955C211.384 156.46 211.502 157.057 211.502 157.744C211.502 158.438 211.384 159.038 211.148 159.547C210.912 160.053 210.585 160.445 210.168 160.723C209.75 160.999 209.269 161.136 208.723 161.136C208.303 161.136 207.966 161.067 207.713 160.928C207.46 160.786 207.266 160.625 207.129 160.446C206.993 160.264 206.888 160.114 206.814 159.994H206.729V163.455H205.723ZM206.712 157.727C206.712 158.222 206.784 158.658 206.929 159.036C207.074 159.411 207.286 159.705 207.564 159.918C207.843 160.128 208.183 160.233 208.587 160.233C209.007 160.233 209.358 160.122 209.639 159.901C209.923 159.676 210.137 159.375 210.279 158.997C210.423 158.616 210.496 158.193 210.496 157.727C210.496 157.267 210.425 156.852 210.283 156.483C210.144 156.111 209.932 155.817 209.648 155.601C209.367 155.382 209.013 155.273 208.587 155.273C208.178 155.273 207.834 155.376 207.556 155.584C207.277 155.788 207.067 156.075 206.925 156.445C206.783 156.811 206.712 157.239 206.712 157.727ZM213.036 161V154.455H214.007V155.443H214.075C214.195 155.119 214.411 154.857 214.723 154.655C215.036 154.453 215.388 154.352 215.78 154.352C215.854 154.352 215.946 154.354 216.057 154.357C216.168 154.359 216.252 154.364 216.308 154.369V155.392C216.274 155.384 216.196 155.371 216.074 155.354C215.955 155.334 215.828 155.324 215.695 155.324C215.377 155.324 215.093 155.391 214.843 155.524C214.595 155.655 214.399 155.837 214.254 156.07C214.112 156.3 214.041 156.562 214.041 156.858V161H213.036Z" fill="#475467"/>
<path d="M233.297 152.273H234.558L237.524 159.517H237.627L240.593 152.273H241.854V161H240.865V154.369H240.78L238.053 161H237.098L234.371 154.369H234.286V161H233.297V152.273ZM245.763 161.153C245.348 161.153 244.971 161.075 244.633 160.919C244.295 160.76 244.027 160.531 243.828 160.233C243.629 159.932 243.53 159.568 243.53 159.142C243.53 158.767 243.604 158.463 243.751 158.23C243.899 157.994 244.096 157.81 244.344 157.676C244.591 157.543 244.863 157.443 245.162 157.378C245.463 157.31 245.765 157.256 246.069 157.216C246.467 157.165 246.79 157.126 247.037 157.101C247.287 157.072 247.469 157.026 247.582 156.96C247.699 156.895 247.757 156.781 247.757 156.619V156.585C247.757 156.165 247.642 155.838 247.412 155.605C247.184 155.372 246.839 155.256 246.376 155.256C245.896 155.256 245.52 155.361 245.247 155.571C244.974 155.781 244.782 156.006 244.672 156.244L243.717 155.903C243.888 155.506 244.115 155.196 244.399 154.974C244.686 154.75 244.998 154.594 245.336 154.506C245.677 154.415 246.013 154.369 246.342 154.369C246.552 154.369 246.794 154.395 247.067 154.446C247.342 154.494 247.608 154.595 247.863 154.749C248.122 154.902 248.336 155.134 248.507 155.443C248.677 155.753 248.763 156.168 248.763 156.688V161H247.757V160.114H247.706C247.638 160.256 247.524 160.408 247.365 160.57C247.206 160.732 246.994 160.869 246.73 160.983C246.466 161.097 246.143 161.153 245.763 161.153ZM245.916 160.25C246.314 160.25 246.649 160.172 246.922 160.016C247.197 159.859 247.405 159.658 247.544 159.411C247.686 159.163 247.757 158.903 247.757 158.631V157.71C247.714 157.761 247.621 157.808 247.476 157.851C247.334 157.891 247.169 157.926 246.981 157.957C246.797 157.986 246.616 158.011 246.44 158.034C246.267 158.054 246.126 158.071 246.018 158.085C245.757 158.119 245.513 158.175 245.285 158.251C245.061 158.325 244.879 158.437 244.74 158.588C244.604 158.736 244.535 158.937 244.535 159.193C244.535 159.543 244.665 159.807 244.923 159.986C245.184 160.162 245.515 160.25 245.916 160.25ZM251.012 163.455C250.841 163.455 250.689 163.44 250.556 163.412C250.422 163.386 250.33 163.361 250.279 163.335L250.534 162.449C250.779 162.511 250.994 162.534 251.182 162.517C251.369 162.5 251.536 162.416 251.681 162.266C251.828 162.118 251.963 161.878 252.085 161.545L252.273 161.034L249.852 154.455H250.943L252.75 159.67H252.818L254.625 154.455H255.716L252.938 161.955C252.813 162.293 252.658 162.572 252.473 162.794C252.289 163.018 252.074 163.185 251.83 163.293C251.588 163.401 251.316 163.455 251.012 163.455Z" fill="#475467"/>
<path d="M276.371 152.273H277.428V158.511C277.428 159.068 277.326 159.541 277.121 159.93C276.917 160.32 276.628 160.615 276.256 160.817C275.884 161.018 275.445 161.119 274.94 161.119C274.462 161.119 274.038 161.033 273.665 160.859C273.293 160.683 273.001 160.433 272.788 160.109C272.574 159.786 272.468 159.401 272.468 158.955H273.508C273.508 159.202 273.569 159.418 273.691 159.602C273.816 159.784 273.986 159.926 274.202 160.028C274.418 160.131 274.664 160.182 274.94 160.182C275.244 160.182 275.502 160.118 275.715 159.99C275.928 159.862 276.09 159.675 276.201 159.428C276.315 159.178 276.371 158.872 276.371 158.511V152.273ZM283.535 158.324V154.455H284.54V161H283.535V159.892H283.467C283.313 160.224 283.074 160.507 282.751 160.74C282.427 160.97 282.018 161.085 281.523 161.085C281.114 161.085 280.751 160.996 280.432 160.817C280.114 160.635 279.864 160.362 279.682 159.999C279.501 159.632 279.41 159.17 279.41 158.614V154.455H280.415V158.545C280.415 159.023 280.549 159.403 280.816 159.688C281.086 159.972 281.43 160.114 281.847 160.114C282.097 160.114 282.351 160.05 282.61 159.922C282.871 159.794 283.09 159.598 283.266 159.334C283.445 159.07 283.535 158.733 283.535 158.324ZM287.388 157.062V161H286.382V154.455H287.354V155.477H287.439C287.593 155.145 287.826 154.878 288.138 154.676C288.451 154.472 288.854 154.369 289.348 154.369C289.791 154.369 290.179 154.46 290.512 154.642C290.844 154.821 291.103 155.094 291.287 155.46C291.472 155.824 291.564 156.284 291.564 156.841V161H290.559V156.909C290.559 156.395 290.425 155.994 290.158 155.707C289.891 155.418 289.524 155.273 289.059 155.273C288.737 155.273 288.451 155.342 288.198 155.482C287.948 155.621 287.75 155.824 287.605 156.091C287.46 156.358 287.388 156.682 287.388 157.062Z" fill="#475467"/>
<path d="M313.002 152.273H314.059V158.511C314.059 159.068 313.957 159.541 313.752 159.93C313.548 160.32 313.259 160.615 312.887 160.817C312.515 161.018 312.076 161.119 311.57 161.119C311.093 161.119 310.668 161.033 310.296 160.859C309.924 160.683 309.631 160.433 309.418 160.109C309.205 159.786 309.099 159.401 309.099 158.955H310.139C310.139 159.202 310.2 159.418 310.322 159.602C310.447 159.784 310.617 159.926 310.833 160.028C311.049 160.131 311.295 160.182 311.57 160.182C311.874 160.182 312.133 160.118 312.346 159.99C312.559 159.862 312.721 159.675 312.832 159.428C312.945 159.178 313.002 158.872 313.002 158.511V152.273ZM320.166 158.324V154.455H321.171V161H320.166V159.892H320.097C319.944 160.224 319.705 160.507 319.381 160.74C319.058 160.97 318.649 161.085 318.154 161.085C317.745 161.085 317.381 160.996 317.063 160.817C316.745 160.635 316.495 160.362 316.313 159.999C316.131 159.632 316.041 159.17 316.041 158.614V154.455H317.046V158.545C317.046 159.023 317.18 159.403 317.447 159.688C317.717 159.972 318.06 160.114 318.478 160.114C318.728 160.114 318.982 160.05 319.241 159.922C319.502 159.794 319.721 159.598 319.897 159.334C320.076 159.07 320.166 158.733 320.166 158.324ZM324.019 152.273V161H323.013V152.273H324.019Z" fill="#475467"/>
<path d="M342.536 161H341.428L344.632 152.273H345.723L348.928 161H347.82L345.212 153.653H345.144L342.536 161ZM342.945 157.591H347.411V158.528H342.945V157.591ZM354.276 158.324V154.455H355.282V161H354.276V159.892H354.208C354.054 160.224 353.816 160.507 353.492 160.74C353.168 160.97 352.759 161.085 352.265 161.085C351.855 161.085 351.492 160.996 351.174 160.817C350.855 160.635 350.605 160.362 350.424 159.999C350.242 159.632 350.151 159.17 350.151 158.614V154.455H351.157V158.545C351.157 159.023 351.29 159.403 351.557 159.688C351.827 159.972 352.171 160.114 352.588 160.114C352.838 160.114 353.093 160.05 353.351 159.922C353.613 159.794 353.831 159.598 354.007 159.334C354.186 159.07 354.276 158.733 354.276 158.324ZM359.766 163.591C359.28 163.591 358.862 163.528 358.513 163.403C358.163 163.281 357.872 163.119 357.639 162.918C357.409 162.719 357.226 162.506 357.089 162.278L357.891 161.716C357.982 161.835 358.097 161.972 358.236 162.125C358.375 162.281 358.565 162.416 358.807 162.53C359.051 162.646 359.371 162.705 359.766 162.705C360.294 162.705 360.73 162.577 361.074 162.321C361.418 162.065 361.589 161.665 361.589 161.119V159.79H361.504C361.43 159.909 361.325 160.057 361.189 160.233C361.055 160.406 360.862 160.561 360.609 160.697C360.359 160.831 360.021 160.898 359.595 160.898C359.067 160.898 358.592 160.773 358.172 160.523C357.754 160.273 357.423 159.909 357.179 159.432C356.938 158.955 356.817 158.375 356.817 157.693C356.817 157.023 356.935 156.439 357.17 155.942C357.406 155.442 357.734 155.055 358.155 154.783C358.575 154.507 359.061 154.369 359.612 154.369C360.038 154.369 360.376 154.44 360.626 154.582C360.879 154.722 361.072 154.881 361.206 155.06C361.342 155.236 361.447 155.381 361.521 155.494H361.624V154.455H362.595V161.188C362.595 161.75 362.467 162.207 362.212 162.56C361.959 162.915 361.618 163.175 361.189 163.339C360.763 163.507 360.288 163.591 359.766 163.591ZM359.732 159.994C360.135 159.994 360.476 159.902 360.754 159.717C361.033 159.533 361.244 159.267 361.389 158.92C361.534 158.574 361.607 158.159 361.607 157.676C361.607 157.205 361.536 156.788 361.393 156.428C361.251 156.067 361.041 155.784 360.763 155.58C360.484 155.375 360.141 155.273 359.732 155.273C359.305 155.273 358.95 155.381 358.666 155.597C358.385 155.812 358.173 156.102 358.031 156.466C357.892 156.83 357.822 157.233 357.822 157.676C357.822 158.131 357.893 158.533 358.036 158.882C358.18 159.229 358.393 159.501 358.675 159.7C358.959 159.896 359.311 159.994 359.732 159.994Z" fill="#475467"/>
<path d="M385.218 154.455C385.167 154.023 384.96 153.688 384.596 153.449C384.232 153.21 383.786 153.091 383.258 153.091C382.872 153.091 382.534 153.153 382.244 153.278C381.957 153.403 381.732 153.575 381.57 153.794C381.411 154.013 381.332 154.261 381.332 154.54C381.332 154.773 381.387 154.973 381.498 155.141C381.612 155.305 381.757 155.443 381.933 155.554C382.109 155.662 382.294 155.751 382.487 155.822C382.68 155.891 382.857 155.946 383.019 155.989L383.906 156.227C384.133 156.287 384.386 156.369 384.664 156.474C384.945 156.58 385.214 156.723 385.47 156.905C385.728 157.084 385.941 157.314 386.109 157.595C386.276 157.876 386.36 158.222 386.36 158.631C386.36 159.102 386.237 159.528 385.99 159.909C385.745 160.29 385.387 160.592 384.916 160.817C384.447 161.041 383.877 161.153 383.207 161.153C382.582 161.153 382.041 161.053 381.583 160.851C381.129 160.649 380.771 160.368 380.509 160.007C380.251 159.646 380.105 159.227 380.07 158.75H381.161C381.19 159.08 381.301 159.352 381.494 159.568C381.69 159.781 381.937 159.94 382.235 160.045C382.536 160.148 382.86 160.199 383.207 160.199C383.61 160.199 383.972 160.134 384.294 160.003C384.615 159.869 384.869 159.685 385.056 159.449C385.244 159.21 385.338 158.932 385.338 158.614C385.338 158.324 385.257 158.088 385.095 157.906C384.933 157.724 384.72 157.577 384.455 157.463C384.191 157.349 383.906 157.25 383.599 157.165L382.525 156.858C381.843 156.662 381.303 156.382 380.906 156.018C380.508 155.655 380.309 155.179 380.309 154.591C380.309 154.102 380.441 153.676 380.705 153.312C380.972 152.946 381.33 152.662 381.779 152.46C382.231 152.256 382.735 152.153 383.292 152.153C383.855 152.153 384.355 152.254 384.792 152.456C385.23 152.655 385.576 152.928 385.832 153.274C386.09 153.621 386.227 154.014 386.241 154.455H385.218ZM390.706 161.136C390.075 161.136 389.531 160.997 389.074 160.719C388.619 160.438 388.268 160.045 388.021 159.543C387.777 159.037 387.655 158.449 387.655 157.778C387.655 157.108 387.777 156.517 388.021 156.006C388.268 155.491 388.612 155.091 389.052 154.804C389.496 154.514 390.013 154.369 390.604 154.369C390.944 154.369 391.281 154.426 391.613 154.54C391.946 154.653 392.248 154.838 392.521 155.094C392.794 155.347 393.011 155.682 393.173 156.099C393.335 156.517 393.416 157.031 393.416 157.642V158.068H388.371V157.199H392.393C392.393 156.83 392.319 156.5 392.172 156.21C392.027 155.92 391.819 155.692 391.55 155.524C391.282 155.357 390.967 155.273 390.604 155.273C390.203 155.273 389.856 155.372 389.564 155.571C389.274 155.767 389.051 156.023 388.895 156.338C388.738 156.653 388.66 156.991 388.66 157.352V157.932C388.66 158.426 388.746 158.845 388.916 159.189C389.089 159.53 389.329 159.79 389.636 159.969C389.943 160.145 390.3 160.233 390.706 160.233C390.97 160.233 391.209 160.196 391.422 160.122C391.638 160.045 391.824 159.932 391.98 159.781C392.136 159.628 392.257 159.437 392.342 159.21L393.314 159.483C393.211 159.812 393.04 160.102 392.798 160.352C392.557 160.599 392.258 160.793 391.903 160.932C391.548 161.068 391.149 161.136 390.706 161.136ZM394.946 163.455V154.455H395.917V155.494H396.037C396.111 155.381 396.213 155.236 396.344 155.06C396.477 154.881 396.667 154.722 396.915 154.582C397.165 154.44 397.503 154.369 397.929 154.369C398.48 154.369 398.966 154.507 399.386 154.783C399.807 155.058 400.135 155.449 400.371 155.955C400.606 156.46 400.724 157.057 400.724 157.744C400.724 158.438 400.606 159.038 400.371 159.547C400.135 160.053 399.808 160.445 399.39 160.723C398.973 160.999 398.491 161.136 397.946 161.136C397.525 161.136 397.189 161.067 396.936 160.928C396.683 160.786 396.488 160.625 396.352 160.446C396.216 160.264 396.111 160.114 396.037 159.994H395.952V163.455H394.946ZM395.934 157.727C395.934 158.222 396.007 158.658 396.152 159.036C396.297 159.411 396.508 159.705 396.787 159.918C397.065 160.128 397.406 160.233 397.809 160.233C398.23 160.233 398.581 160.122 398.862 159.901C399.146 159.676 399.359 159.375 399.501 158.997C399.646 158.616 399.719 158.193 399.719 157.727C399.719 157.267 399.648 156.852 399.506 156.483C399.366 156.111 399.155 155.817 398.871 155.601C398.589 155.382 398.236 155.273 397.809 155.273C397.4 155.273 397.057 155.376 396.778 155.584C396.5 155.788 396.29 156.075 396.148 156.445C396.006 156.811 395.934 157.239 395.934 157.727Z" fill="#475467"/>
<path d="M425.728 156.636C425.728 157.557 425.562 158.352 425.229 159.023C424.897 159.693 424.441 160.21 423.862 160.574C423.282 160.938 422.62 161.119 421.876 161.119C421.131 161.119 420.47 160.938 419.89 160.574C419.31 160.21 418.854 159.693 418.522 159.023C418.19 158.352 418.024 157.557 418.024 156.636C418.024 155.716 418.19 154.92 418.522 154.25C418.854 153.58 419.31 153.062 419.89 152.699C420.47 152.335 421.131 152.153 421.876 152.153C422.62 152.153 423.282 152.335 423.862 152.699C424.441 153.062 424.897 153.58 425.229 154.25C425.562 154.92 425.728 155.716 425.728 156.636ZM424.705 156.636C424.705 155.881 424.579 155.243 424.326 154.723C424.076 154.203 423.737 153.81 423.308 153.543C422.881 153.276 422.404 153.142 421.876 153.142C421.347 153.142 420.869 153.276 420.44 153.543C420.014 153.81 419.674 154.203 419.421 154.723C419.171 155.243 419.046 155.881 419.046 156.636C419.046 157.392 419.171 158.03 419.421 158.55C419.674 159.07 420.014 159.463 420.44 159.73C420.869 159.997 421.347 160.131 421.876 160.131C422.404 160.131 422.881 159.997 423.308 159.73C423.737 159.463 424.076 159.07 424.326 158.55C424.579 158.03 424.705 157.392 424.705 156.636ZM430.028 161.136C429.414 161.136 428.886 160.991 428.443 160.702C427.999 160.412 427.658 160.013 427.42 159.504C427.181 158.996 427.062 158.415 427.062 157.761C427.062 157.097 427.184 156.51 427.428 156.001C427.676 155.49 428.019 155.091 428.46 154.804C428.903 154.514 429.42 154.369 430.011 154.369C430.471 154.369 430.886 154.455 431.255 154.625C431.624 154.795 431.927 155.034 432.163 155.341C432.399 155.648 432.545 156.006 432.602 156.415H431.596C431.519 156.116 431.349 155.852 431.085 155.622C430.823 155.389 430.471 155.273 430.028 155.273C429.636 155.273 429.292 155.375 428.997 155.58C428.704 155.781 428.475 156.067 428.31 156.436C428.149 156.803 428.068 157.233 428.068 157.727C428.068 158.233 428.147 158.673 428.306 159.048C428.468 159.423 428.695 159.714 428.988 159.922C429.283 160.129 429.63 160.233 430.028 160.233C430.289 160.233 430.526 160.188 430.739 160.097C430.953 160.006 431.133 159.875 431.281 159.705C431.428 159.534 431.533 159.33 431.596 159.091H432.602C432.545 159.477 432.404 159.825 432.18 160.135C431.958 160.442 431.664 160.686 431.298 160.868C430.934 161.047 430.511 161.136 430.028 161.136ZM436.918 154.455V155.307H433.526V154.455H436.918ZM434.515 152.886H435.521V159.125C435.521 159.409 435.562 159.622 435.644 159.764C435.729 159.903 435.837 159.997 435.968 160.045C436.102 160.091 436.242 160.114 436.39 160.114C436.501 160.114 436.592 160.108 436.663 160.097C436.734 160.082 436.791 160.071 436.833 160.062L437.038 160.966C436.97 160.991 436.874 161.017 436.752 161.043C436.63 161.071 436.475 161.085 436.288 161.085C436.004 161.085 435.725 161.024 435.453 160.902C435.183 160.78 434.958 160.594 434.779 160.344C434.603 160.094 434.515 159.778 434.515 159.398V152.886Z" fill="#475467"/>
<path d="M461.612 152.273V161H460.589L455.834 154.148H455.748V161H454.692V152.273H455.714L460.487 159.142H460.572V152.273H461.612ZM466.249 161.136C465.659 161.136 465.14 160.996 464.694 160.714C464.251 160.433 463.904 160.04 463.654 159.534C463.407 159.028 463.284 158.437 463.284 157.761C463.284 157.08 463.407 156.484 463.654 155.976C463.904 155.467 464.251 155.072 464.694 154.791C465.14 154.51 465.659 154.369 466.249 154.369C466.84 154.369 467.357 154.51 467.801 154.791C468.247 155.072 468.593 155.467 468.84 155.976C469.09 156.484 469.215 157.08 469.215 157.761C469.215 158.437 469.09 159.028 468.84 159.534C468.593 160.04 468.247 160.433 467.801 160.714C467.357 160.996 466.84 161.136 466.249 161.136ZM466.249 160.233C466.698 160.233 467.068 160.118 467.357 159.888C467.647 159.658 467.862 159.355 468.001 158.98C468.14 158.605 468.21 158.199 468.21 157.761C468.21 157.324 468.14 156.916 468.001 156.538C467.862 156.161 467.647 155.855 467.357 155.622C467.068 155.389 466.698 155.273 466.249 155.273C465.801 155.273 465.431 155.389 465.142 155.622C464.852 155.855 464.637 156.161 464.498 156.538C464.359 156.916 464.289 157.324 464.289 157.761C464.289 158.199 464.359 158.605 464.498 158.98C464.637 159.355 464.852 159.658 465.142 159.888C465.431 160.118 465.801 160.233 466.249 160.233ZM475.868 154.455L473.448 161H472.425L470.005 154.455H471.096L472.903 159.67H472.971L474.778 154.455H475.868Z" fill="#475467"/>
<path d="M496.094 161H493.401V152.273H496.213C497.06 152.273 497.784 152.447 498.386 152.797C498.989 153.143 499.45 153.642 499.771 154.293C500.092 154.94 500.253 155.716 500.253 156.619C500.253 157.528 500.091 158.311 499.767 158.967C499.443 159.621 498.972 160.124 498.352 160.476C497.733 160.825 496.98 161 496.094 161ZM494.457 160.062H496.026C496.747 160.062 497.345 159.923 497.82 159.645C498.294 159.366 498.648 158.97 498.881 158.456C499.114 157.942 499.23 157.33 499.23 156.619C499.23 155.915 499.115 155.308 498.885 154.8C498.655 154.288 498.311 153.896 497.854 153.624C497.396 153.348 496.827 153.21 496.145 153.21H494.457V160.062ZM504.634 161.136C504.003 161.136 503.459 160.997 503.001 160.719C502.547 160.438 502.196 160.045 501.949 159.543C501.705 159.037 501.582 158.449 501.582 157.778C501.582 157.108 501.705 156.517 501.949 156.006C502.196 155.491 502.54 155.091 502.98 154.804C503.423 154.514 503.94 154.369 504.531 154.369C504.872 154.369 505.209 154.426 505.541 154.54C505.874 154.653 506.176 154.838 506.449 155.094C506.722 155.347 506.939 155.682 507.101 156.099C507.263 156.517 507.344 157.031 507.344 157.642V158.068H502.298V157.199H506.321C506.321 156.83 506.247 156.5 506.099 156.21C505.955 155.92 505.747 155.692 505.477 155.524C505.21 155.357 504.895 155.273 504.531 155.273C504.131 155.273 503.784 155.372 503.491 155.571C503.202 155.767 502.979 156.023 502.822 156.338C502.666 156.653 502.588 156.991 502.588 157.352V157.932C502.588 158.426 502.673 158.845 502.844 159.189C503.017 159.53 503.257 159.79 503.564 159.969C503.871 160.145 504.227 160.233 504.634 160.233C504.898 160.233 505.136 160.196 505.349 160.122C505.565 160.045 505.751 159.932 505.908 159.781C506.064 159.628 506.185 159.437 506.27 159.21L507.241 159.483C507.139 159.812 506.967 160.102 506.726 160.352C506.484 160.599 506.186 160.793 505.831 160.932C505.476 161.068 505.077 161.136 504.634 161.136ZM511.533 161.136C510.919 161.136 510.391 160.991 509.947 160.702C509.504 160.412 509.163 160.013 508.925 159.504C508.686 158.996 508.567 158.415 508.567 157.761C508.567 157.097 508.689 156.51 508.933 156.001C509.18 155.49 509.524 155.091 509.964 154.804C510.408 154.514 510.925 154.369 511.516 154.369C511.976 154.369 512.391 154.455 512.76 154.625C513.129 154.795 513.432 155.034 513.668 155.341C513.903 155.648 514.05 156.006 514.107 156.415H513.101C513.024 156.116 512.854 155.852 512.589 155.622C512.328 155.389 511.976 155.273 511.533 155.273C511.141 155.273 510.797 155.375 510.501 155.58C510.209 155.781 509.98 156.067 509.815 156.436C509.653 156.803 509.572 157.233 509.572 157.727C509.572 158.233 509.652 158.673 509.811 159.048C509.973 159.423 510.2 159.714 510.493 159.922C510.788 160.129 511.135 160.233 511.533 160.233C511.794 160.233 512.031 160.188 512.244 160.097C512.457 160.006 512.638 159.875 512.786 159.705C512.933 159.534 513.038 159.33 513.101 159.091H514.107C514.05 159.477 513.909 159.825 513.685 160.135C513.463 160.442 513.169 160.686 512.803 160.868C512.439 161.047 512.016 161.136 511.533 161.136Z" fill="#475467"/>
<path d="M262.961 178.273H264.559L267.337 185.057H267.439L270.218 178.273H271.816V187H270.563V180.685H270.482L267.908 186.987H266.868L264.295 180.68H264.214V187H262.961V178.273ZM276.385 187.132C275.771 187.132 275.236 186.991 274.779 186.71C274.321 186.429 273.966 186.036 273.713 185.53C273.46 185.024 273.334 184.433 273.334 183.757C273.334 183.078 273.46 182.484 273.713 181.976C273.966 181.467 274.321 181.072 274.779 180.791C275.236 180.51 275.771 180.369 276.385 180.369C276.999 180.369 277.534 180.51 277.992 180.791C278.449 181.072 278.804 181.467 279.057 181.976C279.31 182.484 279.436 183.078 279.436 183.757C279.436 184.433 279.31 185.024 279.057 185.53C278.804 186.036 278.449 186.429 277.992 186.71C277.534 186.991 276.999 187.132 276.385 187.132ZM276.389 186.062C276.787 186.062 277.117 185.957 277.378 185.747C277.639 185.537 277.833 185.257 277.958 184.908C278.085 184.558 278.149 184.173 278.149 183.753C278.149 183.335 278.085 182.952 277.958 182.602C277.833 182.25 277.639 181.967 277.378 181.754C277.117 181.541 276.787 181.435 276.389 181.435C275.989 181.435 275.656 181.541 275.392 181.754C275.131 181.967 274.936 182.25 274.808 182.602C274.683 182.952 274.621 183.335 274.621 183.753C274.621 184.173 274.683 184.558 274.808 184.908C274.936 185.257 275.131 185.537 275.392 185.747C275.656 185.957 275.989 186.062 276.389 186.062ZM282.133 183.114V187H280.858V180.455H282.081V181.52H282.162C282.313 181.173 282.549 180.895 282.87 180.685C283.194 180.474 283.601 180.369 284.093 180.369C284.539 180.369 284.93 180.463 285.265 180.651C285.6 180.835 285.86 181.111 286.045 181.477C286.229 181.844 286.322 182.297 286.322 182.837V187H285.047V182.99C285.047 182.516 284.924 182.145 284.677 181.878C284.43 181.608 284.09 181.473 283.658 181.473C283.363 181.473 283.1 181.537 282.87 181.665C282.643 181.793 282.462 181.98 282.329 182.227C282.198 182.472 282.133 182.767 282.133 183.114ZM291.086 180.455V181.477H287.51V180.455H291.086ZM288.469 178.886H289.743V185.078C289.743 185.325 289.78 185.511 289.854 185.636C289.928 185.759 290.023 185.842 290.14 185.888C290.259 185.93 290.388 185.952 290.528 185.952C290.63 185.952 290.719 185.945 290.796 185.93C290.873 185.916 290.932 185.905 290.975 185.896L291.205 186.949C291.131 186.977 291.026 187.006 290.89 187.034C290.753 187.065 290.583 187.082 290.378 187.085C290.043 187.091 289.731 187.031 289.441 186.906C289.151 186.781 288.917 186.588 288.738 186.327C288.559 186.065 288.469 185.737 288.469 185.342V178.886ZM293.91 183.114V187H292.636V178.273H293.893V181.52H293.974C294.127 181.168 294.362 180.888 294.677 180.68C294.992 180.473 295.404 180.369 295.913 180.369C296.362 180.369 296.754 180.462 297.089 180.646C297.427 180.831 297.688 181.107 297.873 181.473C298.061 181.837 298.154 182.291 298.154 182.837V187H296.88V182.99C296.88 182.51 296.757 182.138 296.509 181.874C296.262 181.607 295.919 181.473 295.478 181.473C295.177 181.473 294.907 181.537 294.669 181.665C294.433 181.793 294.247 181.98 294.11 182.227C293.977 182.472 293.91 182.767 293.91 183.114Z" fill="#475467"/>
<path d="M70 70.8965L80.6289 68.823L91.5899 67.8556L102.551 69.7904L113.844 68.823H125.137L136.098 67.8556H146.395L157.024 66.5657L167.653 67.8556L180.275 65.5983L189.575 66.5657L199.54 65.5983L209.504 64.631L222.126 65.5983L231.426 64.631L240.062 62.6962L251.688 60.7614L263.313 59.1491H274.938L287.228 58.1817L295.864 59.1491H300.846L309.15 60.7614L318.783 63.6636L328.747 64.631H332.401L340.705 60.7614L349.341 59.1491L356.98 58.1817L371.927 57.2143L376.909 54.9571L387.87 53.9897L400.492 53.0223H405.807C407.91 53.3448 412.25 53.9897 412.782 53.9897C413.313 53.9897 420.089 54.6346 423.411 54.9571L432.047 57.2143H442.343L452.308 54.9571L459.283 55.9245L472.569 57.2143L480.873 55.9245L495.156 54.9571C496.817 54.6346 500.271 53.9897 500.802 53.9897C501.334 53.9897 505.01 52.9148 506.781 52.3774H513.424L518.406 49.1528H529.035L539 45.709" stroke="#444CE7" stroke-width="2" stroke-linecap="round" stroke-linejoin="round"/>
</svg>
