<svg width="28" height="28" viewBox="0 0 28 28" fill="none" xmlns="http://www.w3.org/2000/svg">
<path d="M2.33301 8.16669L11.8587 14.8347C12.6301 15.3747 13.0158 15.6446 13.4353 15.7492C13.8059 15.8416 14.1935 15.8416 14.564 15.7492C14.9836 15.6446 15.3692 15.3747 16.1406 14.8347L25.6663 8.16669M7.93301 23.3334H20.0663C22.0265 23.3334 23.0066 23.3334 23.7553 22.9519C24.4139 22.6163 24.9493 22.0809 25.2849 21.4223C25.6663 20.6736 25.6663 19.6935 25.6663 17.7334V10.2667C25.6663 8.3065 25.6663 7.32641 25.2849 6.57772C24.9493 5.91915 24.4139 5.38372 23.7553 5.04816C23.0066 4.66669 22.0265 4.66669 20.0663 4.66669H7.93301C5.97282 4.66669 4.99273 4.66669 4.24404 5.04816C3.58547 5.38372 3.05004 5.91915 2.71448 6.57772C2.33301 7.32641 2.33301 8.3065 2.33301 10.2667V17.7334C2.33301 19.6935 2.33301 20.6736 2.71448 21.4223C3.05004 22.0809 3.58547 22.6163 4.24404 22.9519C4.99273 23.3334 5.97282 23.3334 7.93301 23.3334Z" stroke="#344054" stroke-width="2" stroke-linecap="round" stroke-linejoin="round"/>
</svg>
