<svg width="742" height="73" viewBox="0 0 742 73" fill="none" xmlns="http://www.w3.org/2000/svg">
<path d="M4.65483 4.81818V15H3.11861V4.81818H4.65483ZM10.3374 7.36364V8.55682H6.16619V7.36364H10.3374ZM7.2848 5.53409H8.77131V12.7578C8.77131 13.0462 8.81439 13.2633 8.90057 13.4091C8.98674 13.5516 9.09777 13.6494 9.23366 13.7024C9.37287 13.7521 9.52367 13.777 9.68608 13.777C9.8054 13.777 9.9098 13.7687 9.99929 13.7521C10.0888 13.7356 10.1584 13.7223 10.2081 13.7124L10.4766 14.9403C10.3904 14.9735 10.2678 15.0066 10.1087 15.0398C9.94957 15.0762 9.75071 15.0961 9.51207 15.0994C9.12098 15.1061 8.75639 15.0365 8.41832 14.8906C8.08026 14.7448 7.80682 14.5194 7.59801 14.2145C7.3892 13.9096 7.2848 13.5268 7.2848 13.0661V5.53409ZM15.1909 15.1541C14.4385 15.1541 13.7905 14.9934 13.247 14.6719C12.7067 14.3471 12.2891 13.8913 11.9941 13.3047C11.7025 12.7147 11.5566 12.0237 11.5566 11.2315C11.5566 10.4493 11.7025 9.75994 11.9941 9.16335C12.2891 8.56676 12.7001 8.10109 13.2271 7.76633C13.7574 7.43158 14.3772 7.2642 15.0865 7.2642C15.5173 7.2642 15.935 7.33546 16.3393 7.47798C16.7437 7.6205 17.1066 7.84422 17.4281 8.14915C17.7496 8.45407 18.0031 8.85014 18.1887 9.33736C18.3743 9.82126 18.4672 10.4096 18.4672 11.1023V11.6293H12.3968V10.5156H17.0105C17.0105 10.1245 16.9309 9.77817 16.7718 9.47656C16.6127 9.17164 16.389 8.93134 16.1007 8.75568C15.8156 8.58002 15.4809 8.49219 15.0964 8.49219C14.6788 8.49219 14.3142 8.59493 14.0027 8.80043C13.6944 9.0026 13.4558 9.26776 13.2868 9.59588C13.121 9.92069 13.0382 10.2737 13.0382 10.6548V11.5249C13.0382 12.0353 13.1277 12.4695 13.3066 12.8274C13.4889 13.1854 13.7425 13.4588 14.0673 13.6477C14.3921 13.8333 14.7716 13.9261 15.2058 13.9261C15.4875 13.9261 15.7444 13.8864 15.9764 13.8068C16.2084 13.724 16.4089 13.6013 16.5779 13.4389C16.747 13.2765 16.8762 13.076 16.9657 12.8374L18.3727 13.0909C18.26 13.5052 18.0578 13.8681 17.7662 14.1797C17.4778 14.4879 17.1149 14.7282 16.6774 14.9006C16.2432 15.0696 15.7477 15.1541 15.1909 15.1541ZM20.1165 15V7.36364H21.5433V8.60653H21.6378C21.7969 8.18561 22.0571 7.85748 22.4183 7.62216C22.7796 7.38352 23.2121 7.2642 23.7159 7.2642C24.2263 7.2642 24.6539 7.38352 24.9986 7.62216C25.3466 7.8608 25.6035 8.18892 25.7692 8.60653H25.8487C26.031 8.19886 26.321 7.87405 26.7188 7.6321C27.1165 7.38684 27.5904 7.2642 28.1406 7.2642C28.8333 7.2642 29.3984 7.4813 29.8359 7.91548C30.2768 8.34967 30.4972 9.00426 30.4972 9.87926V15H29.0107V10.0185C29.0107 9.50142 28.8698 9.12689 28.5881 8.89489C28.3063 8.66288 27.9699 8.54688 27.5788 8.54688C27.0949 8.54688 26.7188 8.69602 26.4503 8.99432C26.1818 9.2893 26.0476 9.6688 26.0476 10.1328V15H24.5661V9.92401C24.5661 9.50971 24.4368 9.17661 24.1783 8.92472C23.9197 8.67282 23.5833 8.54688 23.169 8.54688C22.8873 8.54688 22.6271 8.62145 22.3885 8.7706C22.1532 8.91643 21.9626 9.12026 21.8168 9.3821C21.6742 9.64394 21.603 9.94721 21.603 10.2919V15H20.1165Z" fill="#344054"/>
<g filter="url(#filter0_d_6833_16223)">
<rect x="2" y="26" width="291" height="44" rx="8" fill="white"/>
<rect x="2.5" y="26.5" width="290" height="43" rx="7.5" stroke="#D0D5DD"/>
<path d="M17.4091 54V42.3636H24.4318V43.6136H18.8182V47.5455H24.0682V48.7955H18.8182V52.75H24.5227V54H17.4091ZM27.7898 45.2727L29.8807 48.8409L31.9716 45.2727H33.517L30.6989 49.6364L33.517 54H31.9716L29.8807 50.6136L27.7898 54H26.2443L29.017 49.6364L26.2443 45.2727H27.7898ZM35.4304 57.2727V45.2727H36.7259V46.6591H36.8849C36.9834 46.5076 37.1198 46.3144 37.294 46.0795C37.4721 45.8409 37.7259 45.6288 38.0554 45.4432C38.3887 45.2538 38.8395 45.1591 39.4077 45.1591C40.1425 45.1591 40.7902 45.3428 41.3509 45.7102C41.9115 46.0777 42.349 46.5985 42.6634 47.2727C42.9777 47.947 43.1349 48.7424 43.1349 49.6591C43.1349 50.5833 42.9777 51.3845 42.6634 52.0625C42.349 52.7367 41.9134 53.2595 41.3565 53.6307C40.7997 53.9981 40.1577 54.1818 39.4304 54.1818C38.8698 54.1818 38.4209 54.089 38.0838 53.9034C37.7467 53.714 37.4872 53.5 37.3054 53.2614C37.1236 53.0189 36.9834 52.8182 36.8849 52.6591H36.7713V57.2727H35.4304ZM36.7486 49.6364C36.7486 50.2955 36.8452 50.8769 37.0384 51.3807C37.2315 51.8807 37.5137 52.2727 37.8849 52.5568C38.2562 52.8371 38.7107 52.9773 39.2486 52.9773C39.8092 52.9773 40.277 52.8295 40.652 52.5341C41.0308 52.2348 41.3149 51.8333 41.5043 51.3295C41.6974 50.822 41.794 50.2576 41.794 49.6364C41.794 49.0227 41.6993 48.4697 41.5099 47.9773C41.3243 47.4811 41.0421 47.089 40.6634 46.8011C40.2884 46.5095 39.8168 46.3636 39.2486 46.3636C38.7031 46.3636 38.2448 46.5019 37.8736 46.7784C37.5024 47.0511 37.2221 47.4337 37.0327 47.9261C36.8433 48.4148 36.7486 48.9848 36.7486 49.6364ZM48.8395 54.1818C47.9986 54.1818 47.2732 53.9962 46.6634 53.625C46.0573 53.25 45.5895 52.7273 45.2599 52.0568C44.9342 51.3826 44.7713 50.5985 44.7713 49.7045C44.7713 48.8106 44.9342 48.0227 45.2599 47.3409C45.5895 46.6553 46.0478 46.1212 46.6349 45.7386C47.2259 45.3523 47.9152 45.1591 48.7031 45.1591C49.1577 45.1591 49.6065 45.2348 50.0497 45.3864C50.4929 45.5379 50.8963 45.7841 51.2599 46.125C51.6236 46.4621 51.9134 46.9091 52.1293 47.4659C52.3452 48.0227 52.4531 48.7083 52.4531 49.5227V50.0909H45.7259V48.9318H51.0895C51.0895 48.4394 50.991 48 50.794 47.6136C50.6009 47.2273 50.3243 46.9223 49.9645 46.6989C49.6084 46.4754 49.188 46.3636 48.7031 46.3636C48.169 46.3636 47.7069 46.4962 47.3168 46.7614C46.9304 47.0227 46.633 47.3636 46.4247 47.7841C46.2164 48.2045 46.1122 48.6553 46.1122 49.1364V49.9091C46.1122 50.5682 46.2259 51.1269 46.4531 51.5852C46.6842 52.0398 47.0043 52.3864 47.4134 52.625C47.8224 52.8598 48.2978 52.9773 48.8395 52.9773C49.1918 52.9773 49.5099 52.928 49.794 52.8295C50.0819 52.7273 50.33 52.5758 50.5384 52.375C50.7467 52.1705 50.9077 51.9167 51.0213 51.6136L52.3168 51.9773C52.1804 52.4167 51.9512 52.803 51.6293 53.1364C51.3073 53.4659 50.9096 53.7235 50.4361 53.9091C49.9626 54.0909 49.4304 54.1818 48.8395 54.1818ZM54.4929 54V45.2727H55.7884V46.5909H55.8793C56.0384 46.1591 56.3262 45.8087 56.7429 45.5398C57.1596 45.2708 57.6293 45.1364 58.152 45.1364C58.2505 45.1364 58.3736 45.1383 58.5213 45.142C58.669 45.1458 58.7808 45.1515 58.8565 45.1591V46.5227C58.8111 46.5114 58.7069 46.4943 58.544 46.4716C58.3849 46.4451 58.2164 46.4318 58.0384 46.4318C57.6141 46.4318 57.2353 46.5208 56.902 46.6989C56.5724 46.8731 56.3111 47.1155 56.1179 47.4261C55.9285 47.733 55.8338 48.0833 55.8338 48.4773V54H54.4929ZM64.7884 45.2727V46.4091H60.2656V45.2727H64.7884ZM61.5838 43.1818H62.9247V51.5C62.9247 51.8788 62.9796 52.1629 63.0895 52.3523C63.2031 52.5379 63.3471 52.6629 63.5213 52.7273C63.6993 52.7879 63.8868 52.8182 64.0838 52.8182C64.2315 52.8182 64.3527 52.8106 64.4474 52.7955C64.5421 52.7765 64.6179 52.7614 64.6747 52.75L64.9474 53.9545C64.8565 53.9886 64.7296 54.0227 64.5668 54.0568C64.4039 54.0947 64.1974 54.1136 63.9474 54.1136C63.5687 54.1136 63.1974 54.0322 62.8338 53.8693C62.474 53.7064 62.1747 53.4583 61.9361 53.125C61.7012 52.7917 61.5838 52.3712 61.5838 51.8636V43.1818ZM80.8509 46H79.4418C79.3584 45.5947 79.2126 45.2386 79.0043 44.9318C78.7997 44.625 78.5497 44.3674 78.2543 44.1591C77.9626 43.947 77.6387 43.7879 77.2827 43.6818C76.9266 43.5758 76.5554 43.5227 76.169 43.5227C75.4645 43.5227 74.8262 43.7008 74.2543 44.0568C73.6861 44.4129 73.2334 44.9375 72.8963 45.6307C72.563 46.3239 72.3963 47.1742 72.3963 48.1818C72.3963 49.1894 72.563 50.0398 72.8963 50.733C73.2334 51.4261 73.6861 51.9508 74.2543 52.3068C74.8262 52.6629 75.4645 52.8409 76.169 52.8409C76.5554 52.8409 76.9266 52.7879 77.2827 52.6818C77.6387 52.5758 77.9626 52.4186 78.2543 52.2102C78.5497 51.9981 78.7997 51.7386 79.0043 51.4318C79.2126 51.1212 79.3584 50.7652 79.4418 50.3636H80.8509C80.7448 50.9583 80.5516 51.4905 80.2713 51.9602C79.991 52.4299 79.6425 52.8295 79.2259 53.1591C78.8092 53.4848 78.3414 53.733 77.8224 53.9034C77.3073 54.0739 76.7562 54.1591 76.169 54.1591C75.1766 54.1591 74.294 53.9167 73.5213 53.4318C72.7486 52.947 72.1406 52.2576 71.6974 51.3636C71.2543 50.4697 71.0327 49.4091 71.0327 48.1818C71.0327 46.9545 71.2543 45.8939 71.6974 45C72.1406 44.1061 72.7486 43.4167 73.5213 42.9318C74.294 42.447 75.1766 42.2045 76.169 42.2045C76.7562 42.2045 77.3073 42.2898 77.8224 42.4602C78.3414 42.6307 78.8092 42.8807 79.2259 43.2102C79.6425 43.536 79.991 43.9337 80.2713 44.4034C80.5516 44.8693 80.7448 45.4015 80.8509 46ZM86.4915 54.1818C85.7036 54.1818 85.0123 53.9943 84.4176 53.6193C83.8267 53.2443 83.3646 52.7197 83.0312 52.0455C82.7017 51.3712 82.5369 50.5833 82.5369 49.6818C82.5369 48.7727 82.7017 47.9792 83.0312 47.3011C83.3646 46.6231 83.8267 46.0966 84.4176 45.7216C85.0123 45.3466 85.7036 45.1591 86.4915 45.1591C87.2794 45.1591 87.9688 45.3466 88.5597 45.7216C89.1544 46.0966 89.6165 46.6231 89.946 47.3011C90.2794 47.9792 90.446 48.7727 90.446 49.6818C90.446 50.5833 90.2794 51.3712 89.946 52.0455C89.6165 52.7197 89.1544 53.2443 88.5597 53.6193C87.9688 53.9943 87.2794 54.1818 86.4915 54.1818ZM86.4915 52.9773C87.09 52.9773 87.5824 52.8239 87.9688 52.517C88.3551 52.2102 88.6411 51.8068 88.8267 51.3068C89.0123 50.8068 89.1051 50.2652 89.1051 49.6818C89.1051 49.0985 89.0123 48.5549 88.8267 48.0511C88.6411 47.5473 88.3551 47.1402 87.9688 46.8295C87.5824 46.5189 87.09 46.3636 86.4915 46.3636C85.893 46.3636 85.4006 46.5189 85.0142 46.8295C84.6278 47.1402 84.3419 47.5473 84.1562 48.0511C83.9706 48.5549 83.8778 49.0985 83.8778 49.6818C83.8778 50.2652 83.9706 50.8068 84.1562 51.3068C84.3419 51.8068 84.6278 52.2102 85.0142 52.517C85.4006 52.8239 85.893 52.9773 86.4915 52.9773ZM93.8338 48.75V54H92.4929V45.2727H93.7884V46.6364H93.902C94.1065 46.1932 94.4171 45.8371 94.8338 45.5682C95.2505 45.2955 95.7884 45.1591 96.4474 45.1591C97.0384 45.1591 97.5554 45.2803 97.9986 45.5227C98.4418 45.7614 98.7865 46.125 99.0327 46.6136C99.2789 47.0985 99.402 47.7121 99.402 48.4545V54H98.0611V48.5455C98.0611 47.8598 97.883 47.3258 97.527 46.9432C97.1709 46.5568 96.6823 46.3636 96.0611 46.3636C95.633 46.3636 95.2505 46.4564 94.9134 46.642C94.58 46.8277 94.3168 47.0985 94.1236 47.4545C93.9304 47.8106 93.8338 48.2424 93.8338 48.75ZM108.034 47.2273L106.83 47.5682C106.754 47.3674 106.642 47.1723 106.494 46.983C106.35 46.7898 106.153 46.6307 105.903 46.5057C105.653 46.3807 105.333 46.3182 104.943 46.3182C104.409 46.3182 103.964 46.4413 103.608 46.6875C103.256 46.9299 103.08 47.2386 103.08 47.6136C103.08 47.947 103.201 48.2102 103.443 48.4034C103.686 48.5966 104.064 48.7576 104.58 48.8864L105.875 49.2045C106.655 49.3939 107.237 49.6837 107.619 50.0739C108.002 50.4602 108.193 50.9583 108.193 51.5682C108.193 52.0682 108.049 52.5152 107.761 52.9091C107.477 53.303 107.08 53.6136 106.568 53.8409C106.057 54.0682 105.462 54.1818 104.784 54.1818C103.894 54.1818 103.157 53.9886 102.574 53.6023C101.991 53.2159 101.621 52.6515 101.466 51.9091L102.739 51.5909C102.86 52.0606 103.089 52.4129 103.426 52.6477C103.767 52.8826 104.212 53 104.761 53C105.386 53 105.883 52.8674 106.25 52.6023C106.621 52.3333 106.807 52.0114 106.807 51.6364C106.807 51.3333 106.701 51.0795 106.489 50.875C106.277 50.6667 105.951 50.5114 105.511 50.4091L104.057 50.0682C103.258 49.8788 102.67 49.5852 102.295 49.1875C101.924 48.786 101.739 48.2841 101.739 47.6818C101.739 47.1894 101.877 46.7538 102.153 46.375C102.434 45.9962 102.814 45.6989 103.295 45.483C103.78 45.267 104.33 45.1591 104.943 45.1591C105.807 45.1591 106.485 45.3485 106.977 45.7273C107.473 46.1061 107.826 46.6061 108.034 47.2273ZM115.712 50.4318V45.2727H117.053V54H115.712V52.5227H115.621C115.416 52.9659 115.098 53.3428 114.666 53.6534C114.234 53.9602 113.689 54.1136 113.03 54.1136C112.484 54.1136 112 53.9943 111.575 53.7557C111.151 53.5133 110.818 53.1496 110.575 52.6648C110.333 52.1761 110.212 51.5606 110.212 50.8182V45.2727H111.553V50.7273C111.553 51.3636 111.731 51.8712 112.087 52.25C112.446 52.6288 112.905 52.8182 113.462 52.8182C113.795 52.8182 114.134 52.733 114.479 52.5625C114.827 52.392 115.119 52.1307 115.354 51.7784C115.592 51.4261 115.712 50.9773 115.712 50.4318ZM120.849 42.3636V54H119.509V42.3636H120.849ZM127.101 45.2727V46.4091H122.578V45.2727H127.101ZM123.896 43.1818H125.237V51.5C125.237 51.8788 125.292 52.1629 125.402 52.3523C125.516 52.5379 125.66 52.6629 125.834 52.7273C126.012 52.7879 126.199 52.8182 126.396 52.8182C126.544 52.8182 126.665 52.8106 126.76 52.7955C126.855 52.7765 126.93 52.7614 126.987 52.75L127.26 53.9545C127.169 53.9886 127.042 54.0227 126.879 54.0568C126.716 54.0947 126.51 54.1136 126.26 54.1136C125.881 54.1136 125.51 54.0322 125.146 53.8693C124.786 53.7064 124.487 53.4583 124.249 53.125C124.014 52.7917 123.896 52.3712 123.896 51.8636V43.1818ZM129.118 54V45.2727H130.459V54H129.118ZM129.8 43.8182C129.538 43.8182 129.313 43.7292 129.124 43.5511C128.938 43.3731 128.845 43.1591 128.845 42.9091C128.845 42.6591 128.938 42.4451 129.124 42.267C129.313 42.089 129.538 42 129.8 42C130.061 42 130.285 42.089 130.47 42.267C130.66 42.4451 130.754 42.6591 130.754 42.9091C130.754 43.1591 130.66 43.3731 130.47 43.5511C130.285 43.7292 130.061 43.8182 129.8 43.8182ZM134.256 48.75V54H132.915V45.2727H134.21V46.6364H134.324C134.528 46.1932 134.839 45.8371 135.256 45.5682C135.672 45.2955 136.21 45.1591 136.869 45.1591C137.46 45.1591 137.977 45.2803 138.42 45.5227C138.864 45.7614 139.208 46.125 139.455 46.6136C139.701 47.0985 139.824 47.7121 139.824 48.4545V54H138.483V48.5455C138.483 47.8598 138.305 47.3258 137.949 46.9432C137.593 46.5568 137.104 46.3636 136.483 46.3636C136.055 46.3636 135.672 46.4564 135.335 46.642C135.002 46.8277 134.739 47.0985 134.545 47.4545C134.352 47.8106 134.256 48.2424 134.256 48.75ZM145.797 57.4545C145.149 57.4545 144.592 57.3712 144.126 57.2045C143.661 57.0417 143.272 56.8258 142.962 56.5568C142.655 56.2917 142.411 56.0076 142.229 55.7045L143.297 54.9545C143.418 55.1136 143.571 55.2955 143.757 55.5C143.943 55.7083 144.196 55.8883 144.518 56.0398C144.844 56.1951 145.27 56.2727 145.797 56.2727C146.501 56.2727 147.083 56.1023 147.541 55.7614C148 55.4205 148.229 54.8864 148.229 54.1591V52.3864H148.115C148.017 52.5455 147.876 52.7424 147.695 52.9773C147.517 53.2083 147.259 53.4148 146.922 53.5966C146.589 53.7746 146.138 53.8636 145.57 53.8636C144.865 53.8636 144.232 53.697 143.672 53.3636C143.115 53.0303 142.674 52.5455 142.348 51.9091C142.026 51.2727 141.865 50.5 141.865 49.5909C141.865 48.697 142.022 47.9186 142.337 47.2557C142.651 46.589 143.089 46.0739 143.649 45.7102C144.21 45.3428 144.857 45.1591 145.592 45.1591C146.161 45.1591 146.611 45.2538 146.945 45.4432C147.282 45.6288 147.539 45.8409 147.717 46.0795C147.899 46.3144 148.039 46.5076 148.138 46.6591H148.274V45.2727H149.57V54.25C149.57 55 149.399 55.6098 149.058 56.0795C148.721 56.553 148.267 56.8996 147.695 57.1193C147.126 57.3428 146.494 57.4545 145.797 57.4545ZM145.751 52.6591C146.289 52.6591 146.744 52.536 147.115 52.2898C147.486 52.0436 147.768 51.6894 147.962 51.2273C148.155 50.7652 148.251 50.2121 148.251 49.5682C148.251 48.9394 148.157 48.3845 147.967 47.9034C147.778 47.4223 147.498 47.0455 147.126 46.7727C146.755 46.5 146.297 46.3636 145.751 46.3636C145.183 46.3636 144.71 46.5076 144.331 46.7955C143.956 47.0833 143.674 47.4697 143.484 47.9545C143.299 48.4394 143.206 48.9773 143.206 49.5682C143.206 50.1742 143.301 50.7102 143.49 51.1761C143.683 51.6383 143.967 52.0019 144.342 52.267C144.721 52.5284 145.191 52.6591 145.751 52.6591Z" fill="#667085"/>
</g>
<path d="M304.119 15V4.81818H307.748C308.54 4.81818 309.196 4.96236 309.717 5.25071C310.237 5.53906 310.626 5.93347 310.885 6.43395C311.143 6.93111 311.273 7.49124 311.273 8.11435C311.273 8.74077 311.142 9.30421 310.88 9.80469C310.621 10.3018 310.23 10.6963 309.707 10.9879C309.186 11.2763 308.532 11.4205 307.743 11.4205H305.247V10.1179H307.604C308.104 10.1179 308.51 10.0317 308.822 9.85938C309.133 9.68371 309.362 9.44508 309.508 9.14347C309.654 8.84186 309.727 8.49882 309.727 8.11435C309.727 7.72988 309.654 7.38849 309.508 7.0902C309.362 6.7919 309.132 6.55824 308.817 6.3892C308.505 6.22017 308.094 6.13565 307.584 6.13565H305.655V15H304.119ZM312.954 15V7.36364H314.391V8.5767H314.471C314.61 8.16572 314.855 7.84257 315.206 7.60724C315.561 7.36861 315.962 7.24929 316.41 7.24929C316.502 7.24929 316.612 7.2526 316.738 7.25923C316.867 7.26586 316.968 7.27415 317.041 7.28409V8.70597C316.981 8.68939 316.875 8.67116 316.723 8.65128C316.57 8.62808 316.418 8.61648 316.265 8.61648C315.914 8.61648 315.601 8.69105 315.326 8.8402C315.054 8.98603 314.839 9.18987 314.68 9.4517C314.52 9.71023 314.441 10.0052 314.441 10.3366V15H312.954ZM318.327 15V7.36364H319.814V15H318.327ZM319.078 6.18537C318.82 6.18537 318.598 6.09919 318.412 5.92685C318.23 5.75118 318.138 5.54238 318.138 5.30043C318.138 5.05516 318.23 4.84635 318.412 4.67401C318.598 4.49834 318.82 4.41051 319.078 4.41051C319.337 4.41051 319.557 4.49834 319.739 4.67401C319.925 4.84635 320.018 5.05516 320.018 5.30043C320.018 5.54238 319.925 5.75118 319.739 5.92685C319.557 6.09919 319.337 6.18537 319.078 6.18537ZM325.03 15.1541C324.291 15.1541 323.655 14.9867 323.121 14.652C322.591 14.3139 322.183 13.8482 321.898 13.255C321.613 12.6617 321.471 11.9822 321.471 11.2166C321.471 10.4411 321.617 9.75663 321.908 9.16335C322.2 8.56676 322.611 8.10109 323.141 7.76633C323.671 7.43158 324.296 7.2642 325.015 7.2642C325.595 7.2642 326.113 7.37192 326.567 7.58736C327.021 7.79948 327.387 8.09777 327.665 8.48224C327.947 8.86671 328.114 9.31581 328.167 9.82955H326.721C326.641 9.47159 326.459 9.16335 326.174 8.90483C325.892 8.64631 325.514 8.51705 325.04 8.51705C324.626 8.51705 324.263 8.62642 323.952 8.84517C323.643 9.06061 323.403 9.36884 323.231 9.76989C323.058 10.1676 322.972 10.6383 322.972 11.1818C322.972 11.7386 323.057 12.2192 323.226 12.6236C323.395 13.0279 323.633 13.3411 323.942 13.5632C324.253 13.7853 324.619 13.8963 325.04 13.8963C325.322 13.8963 325.577 13.8449 325.806 13.7422C326.038 13.6361 326.232 13.4853 326.388 13.2898C326.547 13.0942 326.658 12.8589 326.721 12.5838H328.167C328.114 13.0777 327.954 13.5185 327.685 13.9062C327.417 14.294 327.057 14.599 326.606 14.821C326.159 15.0431 325.634 15.1541 325.03 15.1541ZM333.048 15.1541C332.296 15.1541 331.648 14.9934 331.104 14.6719C330.564 14.3471 330.147 13.8913 329.852 13.3047C329.56 12.7147 329.414 12.0237 329.414 11.2315C329.414 10.4493 329.56 9.75994 329.852 9.16335C330.147 8.56676 330.558 8.10109 331.085 7.76633C331.615 7.43158 332.235 7.2642 332.944 7.2642C333.375 7.2642 333.792 7.33546 334.197 7.47798C334.601 7.6205 334.964 7.84422 335.286 8.14915C335.607 8.45407 335.861 8.85014 336.046 9.33736C336.232 9.82126 336.325 10.4096 336.325 11.1023V11.6293H330.254V10.5156H334.868C334.868 10.1245 334.788 9.77817 334.629 9.47656C334.47 9.17164 334.246 8.93134 333.958 8.75568C333.673 8.58002 333.338 8.49219 332.954 8.49219C332.536 8.49219 332.172 8.59493 331.86 8.80043C331.552 9.0026 331.313 9.26776 331.144 9.59588C330.978 9.92069 330.896 10.2737 330.896 10.6548V11.5249C330.896 12.0353 330.985 12.4695 331.164 12.8274C331.346 13.1854 331.6 13.4588 331.925 13.6477C332.25 13.8333 332.629 13.9261 333.063 13.9261C333.345 13.9261 333.602 13.8864 333.834 13.8068C334.066 13.724 334.266 13.6013 334.435 13.4389C334.604 13.2765 334.734 13.076 334.823 12.8374L336.23 13.0909C336.117 13.5052 335.915 13.8681 335.624 14.1797C335.335 14.4879 334.972 14.7282 334.535 14.9006C334.101 15.0696 333.605 15.1541 333.048 15.1541Z" fill="#344054"/>
<g filter="url(#filter1_d_6833_16223)">
<rect x="303" y="26" width="94.75" height="44" rx="8" fill="white"/>
<rect x="303.5" y="26.5" width="93.75" height="43" rx="7.5" stroke="#D0D5DD"/>
<path d="M317.932 51.6136V50.4545L323.045 42.3636H323.886V44.1591H323.318L319.455 50.2727V50.3636H326.341V51.6136H317.932ZM323.409 54V51.2614V50.7216V42.3636H324.75V54H323.409ZM332.266 54.1591C331.41 54.1591 330.68 53.9261 330.078 53.4602C329.476 52.9905 329.016 52.3106 328.697 51.4205C328.379 50.5265 328.22 49.447 328.22 48.1818C328.22 46.9242 328.379 45.8504 328.697 44.9602C329.019 44.0663 329.482 43.3845 330.084 42.9148C330.69 42.4413 331.417 42.2045 332.266 42.2045C333.114 42.2045 333.839 42.4413 334.442 42.9148C335.048 43.3845 335.51 44.0663 335.828 44.9602C336.15 45.8504 336.311 46.9242 336.311 48.1818C336.311 49.447 336.152 50.5265 335.834 51.4205C335.516 52.3106 335.055 52.9905 334.453 53.4602C333.851 53.9261 333.122 54.1591 332.266 54.1591ZM332.266 52.9091C333.114 52.9091 333.773 52.5 334.243 51.6818C334.713 50.8636 334.947 49.697 334.947 48.1818C334.947 47.1742 334.839 46.3163 334.624 45.608C334.411 44.8996 334.105 44.3598 333.703 43.9886C333.305 43.6174 332.826 43.4318 332.266 43.4318C331.425 43.4318 330.768 43.8466 330.294 44.6761C329.821 45.5019 329.584 46.6705 329.584 48.1818C329.584 49.1894 329.69 50.0455 329.902 50.75C330.114 51.4545 330.419 51.9905 330.817 52.358C331.218 52.7254 331.701 52.9091 332.266 52.9091ZM342.266 54.1591C341.41 54.1591 340.68 53.9261 340.078 53.4602C339.476 52.9905 339.016 52.3106 338.697 51.4205C338.379 50.5265 338.22 49.447 338.22 48.1818C338.22 46.9242 338.379 45.8504 338.697 44.9602C339.019 44.0663 339.482 43.3845 340.084 42.9148C340.69 42.4413 341.417 42.2045 342.266 42.2045C343.114 42.2045 343.839 42.4413 344.442 42.9148C345.048 43.3845 345.51 44.0663 345.828 44.9602C346.15 45.8504 346.311 46.9242 346.311 48.1818C346.311 49.447 346.152 50.5265 345.834 51.4205C345.516 52.3106 345.055 52.9905 344.453 53.4602C343.851 53.9261 343.122 54.1591 342.266 54.1591ZM342.266 52.9091C343.114 52.9091 343.773 52.5 344.243 51.6818C344.713 50.8636 344.947 49.697 344.947 48.1818C344.947 47.1742 344.839 46.3163 344.624 45.608C344.411 44.8996 344.105 44.3598 343.703 43.9886C343.305 43.6174 342.826 43.4318 342.266 43.4318C341.425 43.4318 340.768 43.8466 340.294 44.6761C339.821 45.5019 339.584 46.6705 339.584 48.1818C339.584 49.1894 339.69 50.0455 339.902 50.75C340.114 51.4545 340.419 51.9905 340.817 52.358C341.218 52.7254 341.701 52.9091 342.266 52.9091Z" fill="#667085"/>
</g>
<path d="M412.612 11.6989H414.124L415.188 13.0859L415.69 13.7024L417.385 15.9148H415.814L414.68 14.4382L414.293 13.9013L412.612 11.6989ZM417.713 9.90909C417.713 10.9962 417.514 11.9309 417.116 12.7131C416.719 13.492 416.174 14.0919 415.481 14.5128C414.791 14.9304 414.008 15.1392 413.129 15.1392C412.248 15.1392 411.46 14.9304 410.768 14.5128C410.078 14.0919 409.535 13.4903 409.137 12.7081C408.739 11.9259 408.54 10.9929 408.54 9.90909C408.54 8.82197 408.739 7.88897 409.137 7.11008C409.535 6.32789 410.078 5.72798 410.768 5.31037C411.46 4.88944 412.248 4.67898 413.129 4.67898C414.008 4.67898 414.791 4.88944 415.481 5.31037C416.174 5.72798 416.719 6.32789 417.116 7.11008C417.514 7.88897 417.713 8.82197 417.713 9.90909ZM416.192 9.90909C416.192 9.08049 416.058 8.38281 415.789 7.81605C415.524 7.24598 415.159 6.8151 414.695 6.52344C414.235 6.22846 413.713 6.08097 413.129 6.08097C412.543 6.08097 412.019 6.22846 411.558 6.52344C411.098 6.8151 410.733 7.24598 410.464 7.81605C410.199 8.38281 410.067 9.08049 410.067 9.90909C410.067 10.7377 410.199 11.437 410.464 12.0071C410.733 12.5739 411.098 13.0047 411.558 13.2997C412.019 13.5914 412.543 13.7372 413.129 13.7372C413.713 13.7372 414.235 13.5914 414.695 13.2997C415.159 13.0047 415.524 12.5739 415.789 12.0071C416.058 11.437 416.192 10.7377 416.192 9.90909ZM423.074 7.36364V8.55682H418.903V7.36364H423.074ZM420.021 5.53409H421.508V12.7578C421.508 13.0462 421.551 13.2633 421.637 13.4091C421.723 13.5516 421.834 13.6494 421.97 13.7024C422.109 13.7521 422.26 13.777 422.422 13.777C422.542 13.777 422.646 13.7687 422.736 13.7521C422.825 13.7356 422.895 13.7223 422.944 13.7124L423.213 14.9403C423.127 14.9735 423.004 15.0066 422.845 15.0398C422.686 15.0762 422.487 15.0961 422.248 15.0994C421.857 15.1061 421.493 15.0365 421.155 14.8906C420.817 14.7448 420.543 14.5194 420.334 14.2145C420.126 13.9096 420.021 13.5268 420.021 13.0661V5.53409ZM425.658 17.8636C425.436 17.8636 425.233 17.8454 425.051 17.8089C424.869 17.7758 424.733 17.7393 424.643 17.6996L425.001 16.4815C425.273 16.5545 425.515 16.5859 425.727 16.576C425.939 16.5661 426.127 16.4865 426.289 16.3374C426.455 16.1882 426.601 15.9446 426.727 15.6065L426.911 15.0994L424.116 7.36364H425.707L427.641 13.2898H427.721L429.655 7.36364H431.251L428.104 16.0192C427.958 16.4169 427.772 16.7533 427.547 17.0284C427.321 17.3068 427.053 17.5156 426.741 17.6548C426.43 17.794 426.069 17.8636 425.658 17.8636Z" fill="#344054"/>
<g filter="url(#filter2_d_6833_16223)">
<rect x="407.75" y="26" width="94.75" height="44" rx="8" fill="white"/>
<rect x="408.25" y="26.5" width="93.75" height="43" rx="7.5" stroke="#D0D5DD"/>
<path d="M427.045 42.3636V54H425.636V43.8409H425.568L422.727 45.7273V44.2955L425.636 42.3636H427.045Z" fill="#667085"/>
</g>
<path d="M516.915 15H513.619V4.81818H517.019C518.017 4.81818 518.874 5.02202 519.589 5.42969C520.305 5.83404 520.854 6.41572 521.235 7.17472C521.62 7.9304 521.812 8.83688 521.812 9.89418C521.812 10.9548 521.618 11.8662 521.23 12.6286C520.846 13.3909 520.289 13.9775 519.56 14.3885C518.83 14.7962 517.949 15 516.915 15ZM515.155 13.6577H516.83C517.606 13.6577 518.25 13.5118 518.764 13.2202C519.278 12.9252 519.662 12.4993 519.918 11.9425C520.173 11.3823 520.3 10.6996 520.3 9.89418C520.3 9.09541 520.173 8.41761 519.918 7.8608C519.666 7.30398 519.29 6.88139 518.789 6.59304C518.289 6.30469 517.667 6.16051 516.925 6.16051H515.155V13.6577ZM523.603 15V7.36364H525.089V15H523.603ZM524.354 6.18537C524.095 6.18537 523.873 6.09919 523.687 5.92685C523.505 5.75118 523.414 5.54238 523.414 5.30043C523.414 5.05516 523.505 4.84635 523.687 4.67401C523.873 4.49834 524.095 4.41051 524.354 4.41051C524.612 4.41051 524.832 4.49834 525.015 4.67401C525.2 4.84635 525.293 5.05516 525.293 5.30043C525.293 5.54238 525.2 5.75118 525.015 5.92685C524.832 6.09919 524.612 6.18537 524.354 6.18537ZM532.811 9.22798L531.464 9.46662C531.408 9.29427 531.318 9.13021 531.196 8.97443C531.076 8.81865 530.914 8.69105 530.708 8.59162C530.503 8.49219 530.246 8.44247 529.938 8.44247C529.517 8.44247 529.166 8.53693 528.884 8.72585C528.602 8.91146 528.461 9.15175 528.461 9.44673C528.461 9.70194 528.556 9.90743 528.745 10.0632C528.934 10.219 529.239 10.3466 529.659 10.446L530.873 10.7244C531.575 10.8868 532.099 11.1371 532.444 11.4751C532.788 11.8132 532.961 12.2524 532.961 12.7926C532.961 13.25 532.828 13.6577 532.563 14.0156C532.301 14.3703 531.935 14.6487 531.464 14.8509C530.997 15.053 530.455 15.1541 529.838 15.1541C528.983 15.1541 528.286 14.9718 527.745 14.6072C527.205 14.2393 526.874 13.7173 526.751 13.0412L528.188 12.8224C528.277 13.197 528.461 13.4804 528.74 13.6726C529.018 13.8615 529.381 13.956 529.828 13.956C530.316 13.956 530.705 13.8549 530.997 13.6527C531.288 13.4472 531.434 13.197 531.434 12.902C531.434 12.6634 531.345 12.4628 531.166 12.3004C530.99 12.138 530.72 12.0154 530.355 11.9325L529.063 11.6491C528.35 11.4867 527.823 11.2282 527.482 10.8736C527.144 10.5189 526.975 10.0698 526.975 9.52628C526.975 9.07552 527.101 8.68111 527.353 8.34304C527.605 8.00497 527.953 7.74148 528.397 7.55256C528.841 7.36032 529.35 7.2642 529.923 7.2642C530.748 7.2642 531.398 7.44318 531.872 7.80114C532.346 8.15578 532.659 8.63139 532.811 9.22798ZM537.812 15.1541C537.073 15.1541 536.436 14.9867 535.903 14.652C535.372 14.3139 534.965 13.8482 534.68 13.255C534.394 12.6617 534.252 11.9822 534.252 11.2166C534.252 10.4411 534.398 9.75663 534.689 9.16335C534.981 8.56676 535.392 8.10109 535.922 7.76633C536.453 7.43158 537.077 7.2642 537.797 7.2642C538.377 7.2642 538.894 7.37192 539.348 7.58736C539.802 7.79948 540.168 8.09777 540.447 8.48224C540.728 8.86671 540.896 9.31581 540.949 9.82955H539.502C539.422 9.47159 539.24 9.16335 538.955 8.90483C538.673 8.64631 538.296 8.51705 537.822 8.51705C537.407 8.51705 537.044 8.62642 536.733 8.84517C536.425 9.06061 536.184 9.36884 536.012 9.76989C535.84 10.1676 535.753 10.6383 535.753 11.1818C535.753 11.7386 535.838 12.2192 536.007 12.6236C536.176 13.0279 536.415 13.3411 536.723 13.5632C537.034 13.7853 537.401 13.8963 537.822 13.8963C538.103 13.8963 538.358 13.8449 538.587 13.7422C538.819 13.6361 539.013 13.4853 539.169 13.2898C539.328 13.0942 539.439 12.8589 539.502 12.5838H540.949C540.896 13.0777 540.735 13.5185 540.466 13.9062C540.198 14.294 539.838 14.599 539.388 14.821C538.94 15.0431 538.415 15.1541 537.812 15.1541ZM545.755 15.1541C545.039 15.1541 544.414 14.9901 543.881 14.6619C543.347 14.3338 542.933 13.8748 542.638 13.2848C542.343 12.6948 542.195 12.0054 542.195 11.2166C542.195 10.4245 542.343 9.73177 542.638 9.13849C542.933 8.54522 543.347 8.08452 543.881 7.75639C544.414 7.42827 545.039 7.2642 545.755 7.2642C546.471 7.2642 547.096 7.42827 547.629 7.75639C548.163 8.08452 548.577 8.54522 548.872 9.13849C549.167 9.73177 549.315 10.4245 549.315 11.2166C549.315 12.0054 549.167 12.6948 548.872 13.2848C548.577 13.8748 548.163 14.3338 547.629 14.6619C547.096 14.9901 546.471 15.1541 545.755 15.1541ZM545.76 13.9062C546.224 13.9062 546.608 13.7836 546.913 13.5384C547.218 13.2931 547.444 12.9666 547.589 12.5589C547.739 12.1513 547.813 11.7022 547.813 11.2116C547.813 10.7244 547.739 10.277 547.589 9.86932C547.444 9.45833 547.218 9.12855 546.913 8.87997C546.608 8.63139 546.224 8.5071 545.76 8.5071C545.293 8.5071 544.905 8.63139 544.597 8.87997C544.292 9.12855 544.065 9.45833 543.915 9.86932C543.77 10.277 543.697 10.7244 543.697 11.2116C543.697 11.7022 543.77 12.1513 543.915 12.5589C544.065 12.9666 544.292 13.2931 544.597 13.5384C544.905 13.7836 545.293 13.9062 545.76 13.9062ZM555.811 11.8331V7.36364H557.303V15H555.841V13.6776H555.762C555.586 14.0852 555.304 14.425 554.916 14.6967C554.532 14.9652 554.053 15.0994 553.48 15.0994C552.989 15.0994 552.555 14.9917 552.177 14.7763C551.802 14.5575 551.508 14.2344 551.292 13.8068C551.08 13.3793 550.974 12.8506 550.974 12.2209V7.36364H552.46V12.0419C552.46 12.5623 552.605 12.9766 552.893 13.2848C553.181 13.593 553.556 13.7472 554.017 13.7472C554.295 13.7472 554.572 13.6776 554.847 13.5384C555.125 13.3991 555.356 13.1887 555.538 12.907C555.723 12.6252 555.815 12.2673 555.811 11.8331ZM560.787 10.4659V15H559.3V7.36364H560.727V8.60653H560.821C560.997 8.20218 561.272 7.87737 561.647 7.6321C562.025 7.38684 562.5 7.2642 563.074 7.2642C563.594 7.2642 564.05 7.37358 564.441 7.59233C564.832 7.80777 565.135 8.12926 565.35 8.55682C565.566 8.98437 565.674 9.51302 565.674 10.1428V15H564.187V10.3217C564.187 9.76823 564.043 9.3357 563.755 9.02415C563.466 8.70928 563.07 8.55185 562.566 8.55185C562.222 8.55185 561.915 8.62642 561.647 8.77557C561.382 8.92472 561.171 9.14347 561.015 9.43182C560.863 9.71686 560.787 10.0616 560.787 10.4659ZM571.232 7.36364V8.55682H567.061V7.36364H571.232ZM568.179 5.53409H569.666V12.7578C569.666 13.0462 569.709 13.2633 569.795 13.4091C569.881 13.5516 569.992 13.6494 570.128 13.7024C570.267 13.7521 570.418 13.777 570.581 13.777C570.7 13.777 570.804 13.7687 570.894 13.7521C570.983 13.7356 571.053 13.7223 571.103 13.7124L571.371 14.9403C571.285 14.9735 571.162 15.0066 571.003 15.0398C570.844 15.0762 570.645 15.0961 570.407 15.0994C570.016 15.1061 569.651 15.0365 569.313 14.8906C568.975 14.7448 568.701 14.5194 568.493 14.2145C568.284 13.9096 568.179 13.5268 568.179 13.0661V5.53409Z" fill="#344054"/>
<g filter="url(#filter3_d_6833_16223)">
<rect x="512.5" y="26" width="94.75" height="44" rx="8" fill="white"/>
<rect x="513" y="26.5" width="93.75" height="43" rx="7.5" stroke="#D0D5DD"/>
<path d="M531.795 42.3636V54H530.386V43.8409H530.318L527.477 45.7273V44.2955L530.386 42.3636H531.795ZM538.778 54.1591C538.112 54.1591 537.511 54.0265 536.977 53.7614C536.443 53.4962 536.015 53.1326 535.693 52.6705C535.371 52.2083 535.195 51.6818 535.165 51.0909H536.528C536.581 51.6174 536.82 52.053 537.244 52.3977C537.672 52.7386 538.184 52.9091 538.778 52.9091C539.256 52.9091 539.68 52.7973 540.051 52.5739C540.426 52.3504 540.72 52.0436 540.932 51.6534C541.148 51.2595 541.256 50.8144 541.256 50.3182C541.256 49.8106 541.144 49.358 540.92 48.9602C540.701 48.5587 540.398 48.2424 540.011 48.0114C539.625 47.7803 539.184 47.6629 538.688 47.6591C538.331 47.6553 537.966 47.7102 537.591 47.8239C537.216 47.9337 536.907 48.0758 536.665 48.25L535.347 48.0909L536.051 42.3636H542.097V43.6136H537.233L536.824 47.0455H536.892C537.131 46.8561 537.43 46.6989 537.79 46.5739C538.15 46.4489 538.525 46.3864 538.915 46.3864C539.627 46.3864 540.261 46.5568 540.818 46.8977C541.379 47.2348 541.818 47.697 542.136 48.2841C542.458 48.8712 542.619 49.5417 542.619 50.2955C542.619 51.0379 542.453 51.7008 542.119 52.2841C541.79 52.8636 541.335 53.322 540.756 53.6591C540.176 53.9924 539.517 54.1591 538.778 54.1591ZM550.808 51.8182V51.2045C550.808 50.7803 550.895 50.392 551.07 50.0398C551.248 49.6837 551.505 49.3996 551.842 49.1875C552.183 48.9716 552.596 48.8636 553.081 48.8636C553.573 48.8636 553.986 48.9716 554.32 49.1875C554.653 49.3996 554.905 49.6837 555.075 50.0398C555.246 50.392 555.331 50.7803 555.331 51.2045V51.8182C555.331 52.2424 555.244 52.6326 555.07 52.9886C554.899 53.3409 554.645 53.625 554.308 53.8409C553.975 54.053 553.566 54.1591 553.081 54.1591C552.589 54.1591 552.174 54.053 551.837 53.8409C551.5 53.625 551.244 53.3409 551.07 52.9886C550.895 52.6326 550.808 52.2424 550.808 51.8182ZM551.967 51.2045V51.8182C551.967 52.1705 552.051 52.4867 552.217 52.767C552.384 53.0436 552.672 53.1818 553.081 53.1818C553.479 53.1818 553.759 53.0436 553.922 52.767C554.089 52.4867 554.172 52.1705 554.172 51.8182V51.2045C554.172 50.8523 554.092 50.5379 553.933 50.2614C553.774 49.9811 553.49 49.8409 553.081 49.8409C552.683 49.8409 552.397 49.9811 552.223 50.2614C552.053 50.5379 551.967 50.8523 551.967 51.2045ZM545.013 45.1591V44.5455C545.013 44.1212 545.1 43.733 545.274 43.3807C545.452 43.0246 545.71 42.7405 546.047 42.5284C546.388 42.3125 546.801 42.2045 547.286 42.2045C547.778 42.2045 548.191 42.3125 548.524 42.5284C548.857 42.7405 549.109 43.0246 549.28 43.3807C549.45 43.733 549.536 44.1212 549.536 44.5455V45.1591C549.536 45.5833 549.448 45.9735 549.274 46.3295C549.104 46.6818 548.85 46.9659 548.513 47.1818C548.179 47.3939 547.77 47.5 547.286 47.5C546.793 47.5 546.378 47.3939 546.041 47.1818C545.704 46.9659 545.448 46.6818 545.274 46.3295C545.1 45.9735 545.013 45.5833 545.013 45.1591ZM546.172 44.5455V45.1591C546.172 45.5114 546.255 45.8277 546.422 46.108C546.589 46.3845 546.876 46.5227 547.286 46.5227C547.683 46.5227 547.964 46.3845 548.126 46.108C548.293 45.8277 548.376 45.5114 548.376 45.1591V44.5455C548.376 44.1932 548.297 43.8788 548.138 43.6023C547.979 43.322 547.695 43.1818 547.286 43.1818C546.888 43.1818 546.602 43.322 546.428 43.6023C546.257 43.8788 546.172 44.1932 546.172 44.5455ZM545.445 54L553.445 42.3636H554.74L546.74 54H545.445Z" fill="#667085"/>
</g>
<path d="M617.866 6.14062V4.81818H625.746V6.14062H622.57V15H621.038V6.14062H617.866ZM629.478 15.1541C628.762 15.1541 628.137 14.9901 627.603 14.6619C627.07 14.3338 626.655 13.8748 626.36 13.2848C626.065 12.6948 625.918 12.0054 625.918 11.2166C625.918 10.4245 626.065 9.73177 626.36 9.13849C626.655 8.54522 627.07 8.08452 627.603 7.75639C628.137 7.42827 628.762 7.2642 629.478 7.2642C630.194 7.2642 630.818 7.42827 631.352 7.75639C631.886 8.08452 632.3 8.54522 632.595 9.13849C632.89 9.73177 633.037 10.4245 633.037 11.2166C633.037 12.0054 632.89 12.6948 632.595 13.2848C632.3 13.8748 631.886 14.3338 631.352 14.6619C630.818 14.9901 630.194 15.1541 629.478 15.1541ZM629.483 13.9062C629.947 13.9062 630.331 13.7836 630.636 13.5384C630.941 13.2931 631.166 12.9666 631.312 12.5589C631.461 12.1513 631.536 11.7022 631.536 11.2116C631.536 10.7244 631.461 10.277 631.312 9.86932C631.166 9.45833 630.941 9.12855 630.636 8.87997C630.331 8.63139 629.947 8.5071 629.483 8.5071C629.015 8.5071 628.627 8.63139 628.319 8.87997C628.014 9.12855 627.787 9.45833 627.638 9.86932C627.492 10.277 627.419 10.7244 627.419 11.2116C627.419 11.7022 627.492 12.1513 627.638 12.5589C627.787 12.9666 628.014 13.2931 628.319 13.5384C628.627 13.7836 629.015 13.9062 629.483 13.9062ZM638.261 7.36364V8.55682H634.09V7.36364H638.261ZM635.209 5.53409H636.695V12.7578C636.695 13.0462 636.738 13.2633 636.824 13.4091C636.911 13.5516 637.022 13.6494 637.157 13.7024C637.297 13.7521 637.448 13.777 637.61 13.777C637.729 13.777 637.834 13.7687 637.923 13.7521C638.013 13.7356 638.082 13.7223 638.132 13.7124L638.4 14.9403C638.314 14.9735 638.192 15.0066 638.032 15.0398C637.873 15.0762 637.675 15.0961 637.436 15.0994C637.045 15.1061 636.68 15.0365 636.342 14.8906C636.004 14.7448 635.731 14.5194 635.522 14.2145C635.313 13.9096 635.209 13.5268 635.209 13.0661V5.53409ZM642.128 15.169C641.644 15.169 641.206 15.0795 640.815 14.9006C640.424 14.7183 640.114 14.4548 639.886 14.1101C639.66 13.7654 639.548 13.3428 639.548 12.8423C639.548 12.4115 639.63 12.0568 639.796 11.7784C639.962 11.5 640.186 11.2796 640.467 11.1172C640.749 10.9548 641.064 10.8321 641.412 10.7493C641.76 10.6664 642.115 10.6035 642.476 10.5604C642.933 10.5073 643.304 10.4643 643.589 10.4311C643.875 10.3946 644.082 10.3366 644.211 10.2571C644.34 10.1776 644.405 10.0483 644.405 9.86932V9.83452C644.405 9.40033 644.282 9.06392 644.037 8.82528C643.795 8.58665 643.434 8.46733 642.953 8.46733C642.453 8.46733 642.058 8.57836 641.77 8.80043C641.485 9.01918 641.288 9.26278 641.178 9.53125L639.781 9.21307C639.947 8.74905 640.189 8.37453 640.507 8.08949C640.829 7.80114 641.198 7.59233 641.616 7.46307C642.033 7.33049 642.473 7.2642 642.933 7.2642C643.238 7.2642 643.561 7.30066 643.903 7.37358C644.247 7.44318 644.569 7.57244 644.867 7.76136C645.169 7.95028 645.416 8.22041 645.608 8.57173C645.8 8.91974 645.896 9.37216 645.896 9.92898V15H644.445V13.956H644.385C644.289 14.1482 644.145 14.3371 643.952 14.5227C643.76 14.7083 643.513 14.8625 643.212 14.9851C642.91 15.1077 642.549 15.169 642.128 15.169ZM642.451 13.9759C642.862 13.9759 643.213 13.8946 643.505 13.7322C643.8 13.5698 644.024 13.3577 644.176 13.0959C644.332 12.8307 644.41 12.5473 644.41 12.2457V11.2614C644.357 11.3144 644.254 11.3641 644.102 11.4105C643.952 11.4536 643.782 11.4917 643.589 11.5249C643.397 11.5547 643.21 11.5829 643.028 11.6094C642.845 11.6326 642.693 11.6525 642.57 11.669C642.282 11.7055 642.018 11.7668 641.78 11.853C641.545 11.9392 641.356 12.0634 641.213 12.2259C641.074 12.3849 641.004 12.5971 641.004 12.8622C641.004 13.2301 641.14 13.5085 641.412 13.6974C641.684 13.883 642.03 13.9759 642.451 13.9759ZM649.363 4.81818V15H647.876V4.81818H649.363ZM655.187 15V4.81818H658.816C659.608 4.81818 660.265 4.96236 660.785 5.25071C661.305 5.53906 661.695 5.93347 661.953 6.43395C662.212 6.93111 662.341 7.49124 662.341 8.11435C662.341 8.74077 662.21 9.30421 661.948 9.80469C661.69 10.3018 661.299 10.6963 660.775 10.9879C660.255 11.2763 659.6 11.4205 658.811 11.4205H656.316V10.1179H658.672C659.173 10.1179 659.579 10.0317 659.89 9.85938C660.202 9.68371 660.43 9.44508 660.576 9.14347C660.722 8.84186 660.795 8.49882 660.795 8.11435C660.795 7.72988 660.722 7.38849 660.576 7.0902C660.43 6.7919 660.2 6.55824 659.885 6.3892C659.574 6.22017 659.163 6.13565 658.652 6.13565H656.723V15H655.187ZM664.023 15V7.36364H665.46V8.5767H665.539C665.678 8.16572 665.924 7.84257 666.275 7.60724C666.629 7.36861 667.031 7.24929 667.478 7.24929C667.571 7.24929 667.68 7.2526 667.806 7.25923C667.935 7.26586 668.036 7.27415 668.109 7.28409V8.70597C668.05 8.68939 667.944 8.67116 667.791 8.65128C667.639 8.62808 667.486 8.61648 667.334 8.61648C666.982 8.61648 666.669 8.69105 666.394 8.8402C666.122 8.98603 665.907 9.18987 665.748 9.4517C665.589 9.71023 665.509 10.0052 665.509 10.3366V15H664.023ZM669.396 15V7.36364H670.882V15H669.396ZM670.146 6.18537C669.888 6.18537 669.666 6.09919 669.48 5.92685C669.298 5.75118 669.207 5.54238 669.207 5.30043C669.207 5.05516 669.298 4.84635 669.48 4.67401C669.666 4.49834 669.888 4.41051 670.146 4.41051C670.405 4.41051 670.625 4.49834 670.808 4.67401C670.993 4.84635 671.086 5.05516 671.086 5.30043C671.086 5.54238 670.993 5.75118 670.808 5.92685C670.625 6.09919 670.405 6.18537 670.146 6.18537ZM676.099 15.1541C675.36 15.1541 674.723 14.9867 674.19 14.652C673.659 14.3139 673.252 13.8482 672.967 13.255C672.682 12.6617 672.539 11.9822 672.539 11.2166C672.539 10.4411 672.685 9.75663 672.977 9.16335C673.268 8.56676 673.679 8.10109 674.21 7.76633C674.74 7.43158 675.365 7.2642 676.084 7.2642C676.664 7.2642 677.181 7.37192 677.635 7.58736C678.089 7.79948 678.455 8.09777 678.734 8.48224C679.015 8.86671 679.183 9.31581 679.236 9.82955H677.789C677.71 9.47159 677.527 9.16335 677.242 8.90483C676.96 8.64631 676.583 8.51705 676.109 8.51705C675.694 8.51705 675.331 8.62642 675.02 8.84517C674.712 9.06061 674.471 9.36884 674.299 9.76989C674.127 10.1676 674.04 10.6383 674.04 11.1818C674.04 11.7386 674.125 12.2192 674.294 12.6236C674.463 13.0279 674.702 13.3411 675.01 13.5632C675.321 13.7853 675.688 13.8963 676.109 13.8963C676.39 13.8963 676.646 13.8449 676.874 13.7422C677.106 13.6361 677.3 13.4853 677.456 13.2898C677.615 13.0942 677.726 12.8589 677.789 12.5838H679.236C679.183 13.0777 679.022 13.5185 678.754 13.9062C678.485 14.294 678.125 14.599 677.675 14.821C677.227 15.0431 676.702 15.1541 676.099 15.1541ZM684.117 15.1541C683.364 15.1541 682.716 14.9934 682.173 14.6719C681.633 14.3471 681.215 13.8913 680.92 13.3047C680.628 12.7147 680.482 12.0237 680.482 11.2315C680.482 10.4493 680.628 9.75994 680.92 9.16335C681.215 8.56676 681.626 8.10109 682.153 7.76633C682.683 7.43158 683.303 7.2642 684.012 7.2642C684.443 7.2642 684.861 7.33546 685.265 7.47798C685.669 7.6205 686.032 7.84422 686.354 8.14915C686.675 8.45407 686.929 8.85014 687.115 9.33736C687.3 9.82126 687.393 10.4096 687.393 11.1023V11.6293H681.323V10.5156H685.936C685.936 10.1245 685.857 9.77817 685.698 9.47656C685.539 9.17164 685.315 8.93134 685.026 8.75568C684.741 8.58002 684.407 8.49219 684.022 8.49219C683.605 8.49219 683.24 8.59493 682.928 8.80043C682.62 9.0026 682.382 9.26776 682.213 9.59588C682.047 9.92069 681.964 10.2737 681.964 10.6548V11.5249C681.964 12.0353 682.053 12.4695 682.232 12.8274C682.415 13.1854 682.668 13.4588 682.993 13.6477C683.318 13.8333 683.697 13.9261 684.132 13.9261C684.413 13.9261 684.67 13.8864 684.902 13.8068C685.134 13.724 685.335 13.6013 685.504 13.4389C685.673 13.2765 685.802 13.076 685.892 12.8374L687.298 13.0909C687.186 13.5052 686.984 13.8681 686.692 14.1797C686.404 14.4879 686.041 14.7282 685.603 14.9006C685.169 15.0696 684.673 15.1541 684.117 15.1541Z" fill="#344054"/>
<g filter="url(#filter4_d_6833_16223)">
<rect x="617.25" y="26" width="94.75" height="44" rx="8" fill="white"/>
<rect x="617.75" y="26.5" width="93.75" height="43" rx="7.5" stroke="#D0D5DD"/>
<path d="M632.182 51.6136V50.4545L637.295 42.3636H638.136V44.1591H637.568L633.705 50.2727V50.3636H640.591V51.6136H632.182ZM637.659 54V51.2614V50.7216V42.3636H639V54H637.659ZM646.516 54.1591C645.66 54.1591 644.93 53.9261 644.328 53.4602C643.726 52.9905 643.266 52.3106 642.947 51.4205C642.629 50.5265 642.47 49.447 642.47 48.1818C642.47 46.9242 642.629 45.8504 642.947 44.9602C643.269 44.0663 643.732 43.3845 644.334 42.9148C644.94 42.4413 645.667 42.2045 646.516 42.2045C647.364 42.2045 648.089 42.4413 648.692 42.9148C649.298 43.3845 649.76 44.0663 650.078 44.9602C650.4 45.8504 650.561 46.9242 650.561 48.1818C650.561 49.447 650.402 50.5265 650.084 51.4205C649.766 52.3106 649.305 52.9905 648.703 53.4602C648.101 53.9261 647.372 54.1591 646.516 54.1591ZM646.516 52.9091C647.364 52.9091 648.023 52.5 648.493 51.6818C648.963 50.8636 649.197 49.697 649.197 48.1818C649.197 47.1742 649.089 46.3163 648.874 45.608C648.661 44.8996 648.355 44.3598 647.953 43.9886C647.555 43.6174 647.076 43.4318 646.516 43.4318C645.675 43.4318 645.018 43.8466 644.544 44.6761C644.071 45.5019 643.834 46.6705 643.834 48.1818C643.834 49.1894 643.94 50.0455 644.152 50.75C644.364 51.4545 644.669 51.9905 645.067 52.358C645.468 52.7254 645.951 52.9091 646.516 52.9091ZM656.516 54.1591C655.66 54.1591 654.93 53.9261 654.328 53.4602C653.726 52.9905 653.266 52.3106 652.947 51.4205C652.629 50.5265 652.47 49.447 652.47 48.1818C652.47 46.9242 652.629 45.8504 652.947 44.9602C653.269 44.0663 653.732 43.3845 654.334 42.9148C654.94 42.4413 655.667 42.2045 656.516 42.2045C657.364 42.2045 658.089 42.4413 658.692 42.9148C659.298 43.3845 659.76 44.0663 660.078 44.9602C660.4 45.8504 660.561 46.9242 660.561 48.1818C660.561 49.447 660.402 50.5265 660.084 51.4205C659.766 52.3106 659.305 52.9905 658.703 53.4602C658.101 53.9261 657.372 54.1591 656.516 54.1591ZM656.516 52.9091C657.364 52.9091 658.023 52.5 658.493 51.6818C658.963 50.8636 659.197 49.697 659.197 48.1818C659.197 47.1742 659.089 46.3163 658.874 45.608C658.661 44.8996 658.355 44.3598 657.953 43.9886C657.555 43.6174 657.076 43.4318 656.516 43.4318C655.675 43.4318 655.018 43.8466 654.544 44.6761C654.071 45.5019 653.834 46.6705 653.834 48.1818C653.834 49.1894 653.94 50.0455 654.152 50.75C654.364 51.4545 654.669 51.9905 655.067 52.358C655.468 52.7254 655.951 52.9091 656.516 52.9091Z" fill="#667085"/>
</g>
<path d="M729.5 2.5H734.5M724.5 5H739.5M737.833 5L737.249 13.7661C737.161 15.0813 737.117 15.7389 736.833 16.2375C736.583 16.6765 736.206 17.0294 735.751 17.2497C735.235 17.5 734.576 17.5 733.258 17.5H730.742C729.424 17.5 728.765 17.5 728.249 17.2497C727.794 17.0294 727.417 16.6765 727.167 16.2375C726.883 15.7389 726.839 15.0813 726.751 13.7661L726.167 5M730.333 8.75V12.9167M733.667 8.75V12.9167" stroke="#667085" stroke-width="1.66667" stroke-linecap="round" stroke-linejoin="round"/>
<defs>
<filter id="filter0_d_6833_16223" x="0" y="25" width="295" height="48" filterUnits="userSpaceOnUse" color-interpolation-filters="sRGB">
<feFlood flood-opacity="0" result="BackgroundImageFix"/>
<feColorMatrix in="SourceAlpha" type="matrix" values="0 0 0 0 0 0 0 0 0 0 0 0 0 0 0 0 0 0 127 0" result="hardAlpha"/>
<feOffset dy="1"/>
<feGaussianBlur stdDeviation="1"/>
<feColorMatrix type="matrix" values="0 0 0 0 0.0627451 0 0 0 0 0.0941176 0 0 0 0 0.156863 0 0 0 0.05 0"/>
<feBlend mode="normal" in2="BackgroundImageFix" result="effect1_dropShadow_6833_16223"/>
<feBlend mode="normal" in="SourceGraphic" in2="effect1_dropShadow_6833_16223" result="shape"/>
</filter>
<filter id="filter1_d_6833_16223" x="301" y="25" width="98.75" height="48" filterUnits="userSpaceOnUse" color-interpolation-filters="sRGB">
<feFlood flood-opacity="0" result="BackgroundImageFix"/>
<feColorMatrix in="SourceAlpha" type="matrix" values="0 0 0 0 0 0 0 0 0 0 0 0 0 0 0 0 0 0 127 0" result="hardAlpha"/>
<feOffset dy="1"/>
<feGaussianBlur stdDeviation="1"/>
<feColorMatrix type="matrix" values="0 0 0 0 0.0627451 0 0 0 0 0.0941176 0 0 0 0 0.156863 0 0 0 0.05 0"/>
<feBlend mode="normal" in2="BackgroundImageFix" result="effect1_dropShadow_6833_16223"/>
<feBlend mode="normal" in="SourceGraphic" in2="effect1_dropShadow_6833_16223" result="shape"/>
</filter>
<filter id="filter2_d_6833_16223" x="405.75" y="25" width="98.75" height="48" filterUnits="userSpaceOnUse" color-interpolation-filters="sRGB">
<feFlood flood-opacity="0" result="BackgroundImageFix"/>
<feColorMatrix in="SourceAlpha" type="matrix" values="0 0 0 0 0 0 0 0 0 0 0 0 0 0 0 0 0 0 127 0" result="hardAlpha"/>
<feOffset dy="1"/>
<feGaussianBlur stdDeviation="1"/>
<feColorMatrix type="matrix" values="0 0 0 0 0.0627451 0 0 0 0 0.0941176 0 0 0 0 0.156863 0 0 0 0.05 0"/>
<feBlend mode="normal" in2="BackgroundImageFix" result="effect1_dropShadow_6833_16223"/>
<feBlend mode="normal" in="SourceGraphic" in2="effect1_dropShadow_6833_16223" result="shape"/>
</filter>
<filter id="filter3_d_6833_16223" x="510.5" y="25" width="98.75" height="48" filterUnits="userSpaceOnUse" color-interpolation-filters="sRGB">
<feFlood flood-opacity="0" result="BackgroundImageFix"/>
<feColorMatrix in="SourceAlpha" type="matrix" values="0 0 0 0 0 0 0 0 0 0 0 0 0 0 0 0 0 0 127 0" result="hardAlpha"/>
<feOffset dy="1"/>
<feGaussianBlur stdDeviation="1"/>
<feColorMatrix type="matrix" values="0 0 0 0 0.0627451 0 0 0 0 0.0941176 0 0 0 0 0.156863 0 0 0 0.05 0"/>
<feBlend mode="normal" in2="BackgroundImageFix" result="effect1_dropShadow_6833_16223"/>
<feBlend mode="normal" in="SourceGraphic" in2="effect1_dropShadow_6833_16223" result="shape"/>
</filter>
<filter id="filter4_d_6833_16223" x="615.25" y="25" width="98.75" height="48" filterUnits="userSpaceOnUse" color-interpolation-filters="sRGB">
<feFlood flood-opacity="0" result="BackgroundImageFix"/>
<feColorMatrix in="SourceAlpha" type="matrix" values="0 0 0 0 0 0 0 0 0 0 0 0 0 0 0 0 0 0 127 0" result="hardAlpha"/>
<feOffset dy="1"/>
<feGaussianBlur stdDeviation="1"/>
<feColorMatrix type="matrix" values="0 0 0 0 0.0627451 0 0 0 0 0.0941176 0 0 0 0 0.156863 0 0 0 0.05 0"/>
<feBlend mode="normal" in2="BackgroundImageFix" result="effect1_dropShadow_6833_16223"/>
<feBlend mode="normal" in="SourceGraphic" in2="effect1_dropShadow_6833_16223" result="shape"/>
</filter>
</defs>
</svg>
