<svg width="742" height="96" viewBox="0 0 742 96" fill="none" xmlns="http://www.w3.org/2000/svg">
<path d="M4.65483 4.81818V15H3.11861V4.81818H4.65483ZM10.3374 7.36364V8.55682H6.16619V7.36364H10.3374ZM7.2848 5.53409H8.77131V12.7578C8.77131 13.0462 8.81439 13.2633 8.90057 13.4091C8.98674 13.5516 9.09777 13.6494 9.23366 13.7024C9.37287 13.7521 9.52367 13.777 9.68608 13.777C9.8054 13.777 9.9098 13.7687 9.99929 13.7521C10.0888 13.7356 10.1584 13.7223 10.2081 13.7124L10.4766 14.9403C10.3904 14.9735 10.2678 15.0066 10.1087 15.0398C9.94957 15.0762 9.75071 15.0961 9.51207 15.0994C9.12098 15.1061 8.75639 15.0365 8.41832 14.8906C8.08026 14.7448 7.80682 14.5194 7.59801 14.2145C7.3892 13.9096 7.2848 13.5268 7.2848 13.0661V5.53409ZM15.1909 15.1541C14.4385 15.1541 13.7905 14.9934 13.247 14.6719C12.7067 14.3471 12.2891 13.8913 11.9941 13.3047C11.7025 12.7147 11.5566 12.0237 11.5566 11.2315C11.5566 10.4493 11.7025 9.75994 11.9941 9.16335C12.2891 8.56676 12.7001 8.10109 13.2271 7.76633C13.7574 7.43158 14.3772 7.2642 15.0865 7.2642C15.5173 7.2642 15.935 7.33546 16.3393 7.47798C16.7437 7.6205 17.1066 7.84422 17.4281 8.14915C17.7496 8.45407 18.0031 8.85014 18.1887 9.33736C18.3743 9.82126 18.4672 10.4096 18.4672 11.1023V11.6293H12.3968V10.5156H17.0105C17.0105 10.1245 16.9309 9.77817 16.7718 9.47656C16.6127 9.17164 16.389 8.93134 16.1007 8.75568C15.8156 8.58002 15.4809 8.49219 15.0964 8.49219C14.6788 8.49219 14.3142 8.59493 14.0027 8.80043C13.6944 9.0026 13.4558 9.26776 13.2868 9.59588C13.121 9.92069 13.0382 10.2737 13.0382 10.6548V11.5249C13.0382 12.0353 13.1277 12.4695 13.3066 12.8274C13.4889 13.1854 13.7425 13.4588 14.0673 13.6477C14.3921 13.8333 14.7716 13.9261 15.2058 13.9261C15.4875 13.9261 15.7444 13.8864 15.9764 13.8068C16.2084 13.724 16.4089 13.6013 16.5779 13.4389C16.747 13.2765 16.8762 13.076 16.9657 12.8374L18.3727 13.0909C18.26 13.5052 18.0578 13.8681 17.7662 14.1797C17.4778 14.4879 17.1149 14.7282 16.6774 14.9006C16.2432 15.0696 15.7477 15.1541 15.1909 15.1541ZM20.1165 15V7.36364H21.5433V8.60653H21.6378C21.7969 8.18561 22.0571 7.85748 22.4183 7.62216C22.7796 7.38352 23.2121 7.2642 23.7159 7.2642C24.2263 7.2642 24.6539 7.38352 24.9986 7.62216C25.3466 7.8608 25.6035 8.18892 25.7692 8.60653H25.8487C26.031 8.19886 26.321 7.87405 26.7188 7.6321C27.1165 7.38684 27.5904 7.2642 28.1406 7.2642C28.8333 7.2642 29.3984 7.4813 29.8359 7.91548C30.2768 8.34967 30.4972 9.00426 30.4972 9.87926V15H29.0107V10.0185C29.0107 9.50142 28.8698 9.12689 28.5881 8.89489C28.3063 8.66288 27.9699 8.54688 27.5788 8.54688C27.0949 8.54688 26.7188 8.69602 26.4503 8.99432C26.1818 9.2893 26.0476 9.6688 26.0476 10.1328V15H24.5661V9.92401C24.5661 9.50971 24.4368 9.17661 24.1783 8.92472C23.9197 8.67282 23.5833 8.54688 23.169 8.54688C22.8873 8.54688 22.6271 8.62145 22.3885 8.7706C22.1532 8.91643 21.9626 9.12026 21.8168 9.3821C21.6742 9.64394 21.603 9.94721 21.603 10.2919V15H20.1165Z" fill="#344054"/>
<g filter="url(#filter0_d_6833_16216)">
<rect x="2" y="26" width="291" height="44" rx="8" fill="white"/>
<rect x="2.5" y="26.5" width="290" height="43" rx="7.5" stroke="#D0D5DD"/>
<path d="M17.4091 54V42.3636H18.8182V52.75H24.2273V54H17.4091ZM29.8864 54.1818C29.0455 54.1818 28.3201 53.9962 27.7102 53.625C27.1042 53.25 26.6364 52.7273 26.3068 52.0568C25.9811 51.3826 25.8182 50.5985 25.8182 49.7045C25.8182 48.8106 25.9811 48.0227 26.3068 47.3409C26.6364 46.6553 27.0947 46.1212 27.6818 45.7386C28.2727 45.3523 28.9621 45.1591 29.75 45.1591C30.2045 45.1591 30.6534 45.2348 31.0966 45.3864C31.5398 45.5379 31.9432 45.7841 32.3068 46.125C32.6705 46.4621 32.9602 46.9091 33.1761 47.4659C33.392 48.0227 33.5 48.7083 33.5 49.5227V50.0909H26.7727V48.9318H32.1364C32.1364 48.4394 32.0379 48 31.8409 47.6136C31.6477 47.2273 31.3712 46.9223 31.0114 46.6989C30.6553 46.4754 30.2348 46.3636 29.75 46.3636C29.2159 46.3636 28.7538 46.4962 28.3636 46.7614C27.9773 47.0227 27.6799 47.3636 27.4716 47.7841C27.2633 48.2045 27.1591 48.6553 27.1591 49.1364V49.9091C27.1591 50.5682 27.2727 51.1269 27.5 51.5852C27.7311 52.0398 28.0511 52.3864 28.4602 52.625C28.8693 52.8598 29.3447 52.9773 29.8864 52.9773C30.2386 52.9773 30.5568 52.928 30.8409 52.8295C31.1288 52.7273 31.3769 52.5758 31.5852 52.375C31.7936 52.1705 31.9545 51.9167 32.0682 51.6136L33.3636 51.9773C33.2273 52.4167 32.9981 52.803 32.6761 53.1364C32.3542 53.4659 31.9564 53.7235 31.483 53.9091C31.0095 54.0909 30.4773 54.1818 29.8864 54.1818ZM39.0625 57.4545C38.4148 57.4545 37.858 57.3712 37.392 57.2045C36.9261 57.0417 36.5379 56.8258 36.2273 56.5568C35.9205 56.2917 35.6761 56.0076 35.4943 55.7045L36.5625 54.9545C36.6837 55.1136 36.8371 55.2955 37.0227 55.5C37.2083 55.7083 37.4621 55.8883 37.7841 56.0398C38.1098 56.1951 38.536 56.2727 39.0625 56.2727C39.767 56.2727 40.3485 56.1023 40.8068 55.7614C41.2652 55.4205 41.4943 54.8864 41.4943 54.1591V52.3864H41.3807C41.2822 52.5455 41.142 52.7424 40.9602 52.9773C40.7822 53.2083 40.5246 53.4148 40.1875 53.5966C39.8542 53.7746 39.4034 53.8636 38.8352 53.8636C38.1307 53.8636 37.4981 53.697 36.9375 53.3636C36.3807 53.0303 35.9394 52.5455 35.6136 51.9091C35.2917 51.2727 35.1307 50.5 35.1307 49.5909C35.1307 48.697 35.2879 47.9186 35.6023 47.2557C35.9167 46.589 36.3542 46.0739 36.9148 45.7102C37.4754 45.3428 38.1231 45.1591 38.858 45.1591C39.4261 45.1591 39.8769 45.2538 40.2102 45.4432C40.5473 45.6288 40.8049 45.8409 40.983 46.0795C41.1648 46.3144 41.3049 46.5076 41.4034 46.6591H41.5398V45.2727H42.8352V54.25C42.8352 55 42.6648 55.6098 42.3239 56.0795C41.9867 56.553 41.5322 56.8996 40.9602 57.1193C40.392 57.3428 39.7595 57.4545 39.0625 57.4545ZM39.017 52.6591C39.5549 52.6591 40.0095 52.536 40.3807 52.2898C40.7519 52.0436 41.0341 51.6894 41.2273 51.2273C41.4205 50.7652 41.517 50.2121 41.517 49.5682C41.517 48.9394 41.4223 48.3845 41.233 47.9034C41.0436 47.4223 40.7633 47.0455 40.392 46.7727C40.0208 46.5 39.5625 46.3636 39.017 46.3636C38.4489 46.3636 37.9754 46.5076 37.5966 46.7955C37.2216 47.0833 36.9394 47.4697 36.75 47.9545C36.5644 48.4394 36.4716 48.9773 36.4716 49.5682C36.4716 50.1742 36.5663 50.7102 36.7557 51.1761C36.9489 51.6383 37.233 52.0019 37.608 52.267C37.9867 52.5284 38.4564 52.6591 39.017 52.6591ZM47.858 54.2045C47.3049 54.2045 46.803 54.1004 46.3523 53.892C45.9015 53.6799 45.5436 53.375 45.2784 52.9773C45.0133 52.5758 44.8807 52.0909 44.8807 51.5227C44.8807 51.0227 44.9792 50.6174 45.1761 50.3068C45.3731 49.9924 45.6364 49.7462 45.9659 49.5682C46.2955 49.3902 46.6591 49.2576 47.0568 49.1705C47.4583 49.0795 47.8617 49.0076 48.267 48.9545C48.7973 48.8864 49.2273 48.8352 49.5568 48.8011C49.8902 48.7633 50.1326 48.7008 50.2841 48.6136C50.4394 48.5265 50.517 48.375 50.517 48.1591V48.1136C50.517 47.553 50.3636 47.1174 50.0568 46.8068C49.7538 46.4962 49.2936 46.3409 48.6761 46.3409C48.036 46.3409 47.5341 46.4811 47.1705 46.7614C46.8068 47.0417 46.5511 47.3409 46.4034 47.6591L45.1307 47.2045C45.358 46.6742 45.661 46.2614 46.0398 45.9659C46.4223 45.6667 46.839 45.4583 47.2898 45.3409C47.7443 45.2197 48.1913 45.1591 48.6307 45.1591C48.911 45.1591 49.233 45.1932 49.5966 45.2614C49.964 45.3258 50.3182 45.4602 50.6591 45.6648C51.0038 45.8693 51.2898 46.178 51.517 46.5909C51.7443 47.0038 51.858 47.5568 51.858 48.25V54H50.517V52.8182H50.4489C50.358 53.0076 50.2064 53.2102 49.9943 53.4261C49.7822 53.642 49.5 53.8258 49.1477 53.9773C48.7955 54.1288 48.3655 54.2045 47.858 54.2045ZM48.0625 53C48.5928 53 49.0398 52.8958 49.4034 52.6875C49.7708 52.4792 50.0473 52.2102 50.233 51.8807C50.4223 51.5511 50.517 51.2045 50.517 50.8409V49.6136C50.4602 49.6818 50.3352 49.7443 50.142 49.8011C49.9527 49.8542 49.733 49.9015 49.483 49.9432C49.2367 49.9811 48.9962 50.0152 48.7614 50.0455C48.5303 50.072 48.3428 50.0947 48.1989 50.1136C47.8504 50.1591 47.5246 50.233 47.2216 50.3352C46.9223 50.4337 46.6799 50.5833 46.4943 50.7841C46.3125 50.9811 46.2216 51.25 46.2216 51.5909C46.2216 52.0568 46.3939 52.4091 46.7386 52.6477C47.0871 52.8826 47.5284 53 48.0625 53ZM55.6463 42.3636V54H54.3054V42.3636H55.6463ZM63.2614 54H61.7841L66.0568 42.3636H67.5114L71.7841 54H70.3068L66.8295 44.2045H66.7386L63.2614 54ZM63.8068 49.4545H69.7614V50.7045H63.8068V49.4545ZM76.7102 54.1818C75.983 54.1818 75.3409 53.9981 74.7841 53.6307C74.2273 53.2595 73.7917 52.7367 73.4773 52.0625C73.1629 51.3845 73.0057 50.5833 73.0057 49.6591C73.0057 48.7424 73.1629 47.947 73.4773 47.2727C73.7917 46.5985 74.2292 46.0777 74.7898 45.7102C75.3504 45.3428 75.9981 45.1591 76.733 45.1591C77.3011 45.1591 77.75 45.2538 78.0795 45.4432C78.4129 45.6288 78.6667 45.8409 78.8409 46.0795C79.0189 46.3144 79.1572 46.5076 79.2557 46.6591H79.3693V42.3636H80.7102V54H79.4148V52.6591H79.2557C79.1572 52.8182 79.017 53.0189 78.8352 53.2614C78.6534 53.5 78.3939 53.714 78.0568 53.9034C77.7197 54.089 77.2708 54.1818 76.7102 54.1818ZM76.892 52.9773C77.4299 52.9773 77.8845 52.8371 78.2557 52.5568C78.6269 52.2727 78.9091 51.8807 79.1023 51.3807C79.2955 50.8769 79.392 50.2955 79.392 49.6364C79.392 48.9848 79.2973 48.4148 79.108 47.9261C78.9186 47.4337 78.6383 47.0511 78.267 46.7784C77.8958 46.5019 77.4375 46.3636 76.892 46.3636C76.3239 46.3636 75.8504 46.5095 75.4716 46.8011C75.0966 47.089 74.8144 47.4811 74.625 47.9773C74.4394 48.4697 74.3466 49.0227 74.3466 49.6364C74.3466 50.2576 74.4413 50.822 74.6307 51.3295C74.8239 51.8333 75.108 52.2348 75.483 52.5341C75.8617 52.8295 76.3314 52.9773 76.892 52.9773ZM90.4886 45.2727L87.2614 54H85.8977L82.6705 45.2727H84.125L86.5341 52.2273H86.625L89.0341 45.2727H90.4886ZM92.2585 54V45.2727H93.5994V54H92.2585ZM92.9403 43.8182C92.679 43.8182 92.4536 43.7292 92.2642 43.5511C92.0786 43.3731 91.9858 43.1591 91.9858 42.9091C91.9858 42.6591 92.0786 42.4451 92.2642 42.267C92.4536 42.089 92.679 42 92.9403 42C93.2017 42 93.4252 42.089 93.6108 42.267C93.8002 42.4451 93.8949 42.6591 93.8949 42.9091C93.8949 43.1591 93.8002 43.3731 93.6108 43.5511C93.4252 43.7292 93.2017 43.8182 92.9403 43.8182ZM102.237 47.2273L101.033 47.5682C100.957 47.3674 100.845 47.1723 100.697 46.983C100.554 46.7898 100.357 46.6307 100.107 46.5057C99.8565 46.3807 99.5365 46.3182 99.1463 46.3182C98.6122 46.3182 98.1671 46.4413 97.8111 46.6875C97.4588 46.9299 97.2827 47.2386 97.2827 47.6136C97.2827 47.947 97.4039 48.2102 97.6463 48.4034C97.8887 48.5966 98.2675 48.7576 98.7827 48.8864L100.078 49.2045C100.858 49.3939 101.44 49.6837 101.822 50.0739C102.205 50.4602 102.396 50.9583 102.396 51.5682C102.396 52.0682 102.252 52.5152 101.964 52.9091C101.68 53.303 101.283 53.6136 100.771 53.8409C100.26 54.0682 99.6652 54.1818 98.9872 54.1818C98.0971 54.1818 97.3603 53.9886 96.777 53.6023C96.1937 53.2159 95.8243 52.6515 95.669 51.9091L96.9418 51.5909C97.063 52.0606 97.2921 52.4129 97.6293 52.6477C97.9702 52.8826 98.4152 53 98.9645 53C99.5895 53 100.086 52.8674 100.453 52.6023C100.824 52.3333 101.01 52.0114 101.01 51.6364C101.01 51.3333 100.904 51.0795 100.692 50.875C100.48 50.6667 100.154 50.5114 99.7145 50.4091L98.2599 50.0682C97.4607 49.8788 96.8736 49.5852 96.4986 49.1875C96.1274 48.786 95.9418 48.2841 95.9418 47.6818C95.9418 47.1894 96.08 46.7538 96.3565 46.375C96.6368 45.9962 97.0175 45.6989 97.4986 45.483C97.9834 45.267 98.5327 45.1591 99.1463 45.1591C100.01 45.1591 100.688 45.3485 101.18 45.7273C101.677 46.1061 102.029 46.6061 102.237 47.2273ZM104.415 54V45.2727H105.756V54H104.415ZM105.097 43.8182C104.835 43.8182 104.61 43.7292 104.42 43.5511C104.235 43.3731 104.142 43.1591 104.142 42.9091C104.142 42.6591 104.235 42.4451 104.42 42.267C104.61 42.089 104.835 42 105.097 42C105.358 42 105.581 42.089 105.767 42.267C105.956 42.4451 106.051 42.6591 106.051 42.9091C106.051 43.1591 105.956 43.3731 105.767 43.5511C105.581 43.7292 105.358 43.8182 105.097 43.8182ZM109.553 48.75V54H108.212V45.2727H109.507V46.6364H109.621C109.825 46.1932 110.136 45.8371 110.553 45.5682C110.969 45.2955 111.507 45.1591 112.166 45.1591C112.757 45.1591 113.274 45.2803 113.717 45.5227C114.161 45.7614 114.505 46.125 114.751 46.6136C114.998 47.0985 115.121 47.7121 115.121 48.4545V54H113.78V48.5455C113.78 47.8598 113.602 47.3258 113.246 46.9432C112.89 46.5568 112.401 46.3636 111.78 46.3636C111.352 46.3636 110.969 46.4564 110.632 46.642C110.299 46.8277 110.036 47.0985 109.842 47.4545C109.649 47.8106 109.553 48.2424 109.553 48.75ZM121.094 57.4545C120.446 57.4545 119.889 57.3712 119.423 57.2045C118.957 57.0417 118.569 56.8258 118.259 56.5568C117.952 56.2917 117.707 56.0076 117.526 55.7045L118.594 54.9545C118.715 55.1136 118.868 55.2955 119.054 55.5C119.24 55.7083 119.493 55.8883 119.815 56.0398C120.141 56.1951 120.567 56.2727 121.094 56.2727C121.798 56.2727 122.38 56.1023 122.838 55.7614C123.296 55.4205 123.526 54.8864 123.526 54.1591V52.3864H123.412C123.313 52.5455 123.173 52.7424 122.991 52.9773C122.813 53.2083 122.556 53.4148 122.219 53.5966C121.885 53.7746 121.435 53.8636 120.866 53.8636C120.162 53.8636 119.529 53.697 118.969 53.3636C118.412 53.0303 117.971 52.5455 117.645 51.9091C117.323 51.2727 117.162 50.5 117.162 49.5909C117.162 48.697 117.319 47.9186 117.634 47.2557C117.948 46.589 118.385 46.0739 118.946 45.7102C119.507 45.3428 120.154 45.1591 120.889 45.1591C121.457 45.1591 121.908 45.2538 122.241 45.4432C122.579 45.6288 122.836 45.8409 123.014 46.0795C123.196 46.3144 123.336 46.5076 123.435 46.6591H123.571V45.2727H124.866V54.25C124.866 55 124.696 55.6098 124.355 56.0795C124.018 56.553 123.563 56.8996 122.991 57.1193C122.423 57.3428 121.791 57.4545 121.094 57.4545ZM121.048 52.6591C121.586 52.6591 122.041 52.536 122.412 52.2898C122.783 52.0436 123.065 51.6894 123.259 51.2273C123.452 50.7652 123.548 50.2121 123.548 49.5682C123.548 48.9394 123.454 48.3845 123.264 47.9034C123.075 47.4223 122.795 47.0455 122.423 46.7727C122.052 46.5 121.594 46.3636 121.048 46.3636C120.48 46.3636 120.007 46.5076 119.628 46.7955C119.253 47.0833 118.971 47.4697 118.781 47.9545C118.596 48.4394 118.503 48.9773 118.503 49.5682C118.503 50.1742 118.598 50.7102 118.787 51.1761C118.98 51.6383 119.264 52.0019 119.639 52.267C120.018 52.5284 120.488 52.6591 121.048 52.6591Z" fill="#667085"/>
</g>
<path d="M2.67614 81.9119V80.8182H10.3125V81.9119H7.1108V91H5.87784V81.9119H2.67614ZM13.2296 86.4062V91H12.0563V80.8182H13.2296V84.5568H13.329C13.508 84.1624 13.7765 83.8492 14.1344 83.6172C14.4957 83.3819 14.9763 83.2642 15.5762 83.2642C16.0965 83.2642 16.5523 83.3686 16.9434 83.5774C17.3345 83.7829 17.6377 84.0994 17.8532 84.527C18.0719 84.9512 18.1813 85.4915 18.1813 86.1477V91H17.008V86.2273C17.008 85.6207 16.8506 85.1518 16.5357 84.8203C16.2241 84.4856 15.7916 84.3182 15.2381 84.3182C14.8536 84.3182 14.5089 84.3994 14.204 84.5618C13.9024 84.7242 13.6638 84.9612 13.4881 85.2727C13.3158 85.5843 13.2296 85.9621 13.2296 86.4062ZM23.5295 91.1591C22.7937 91.1591 22.159 90.9967 21.6254 90.6719C21.0951 90.3438 20.6857 89.8864 20.3974 89.2997C20.1123 88.7098 19.9698 88.0237 19.9698 87.2415C19.9698 86.4593 20.1123 85.7699 20.3974 85.1733C20.6857 84.5734 21.0868 84.1061 21.6005 83.7713C22.1175 83.4332 22.7208 83.2642 23.4102 83.2642C23.8079 83.2642 24.2006 83.3305 24.5884 83.4631C24.9762 83.5956 25.3292 83.8111 25.6474 84.1094C25.9656 84.4044 26.2191 84.7955 26.408 85.2827C26.5969 85.7699 26.6914 86.3698 26.6914 87.0824V87.5795H20.805V86.5653H25.4982C25.4982 86.1345 25.4121 85.75 25.2397 85.4119C25.0707 85.0739 24.8287 84.8071 24.5138 84.6115C24.2023 84.416 23.8344 84.3182 23.4102 84.3182C22.9428 84.3182 22.5385 84.4342 22.1971 84.6662C21.859 84.8949 21.5988 85.1932 21.4165 85.5611C21.2343 85.929 21.1431 86.3234 21.1431 86.7443V87.4205C21.1431 87.9972 21.2425 88.486 21.4414 88.8871C21.6436 89.2848 21.9237 89.5881 22.2816 89.7969C22.6396 90.0024 23.0555 90.1051 23.5295 90.1051C23.8377 90.1051 24.1161 90.062 24.3647 89.9759C24.6166 89.8864 24.8337 89.7538 25.016 89.5781C25.1983 89.3991 25.3391 89.1771 25.4386 88.9119L26.5721 89.2301C26.4528 89.6146 26.2522 89.9527 25.9705 90.2443C25.6888 90.5327 25.3408 90.758 24.9265 90.9205C24.5122 91.0795 24.0465 91.1591 23.5295 91.1591ZM32.4137 93.8636V83.3636H33.5472V84.5767H33.6864C33.7726 84.4441 33.8919 84.2751 34.0444 84.0696C34.2002 83.8608 34.4222 83.6752 34.7106 83.5128C35.0022 83.3471 35.3967 83.2642 35.8938 83.2642C36.5368 83.2642 37.1036 83.425 37.5941 83.7464C38.0846 84.0679 38.4674 84.5237 38.7425 85.1136C39.0176 85.7036 39.1552 86.3996 39.1552 87.2017C39.1552 88.0104 39.0176 88.7114 38.7425 89.3047C38.4674 89.8946 38.0863 90.352 37.5991 90.6768C37.1119 90.9983 36.5501 91.1591 35.9137 91.1591C35.4232 91.1591 35.0304 91.0779 34.7354 90.9155C34.4405 90.7498 34.2134 90.5625 34.0543 90.3537C33.8952 90.1416 33.7726 89.9659 33.6864 89.8267H33.587V93.8636H32.4137ZM33.5671 87.1818C33.5671 87.7585 33.6516 88.2673 33.8207 88.7081C33.9897 89.1456 34.2366 89.4886 34.5614 89.7372C34.8862 89.9825 35.284 90.1051 35.7546 90.1051C36.2451 90.1051 36.6545 89.9759 36.9826 89.7173C37.314 89.4555 37.5626 89.1042 37.7283 88.6634C37.8974 88.2192 37.9819 87.7254 37.9819 87.1818C37.9819 86.6449 37.899 86.161 37.7333 85.7301C37.5709 85.2959 37.324 84.9529 36.9925 84.701C36.6644 84.4458 36.2518 84.3182 35.7546 84.3182C35.2773 84.3182 34.8763 84.4392 34.5515 84.6811C34.2267 84.9197 33.9814 85.2545 33.8157 85.6854C33.65 86.1129 33.5671 86.6117 33.5671 87.1818ZM40.945 91V83.3636H42.0785V84.517H42.158C42.2972 84.1392 42.5491 83.8326 42.9137 83.5973C43.2783 83.362 43.6893 83.2443 44.1467 83.2443C44.2328 83.2443 44.3406 83.246 44.4698 83.2493C44.5991 83.2526 44.6969 83.2576 44.7631 83.2642V84.4574C44.7234 84.4474 44.6322 84.4325 44.4897 84.4126C44.3505 84.3894 44.203 84.3778 44.0472 84.3778C43.676 84.3778 43.3446 84.4557 43.0529 84.6115C42.7646 84.764 42.5359 84.9761 42.3668 85.2479C42.2011 85.5163 42.1183 85.8229 42.1183 86.1676V91H40.945ZM46.1539 91V83.3636H47.3272V91H46.1539ZM46.7505 82.0909C46.5218 82.0909 46.3246 82.013 46.1589 81.8572C45.9965 81.7015 45.9153 81.5142 45.9153 81.2955C45.9153 81.0767 45.9965 80.8894 46.1589 80.7337C46.3246 80.5779 46.5218 80.5 46.7505 80.5C46.9792 80.5 47.1748 80.5779 47.3372 80.7337C47.5029 80.8894 47.5858 81.0767 47.5858 81.2955C47.5858 81.5142 47.5029 81.7015 47.3372 81.8572C47.1748 82.013 46.9792 82.0909 46.7505 82.0909ZM52.5785 91.1591C51.8626 91.1591 51.2461 90.9901 50.729 90.652C50.212 90.3139 49.8143 89.8482 49.5359 89.255C49.2575 88.6617 49.1183 87.9839 49.1183 87.2216C49.1183 86.446 49.2608 85.7616 49.5458 85.1683C49.8342 84.5717 50.2352 84.1061 50.7489 83.7713C51.266 83.4332 51.8692 83.2642 52.5586 83.2642C53.0955 83.2642 53.5794 83.3636 54.0103 83.5625C54.4412 83.7614 54.7942 84.0398 55.0692 84.3977C55.3443 84.7557 55.515 85.1733 55.5813 85.6506H54.408C54.3185 85.3026 54.1197 84.9943 53.8114 84.7259C53.5065 84.4541 53.0955 84.3182 52.5785 84.3182C52.1211 84.3182 51.7201 84.4375 51.3754 84.6761C51.034 84.9115 50.7672 85.2446 50.5749 85.6754C50.386 86.103 50.2915 86.6051 50.2915 87.1818C50.2915 87.7718 50.3844 88.2855 50.57 88.723C50.7589 89.1605 51.024 89.5002 51.3654 89.7422C51.7101 89.9841 52.1145 90.1051 52.5785 90.1051C52.8834 90.1051 53.1602 90.0521 53.4087 89.946C53.6573 89.84 53.8678 89.6875 54.0401 89.4886C54.2125 89.2898 54.3351 89.0511 54.408 88.7727H55.5813C55.515 89.2235 55.351 89.6295 55.0891 89.9908C54.8306 90.3487 54.4876 90.6338 54.06 90.8459C53.6358 91.0547 53.1419 91.1591 52.5785 91.1591ZM60.4982 91.1591C59.7624 91.1591 59.1277 90.9967 58.5941 90.6719C58.0638 90.3438 57.6545 89.8864 57.3661 89.2997C57.0811 88.7098 56.9386 88.0237 56.9386 87.2415C56.9386 86.4593 57.0811 85.7699 57.3661 85.1733C57.6545 84.5734 58.0555 84.1061 58.5692 83.7713C59.0863 83.4332 59.6895 83.2642 60.3789 83.2642C60.7766 83.2642 61.1694 83.3305 61.5572 83.4631C61.945 83.5956 62.2979 83.8111 62.6161 84.1094C62.9343 84.4044 63.1879 84.7955 63.3768 85.2827C63.5657 85.7699 63.6602 86.3698 63.6602 87.0824V87.5795H57.7738V86.5653H62.467C62.467 86.1345 62.3808 85.75 62.2085 85.4119C62.0394 85.0739 61.7975 84.8071 61.4826 84.6115C61.171 84.416 60.8031 84.3182 60.3789 84.3182C59.9116 84.3182 59.5072 84.4342 59.1658 84.6662C58.8278 84.8949 58.5676 85.1932 58.3853 85.5611C58.203 85.929 58.1119 86.3234 58.1119 86.7443V87.4205C58.1119 87.9972 58.2113 88.486 58.4102 88.8871C58.6123 89.2848 58.8924 89.5881 59.2504 89.7969C59.6083 90.0024 60.0243 90.1051 60.4982 90.1051C60.8065 90.1051 61.0849 90.062 61.3335 89.9759C61.5853 89.8864 61.8024 89.7538 61.9847 89.5781C62.167 89.3991 62.3079 89.1771 62.4073 88.9119L63.5408 89.2301C63.4215 89.6146 63.221 89.9527 62.9393 90.2443C62.6576 90.5327 62.3095 90.758 61.8952 90.9205C61.4809 91.0795 61.0153 91.1591 60.4982 91.1591ZM69.3825 91V83.3636H70.5558V91H69.3825ZM69.979 82.0909C69.7504 82.0909 69.5531 82.013 69.3874 81.8572C69.225 81.7015 69.1438 81.5142 69.1438 81.2955C69.1438 81.0767 69.225 80.8894 69.3874 80.7337C69.5531 80.5779 69.7504 80.5 69.979 80.5C70.2077 80.5 70.4033 80.5779 70.5657 80.7337C70.7314 80.8894 70.8143 81.0767 70.8143 81.2955C70.8143 81.5142 70.7314 81.7015 70.5657 81.8572C70.4033 82.013 70.2077 82.0909 69.979 82.0909ZM78.1138 85.0739L77.0598 85.3722C76.9935 85.1965 76.8958 85.0258 76.7665 84.8601C76.6406 84.6911 76.4682 84.5518 76.2495 84.4425C76.0307 84.3331 75.7507 84.2784 75.4093 84.2784C74.9419 84.2784 74.5525 84.3861 74.2409 84.6016C73.9327 84.8137 73.7786 85.0838 73.7786 85.4119C73.7786 85.7036 73.8846 85.9339 74.0968 86.103C74.3089 86.272 74.6403 86.4129 75.0911 86.5256L76.2246 86.804C76.9074 86.9697 77.4161 87.2232 77.7509 87.5646C78.0856 87.9027 78.253 88.3385 78.253 88.8722C78.253 89.3097 78.1271 89.7008 77.8752 90.0455C77.6266 90.3902 77.2786 90.6619 76.8311 90.8608C76.3837 91.0597 75.8633 91.1591 75.2701 91.1591C74.4912 91.1591 73.8465 90.9901 73.3361 90.652C72.8257 90.3139 72.5025 89.8201 72.3667 89.1705L73.4803 88.892C73.5864 89.303 73.7869 89.6113 74.0819 89.8168C74.3801 90.0223 74.7696 90.125 75.2502 90.125C75.7971 90.125 76.2312 90.009 76.5527 89.777C76.8775 89.5417 77.04 89.2599 77.04 88.9318C77.04 88.6667 76.9471 88.4446 76.7615 88.2656C76.5759 88.0833 76.2909 87.9474 75.9064 87.858L74.6337 87.5597C73.9344 87.3939 73.4206 87.1371 73.0925 86.7891C72.7677 86.4377 72.6053 85.9986 72.6053 85.4716C72.6053 85.0407 72.7263 84.6596 72.9682 84.3281C73.2135 83.9967 73.5466 83.7365 73.9675 83.5476C74.3917 83.3587 74.8723 83.2642 75.4093 83.2642C76.165 83.2642 76.7582 83.4299 77.1891 83.7614C77.6233 84.0928 77.9315 84.5303 78.1138 85.0739ZM85.13 86.4062V91H83.9567V83.3636H85.0902V84.5568H85.1896C85.3686 84.169 85.6404 83.8575 86.005 83.6222C86.3696 83.3835 86.8402 83.2642 87.4169 83.2642C87.9339 83.2642 88.3864 83.3703 88.7741 83.5824C89.1619 83.7912 89.4635 84.1094 89.679 84.5369C89.8944 84.9612 90.0021 85.4981 90.0021 86.1477V91H88.8288V86.2273C88.8288 85.6274 88.6731 85.16 88.3615 84.8253C88.05 84.4872 87.6224 84.3182 87.0788 84.3182C86.7043 84.3182 86.3696 84.3994 86.0746 84.5618C85.7829 84.7242 85.5526 84.9612 85.3835 85.2727C85.2145 85.5843 85.13 85.9621 85.13 86.4062ZM95.2484 91.1591C94.559 91.1591 93.9541 90.995 93.4338 90.6669C92.9167 90.3388 92.5124 89.8797 92.2207 89.2898C91.9324 88.6998 91.7882 88.0104 91.7882 87.2216C91.7882 86.4261 91.9324 85.7318 92.2207 85.1385C92.5124 84.5452 92.9167 84.0845 93.4338 83.7564C93.9541 83.4283 94.559 83.2642 95.2484 83.2642C95.9378 83.2642 96.541 83.4283 97.0581 83.7564C97.5784 84.0845 97.9828 84.5452 98.2711 85.1385C98.5628 85.7318 98.7086 86.4261 98.7086 87.2216C98.7086 88.0104 98.5628 88.6998 98.2711 89.2898C97.9828 89.8797 97.5784 90.3388 97.0581 90.6669C96.541 90.995 95.9378 91.1591 95.2484 91.1591ZM95.2484 90.1051C95.7721 90.1051 96.2029 89.9709 96.541 89.7024C96.8791 89.4339 97.1293 89.081 97.2917 88.6435C97.4541 88.206 97.5353 87.732 97.5353 87.2216C97.5353 86.7112 97.4541 86.2356 97.2917 85.7947C97.1293 85.3539 96.8791 84.9976 96.541 84.7259C96.2029 84.4541 95.7721 84.3182 95.2484 84.3182C94.7247 84.3182 94.2939 84.4541 93.9558 84.7259C93.6177 84.9976 93.3675 85.3539 93.2051 85.7947C93.0427 86.2356 92.9615 86.7112 92.9615 87.2216C92.9615 87.732 93.0427 88.206 93.2051 88.6435C93.3675 89.081 93.6177 89.4339 93.9558 89.7024C94.2939 89.9709 94.7247 90.1051 95.2484 90.1051ZM103.821 83.3636V84.358H99.8633V83.3636H103.821ZM101.017 81.5341H102.19V88.8125C102.19 89.1439 102.238 89.3925 102.334 89.5582C102.434 89.7206 102.56 89.83 102.712 89.8864C102.868 89.9394 103.032 89.9659 103.204 89.9659C103.333 89.9659 103.44 89.9593 103.522 89.946C103.605 89.9295 103.672 89.9162 103.721 89.9062L103.96 90.9602C103.88 90.9901 103.769 91.0199 103.627 91.0497C103.484 91.0829 103.304 91.0994 103.085 91.0994C102.753 91.0994 102.429 91.0282 102.11 90.8857C101.796 90.7431 101.534 90.526 101.325 90.2344C101.119 89.9427 101.017 89.5748 101.017 89.1307V81.5341ZM115.767 83.3636L112.944 91H111.75L108.926 83.3636H110.199L112.307 89.4489H112.387L114.495 83.3636H115.767ZM119.331 91.179C118.847 91.179 118.408 91.0878 118.013 90.9055C117.619 90.7199 117.306 90.4531 117.074 90.1051C116.842 89.7538 116.726 89.3295 116.726 88.8324C116.726 88.3949 116.812 88.0402 116.984 87.7685C117.157 87.4934 117.387 87.2779 117.675 87.1222C117.964 86.9664 118.282 86.8504 118.63 86.7741C118.981 86.6946 119.334 86.6316 119.689 86.5852C120.153 86.5256 120.529 86.4808 120.817 86.451C121.109 86.4179 121.321 86.3632 121.454 86.2869C121.59 86.2107 121.657 86.0781 121.657 85.8892V85.8494C121.657 85.3589 121.523 84.9777 121.255 84.706C120.99 84.4342 120.587 84.2983 120.047 84.2983C119.487 84.2983 119.047 84.4209 118.729 84.6662C118.411 84.9115 118.187 85.1733 118.058 85.4517L116.944 85.054C117.143 84.59 117.408 84.2287 117.74 83.9702C118.075 83.7083 118.439 83.526 118.834 83.4233C119.231 83.3172 119.622 83.2642 120.007 83.2642C120.252 83.2642 120.534 83.294 120.852 83.3537C121.174 83.41 121.483 83.5277 121.782 83.7067C122.083 83.8857 122.334 84.1558 122.532 84.517C122.731 84.8783 122.831 85.3622 122.831 85.9688V91H121.657V89.9659H121.598C121.518 90.1316 121.386 90.3089 121.2 90.4979C121.015 90.6868 120.768 90.8475 120.459 90.9801C120.151 91.1127 119.775 91.179 119.331 91.179ZM119.51 90.125C119.974 90.125 120.365 90.0339 120.683 89.8516C121.005 89.6693 121.247 89.4339 121.409 89.1456C121.575 88.8572 121.657 88.554 121.657 88.2358V87.1619C121.608 87.2216 121.498 87.2763 121.329 87.326C121.164 87.3724 120.971 87.4138 120.753 87.4503C120.537 87.4834 120.327 87.5133 120.121 87.5398C119.919 87.563 119.755 87.5829 119.629 87.5994C119.324 87.6392 119.039 87.7038 118.774 87.7933C118.512 87.8795 118.3 88.0104 118.138 88.1861C117.979 88.3584 117.899 88.5937 117.899 88.892C117.899 89.2997 118.05 89.608 118.351 89.8168C118.656 90.0223 119.042 90.125 119.51 90.125ZM126.146 80.8182V91H124.972V80.8182H126.146ZM128.295 91V83.3636H129.468V91H128.295ZM128.891 82.0909C128.662 82.0909 128.465 82.013 128.3 81.8572C128.137 81.7015 128.056 81.5142 128.056 81.2955C128.056 81.0767 128.137 80.8894 128.3 80.7337C128.465 80.5779 128.662 80.5 128.891 80.5C129.12 80.5 129.315 80.5779 129.478 80.7337C129.644 80.8894 129.726 81.0767 129.726 81.2955C129.726 81.5142 129.644 81.7015 129.478 81.8572C129.315 82.013 129.12 82.0909 128.891 82.0909ZM134.5 91.1591C133.864 91.1591 133.302 90.9983 132.815 90.6768C132.328 90.352 131.947 89.8946 131.672 89.3047C131.396 88.7114 131.259 88.0104 131.259 87.2017C131.259 86.3996 131.396 85.7036 131.672 85.1136C131.947 84.5237 132.329 84.0679 132.82 83.7464C133.31 83.425 133.877 83.2642 134.52 83.2642C135.017 83.2642 135.41 83.3471 135.699 83.5128C135.99 83.6752 136.212 83.8608 136.365 84.0696C136.52 84.2751 136.641 84.4441 136.728 84.5767H136.827V80.8182H138V91H136.867V89.8267H136.728C136.641 89.9659 136.519 90.1416 136.36 90.3537C136.201 90.5625 135.974 90.7498 135.679 90.9155C135.384 91.0779 134.991 91.1591 134.5 91.1591ZM134.659 90.1051C135.13 90.1051 135.528 89.9825 135.853 89.7372C136.177 89.4886 136.424 89.1456 136.593 88.7081C136.762 88.2673 136.847 87.7585 136.847 87.1818C136.847 86.6117 136.764 86.1129 136.598 85.6854C136.433 85.2545 136.187 84.9197 135.863 84.6811C135.538 84.4392 135.137 84.3182 134.659 84.3182C134.162 84.3182 133.748 84.4458 133.417 84.701C133.088 84.9529 132.842 85.2959 132.676 85.7301C132.513 86.161 132.432 86.6449 132.432 87.1818C132.432 87.7254 132.515 88.2192 132.681 88.6634C132.85 89.1042 133.098 89.4555 133.426 89.7173C133.758 89.9759 134.169 90.1051 134.659 90.1051Z" fill="#F04438"/>
<path d="M304.119 15V4.81818H307.748C308.54 4.81818 309.196 4.96236 309.717 5.25071C310.237 5.53906 310.626 5.93347 310.885 6.43395C311.143 6.93111 311.273 7.49124 311.273 8.11435C311.273 8.74077 311.142 9.30421 310.88 9.80469C310.621 10.3018 310.23 10.6963 309.707 10.9879C309.186 11.2763 308.532 11.4205 307.743 11.4205H305.247V10.1179H307.604C308.104 10.1179 308.51 10.0317 308.822 9.85938C309.133 9.68371 309.362 9.44508 309.508 9.14347C309.654 8.84186 309.727 8.49882 309.727 8.11435C309.727 7.72988 309.654 7.38849 309.508 7.0902C309.362 6.7919 309.132 6.55824 308.817 6.3892C308.505 6.22017 308.094 6.13565 307.584 6.13565H305.655V15H304.119ZM312.954 15V7.36364H314.391V8.5767H314.471C314.61 8.16572 314.855 7.84257 315.206 7.60724C315.561 7.36861 315.962 7.24929 316.41 7.24929C316.502 7.24929 316.612 7.2526 316.738 7.25923C316.867 7.26586 316.968 7.27415 317.041 7.28409V8.70597C316.981 8.68939 316.875 8.67116 316.723 8.65128C316.57 8.62808 316.418 8.61648 316.265 8.61648C315.914 8.61648 315.601 8.69105 315.326 8.8402C315.054 8.98603 314.839 9.18987 314.68 9.4517C314.52 9.71023 314.441 10.0052 314.441 10.3366V15H312.954ZM318.327 15V7.36364H319.814V15H318.327ZM319.078 6.18537C318.82 6.18537 318.598 6.09919 318.412 5.92685C318.23 5.75118 318.138 5.54238 318.138 5.30043C318.138 5.05516 318.23 4.84635 318.412 4.67401C318.598 4.49834 318.82 4.41051 319.078 4.41051C319.337 4.41051 319.557 4.49834 319.739 4.67401C319.925 4.84635 320.018 5.05516 320.018 5.30043C320.018 5.54238 319.925 5.75118 319.739 5.92685C319.557 6.09919 319.337 6.18537 319.078 6.18537ZM325.03 15.1541C324.291 15.1541 323.655 14.9867 323.121 14.652C322.591 14.3139 322.183 13.8482 321.898 13.255C321.613 12.6617 321.471 11.9822 321.471 11.2166C321.471 10.4411 321.617 9.75663 321.908 9.16335C322.2 8.56676 322.611 8.10109 323.141 7.76633C323.671 7.43158 324.296 7.2642 325.015 7.2642C325.595 7.2642 326.113 7.37192 326.567 7.58736C327.021 7.79948 327.387 8.09777 327.665 8.48224C327.947 8.86671 328.114 9.31581 328.167 9.82955H326.721C326.641 9.47159 326.459 9.16335 326.174 8.90483C325.892 8.64631 325.514 8.51705 325.04 8.51705C324.626 8.51705 324.263 8.62642 323.952 8.84517C323.643 9.06061 323.403 9.36884 323.231 9.76989C323.058 10.1676 322.972 10.6383 322.972 11.1818C322.972 11.7386 323.057 12.2192 323.226 12.6236C323.395 13.0279 323.633 13.3411 323.942 13.5632C324.253 13.7853 324.619 13.8963 325.04 13.8963C325.322 13.8963 325.577 13.8449 325.806 13.7422C326.038 13.6361 326.232 13.4853 326.388 13.2898C326.547 13.0942 326.658 12.8589 326.721 12.5838H328.167C328.114 13.0777 327.954 13.5185 327.685 13.9062C327.417 14.294 327.057 14.599 326.606 14.821C326.159 15.0431 325.634 15.1541 325.03 15.1541ZM333.048 15.1541C332.296 15.1541 331.648 14.9934 331.104 14.6719C330.564 14.3471 330.147 13.8913 329.852 13.3047C329.56 12.7147 329.414 12.0237 329.414 11.2315C329.414 10.4493 329.56 9.75994 329.852 9.16335C330.147 8.56676 330.558 8.10109 331.085 7.76633C331.615 7.43158 332.235 7.2642 332.944 7.2642C333.375 7.2642 333.792 7.33546 334.197 7.47798C334.601 7.6205 334.964 7.84422 335.286 8.14915C335.607 8.45407 335.861 8.85014 336.046 9.33736C336.232 9.82126 336.325 10.4096 336.325 11.1023V11.6293H330.254V10.5156H334.868C334.868 10.1245 334.788 9.77817 334.629 9.47656C334.47 9.17164 334.246 8.93134 333.958 8.75568C333.673 8.58002 333.338 8.49219 332.954 8.49219C332.536 8.49219 332.172 8.59493 331.86 8.80043C331.552 9.0026 331.313 9.26776 331.144 9.59588C330.978 9.92069 330.896 10.2737 330.896 10.6548V11.5249C330.896 12.0353 330.985 12.4695 331.164 12.8274C331.346 13.1854 331.6 13.4588 331.925 13.6477C332.25 13.8333 332.629 13.9261 333.063 13.9261C333.345 13.9261 333.602 13.8864 333.834 13.8068C334.066 13.724 334.266 13.6013 334.435 13.4389C334.604 13.2765 334.734 13.076 334.823 12.8374L336.23 13.0909C336.117 13.5052 335.915 13.8681 335.624 14.1797C335.335 14.4879 334.972 14.7282 334.535 14.9006C334.101 15.0696 333.605 15.1541 333.048 15.1541Z" fill="#344054"/>
<g filter="url(#filter1_d_6833_16216)">
<rect x="303" y="26" width="94.75" height="44" rx="8" fill="white"/>
<rect x="303.5" y="26.5" width="93.75" height="43" rx="7.5" stroke="#D0D5DD"/>
<path d="M322 54.1591C321.144 54.1591 320.415 53.9261 319.812 53.4602C319.21 52.9905 318.75 52.3106 318.432 51.4205C318.114 50.5265 317.955 49.447 317.955 48.1818C317.955 46.9242 318.114 45.8504 318.432 44.9602C318.754 44.0663 319.216 43.3845 319.818 42.9148C320.424 42.4413 321.152 42.2045 322 42.2045C322.848 42.2045 323.574 42.4413 324.176 42.9148C324.782 43.3845 325.244 44.0663 325.562 44.9602C325.884 45.8504 326.045 46.9242 326.045 48.1818C326.045 49.447 325.886 50.5265 325.568 51.4205C325.25 52.3106 324.79 52.9905 324.188 53.4602C323.585 53.9261 322.856 54.1591 322 54.1591ZM322 52.9091C322.848 52.9091 323.508 52.5 323.977 51.6818C324.447 50.8636 324.682 49.697 324.682 48.1818C324.682 47.1742 324.574 46.3163 324.358 45.608C324.146 44.8996 323.839 44.3598 323.438 43.9886C323.04 43.6174 322.561 43.4318 322 43.4318C321.159 43.4318 320.502 43.8466 320.028 44.6761C319.555 45.5019 319.318 46.6705 319.318 48.1818C319.318 49.1894 319.424 50.0455 319.636 50.75C319.848 51.4545 320.153 51.9905 320.551 52.358C320.953 52.7254 321.436 52.9091 322 52.9091Z" fill="#667085"/>
<path d="M376.25 45.5003L371.25 50.5003M371.25 45.5003L376.25 50.5003M382.084 48.0003C382.084 52.6027 378.353 56.3337 373.75 56.3337C369.148 56.3337 365.417 52.6027 365.417 48.0003C365.417 43.398 369.148 39.667 373.75 39.667C378.353 39.667 382.084 43.398 382.084 48.0003Z" stroke="#F04438" stroke-width="1.66667" stroke-linecap="round" stroke-linejoin="round"/>
</g>
<path d="M412.612 11.6989H414.124L415.188 13.0859L415.69 13.7024L417.385 15.9148H415.814L414.68 14.4382L414.293 13.9013L412.612 11.6989ZM417.713 9.90909C417.713 10.9962 417.514 11.9309 417.116 12.7131C416.719 13.492 416.174 14.0919 415.481 14.5128C414.791 14.9304 414.008 15.1392 413.129 15.1392C412.248 15.1392 411.46 14.9304 410.768 14.5128C410.078 14.0919 409.535 13.4903 409.137 12.7081C408.739 11.9259 408.54 10.9929 408.54 9.90909C408.54 8.82197 408.739 7.88897 409.137 7.11008C409.535 6.32789 410.078 5.72798 410.768 5.31037C411.46 4.88944 412.248 4.67898 413.129 4.67898C414.008 4.67898 414.791 4.88944 415.481 5.31037C416.174 5.72798 416.719 6.32789 417.116 7.11008C417.514 7.88897 417.713 8.82197 417.713 9.90909ZM416.192 9.90909C416.192 9.08049 416.058 8.38281 415.789 7.81605C415.524 7.24598 415.159 6.8151 414.695 6.52344C414.235 6.22846 413.713 6.08097 413.129 6.08097C412.543 6.08097 412.019 6.22846 411.558 6.52344C411.098 6.8151 410.733 7.24598 410.464 7.81605C410.199 8.38281 410.067 9.08049 410.067 9.90909C410.067 10.7377 410.199 11.437 410.464 12.0071C410.733 12.5739 411.098 13.0047 411.558 13.2997C412.019 13.5914 412.543 13.7372 413.129 13.7372C413.713 13.7372 414.235 13.5914 414.695 13.2997C415.159 13.0047 415.524 12.5739 415.789 12.0071C416.058 11.437 416.192 10.7377 416.192 9.90909ZM423.074 7.36364V8.55682H418.903V7.36364H423.074ZM420.021 5.53409H421.508V12.7578C421.508 13.0462 421.551 13.2633 421.637 13.4091C421.723 13.5516 421.834 13.6494 421.97 13.7024C422.109 13.7521 422.26 13.777 422.422 13.777C422.542 13.777 422.646 13.7687 422.736 13.7521C422.825 13.7356 422.895 13.7223 422.944 13.7124L423.213 14.9403C423.127 14.9735 423.004 15.0066 422.845 15.0398C422.686 15.0762 422.487 15.0961 422.248 15.0994C421.857 15.1061 421.493 15.0365 421.155 14.8906C420.817 14.7448 420.543 14.5194 420.334 14.2145C420.126 13.9096 420.021 13.5268 420.021 13.0661V5.53409ZM425.658 17.8636C425.436 17.8636 425.233 17.8454 425.051 17.8089C424.869 17.7758 424.733 17.7393 424.643 17.6996L425.001 16.4815C425.273 16.5545 425.515 16.5859 425.727 16.576C425.939 16.5661 426.127 16.4865 426.289 16.3374C426.455 16.1882 426.601 15.9446 426.727 15.6065L426.911 15.0994L424.116 7.36364H425.707L427.641 13.2898H427.721L429.655 7.36364H431.251L428.104 16.0192C427.958 16.4169 427.772 16.7533 427.547 17.0284C427.321 17.3068 427.053 17.5156 426.741 17.6548C426.43 17.794 426.069 17.8636 425.658 17.8636Z" fill="#344054"/>
<g filter="url(#filter2_d_6833_16216)">
<rect x="407.75" y="26" width="94.75" height="44" rx="8" fill="white"/>
<rect x="408.25" y="26.5" width="93.75" height="43" rx="7.5" stroke="#D0D5DD"/>
<path d="M422.955 54V52.9773L426.795 48.7727C427.246 48.2803 427.617 47.8523 427.909 47.4886C428.201 47.1212 428.417 46.7765 428.557 46.4545C428.701 46.1288 428.773 45.7879 428.773 45.4318C428.773 45.0227 428.674 44.6686 428.477 44.3693C428.284 44.0701 428.019 43.839 427.682 43.6761C427.345 43.5133 426.966 43.4318 426.545 43.4318C426.098 43.4318 425.708 43.5246 425.375 43.7102C425.045 43.892 424.79 44.1477 424.608 44.4773C424.43 44.8068 424.341 45.1932 424.341 45.6364H423C423 44.9545 423.157 44.3561 423.472 43.8409C423.786 43.3258 424.214 42.9242 424.756 42.6364C425.301 42.3485 425.913 42.2045 426.591 42.2045C427.273 42.2045 427.877 42.3485 428.403 42.6364C428.93 42.9242 429.343 43.3125 429.642 43.8011C429.941 44.2898 430.091 44.8333 430.091 45.4318C430.091 45.8598 430.013 46.2784 429.858 46.6875C429.706 47.0928 429.441 47.5455 429.062 48.0455C428.688 48.5417 428.167 49.1477 427.5 49.8636L424.886 52.6591V52.75H430.295V54H422.955Z" fill="#667085"/>
</g>
<path d="M516.915 15H513.619V4.81818H517.019C518.017 4.81818 518.874 5.02202 519.589 5.42969C520.305 5.83404 520.854 6.41572 521.235 7.17472C521.62 7.9304 521.812 8.83688 521.812 9.89418C521.812 10.9548 521.618 11.8662 521.23 12.6286C520.846 13.3909 520.289 13.9775 519.56 14.3885C518.83 14.7962 517.949 15 516.915 15ZM515.155 13.6577H516.83C517.606 13.6577 518.25 13.5118 518.764 13.2202C519.278 12.9252 519.662 12.4993 519.918 11.9425C520.173 11.3823 520.3 10.6996 520.3 9.89418C520.3 9.09541 520.173 8.41761 519.918 7.8608C519.666 7.30398 519.29 6.88139 518.789 6.59304C518.289 6.30469 517.667 6.16051 516.925 6.16051H515.155V13.6577ZM523.603 15V7.36364H525.089V15H523.603ZM524.354 6.18537C524.095 6.18537 523.873 6.09919 523.687 5.92685C523.505 5.75118 523.414 5.54238 523.414 5.30043C523.414 5.05516 523.505 4.84635 523.687 4.67401C523.873 4.49834 524.095 4.41051 524.354 4.41051C524.612 4.41051 524.832 4.49834 525.015 4.67401C525.2 4.84635 525.293 5.05516 525.293 5.30043C525.293 5.54238 525.2 5.75118 525.015 5.92685C524.832 6.09919 524.612 6.18537 524.354 6.18537ZM532.811 9.22798L531.464 9.46662C531.408 9.29427 531.318 9.13021 531.196 8.97443C531.076 8.81865 530.914 8.69105 530.708 8.59162C530.503 8.49219 530.246 8.44247 529.938 8.44247C529.517 8.44247 529.166 8.53693 528.884 8.72585C528.602 8.91146 528.461 9.15175 528.461 9.44673C528.461 9.70194 528.556 9.90743 528.745 10.0632C528.934 10.219 529.239 10.3466 529.659 10.446L530.873 10.7244C531.575 10.8868 532.099 11.1371 532.444 11.4751C532.788 11.8132 532.961 12.2524 532.961 12.7926C532.961 13.25 532.828 13.6577 532.563 14.0156C532.301 14.3703 531.935 14.6487 531.464 14.8509C530.997 15.053 530.455 15.1541 529.838 15.1541C528.983 15.1541 528.286 14.9718 527.745 14.6072C527.205 14.2393 526.874 13.7173 526.751 13.0412L528.188 12.8224C528.277 13.197 528.461 13.4804 528.74 13.6726C529.018 13.8615 529.381 13.956 529.828 13.956C530.316 13.956 530.705 13.8549 530.997 13.6527C531.288 13.4472 531.434 13.197 531.434 12.902C531.434 12.6634 531.345 12.4628 531.166 12.3004C530.99 12.138 530.72 12.0154 530.355 11.9325L529.063 11.6491C528.35 11.4867 527.823 11.2282 527.482 10.8736C527.144 10.5189 526.975 10.0698 526.975 9.52628C526.975 9.07552 527.101 8.68111 527.353 8.34304C527.605 8.00497 527.953 7.74148 528.397 7.55256C528.841 7.36032 529.35 7.2642 529.923 7.2642C530.748 7.2642 531.398 7.44318 531.872 7.80114C532.346 8.15578 532.659 8.63139 532.811 9.22798ZM537.812 15.1541C537.073 15.1541 536.436 14.9867 535.903 14.652C535.372 14.3139 534.965 13.8482 534.68 13.255C534.394 12.6617 534.252 11.9822 534.252 11.2166C534.252 10.4411 534.398 9.75663 534.689 9.16335C534.981 8.56676 535.392 8.10109 535.922 7.76633C536.453 7.43158 537.077 7.2642 537.797 7.2642C538.377 7.2642 538.894 7.37192 539.348 7.58736C539.802 7.79948 540.168 8.09777 540.447 8.48224C540.728 8.86671 540.896 9.31581 540.949 9.82955H539.502C539.422 9.47159 539.24 9.16335 538.955 8.90483C538.673 8.64631 538.296 8.51705 537.822 8.51705C537.407 8.51705 537.044 8.62642 536.733 8.84517C536.425 9.06061 536.184 9.36884 536.012 9.76989C535.84 10.1676 535.753 10.6383 535.753 11.1818C535.753 11.7386 535.838 12.2192 536.007 12.6236C536.176 13.0279 536.415 13.3411 536.723 13.5632C537.034 13.7853 537.401 13.8963 537.822 13.8963C538.103 13.8963 538.358 13.8449 538.587 13.7422C538.819 13.6361 539.013 13.4853 539.169 13.2898C539.328 13.0942 539.439 12.8589 539.502 12.5838H540.949C540.896 13.0777 540.735 13.5185 540.466 13.9062C540.198 14.294 539.838 14.599 539.388 14.821C538.94 15.0431 538.415 15.1541 537.812 15.1541ZM545.755 15.1541C545.039 15.1541 544.414 14.9901 543.881 14.6619C543.347 14.3338 542.933 13.8748 542.638 13.2848C542.343 12.6948 542.195 12.0054 542.195 11.2166C542.195 10.4245 542.343 9.73177 542.638 9.13849C542.933 8.54522 543.347 8.08452 543.881 7.75639C544.414 7.42827 545.039 7.2642 545.755 7.2642C546.471 7.2642 547.096 7.42827 547.629 7.75639C548.163 8.08452 548.577 8.54522 548.872 9.13849C549.167 9.73177 549.315 10.4245 549.315 11.2166C549.315 12.0054 549.167 12.6948 548.872 13.2848C548.577 13.8748 548.163 14.3338 547.629 14.6619C547.096 14.9901 546.471 15.1541 545.755 15.1541ZM545.76 13.9062C546.224 13.9062 546.608 13.7836 546.913 13.5384C547.218 13.2931 547.444 12.9666 547.589 12.5589C547.739 12.1513 547.813 11.7022 547.813 11.2116C547.813 10.7244 547.739 10.277 547.589 9.86932C547.444 9.45833 547.218 9.12855 546.913 8.87997C546.608 8.63139 546.224 8.5071 545.76 8.5071C545.293 8.5071 544.905 8.63139 544.597 8.87997C544.292 9.12855 544.065 9.45833 543.915 9.86932C543.77 10.277 543.697 10.7244 543.697 11.2116C543.697 11.7022 543.77 12.1513 543.915 12.5589C544.065 12.9666 544.292 13.2931 544.597 13.5384C544.905 13.7836 545.293 13.9062 545.76 13.9062ZM555.811 11.8331V7.36364H557.303V15H555.841V13.6776H555.762C555.586 14.0852 555.304 14.425 554.916 14.6967C554.532 14.9652 554.053 15.0994 553.48 15.0994C552.989 15.0994 552.555 14.9917 552.177 14.7763C551.802 14.5575 551.508 14.2344 551.292 13.8068C551.08 13.3793 550.974 12.8506 550.974 12.2209V7.36364H552.46V12.0419C552.46 12.5623 552.605 12.9766 552.893 13.2848C553.181 13.593 553.556 13.7472 554.017 13.7472C554.295 13.7472 554.572 13.6776 554.847 13.5384C555.125 13.3991 555.356 13.1887 555.538 12.907C555.723 12.6252 555.815 12.2673 555.811 11.8331ZM560.787 10.4659V15H559.3V7.36364H560.727V8.60653H560.821C560.997 8.20218 561.272 7.87737 561.647 7.6321C562.025 7.38684 562.5 7.2642 563.074 7.2642C563.594 7.2642 564.05 7.37358 564.441 7.59233C564.832 7.80777 565.135 8.12926 565.35 8.55682C565.566 8.98437 565.674 9.51302 565.674 10.1428V15H564.187V10.3217C564.187 9.76823 564.043 9.3357 563.755 9.02415C563.466 8.70928 563.07 8.55185 562.566 8.55185C562.222 8.55185 561.915 8.62642 561.647 8.77557C561.382 8.92472 561.171 9.14347 561.015 9.43182C560.863 9.71686 560.787 10.0616 560.787 10.4659ZM571.232 7.36364V8.55682H567.061V7.36364H571.232ZM568.179 5.53409H569.666V12.7578C569.666 13.0462 569.709 13.2633 569.795 13.4091C569.881 13.5516 569.992 13.6494 570.128 13.7024C570.267 13.7521 570.418 13.777 570.581 13.777C570.7 13.777 570.804 13.7687 570.894 13.7521C570.983 13.7356 571.053 13.7223 571.103 13.7124L571.371 14.9403C571.285 14.9735 571.162 15.0066 571.003 15.0398C570.844 15.0762 570.645 15.0961 570.407 15.0994C570.016 15.1061 569.651 15.0365 569.313 14.8906C568.975 14.7448 568.701 14.5194 568.493 14.2145C568.284 13.9096 568.179 13.5268 568.179 13.0661V5.53409Z" fill="#344054"/>
<g filter="url(#filter3_d_6833_16216)">
<rect x="512.5" y="26" width="94.75" height="44" rx="8" fill="white"/>
<rect x="513" y="26.5" width="93.75" height="43" rx="7.5" stroke="#D0D5DD"/>
<path d="M531.5 54.1591C530.644 54.1591 529.915 53.9261 529.312 53.4602C528.71 52.9905 528.25 52.3106 527.932 51.4205C527.614 50.5265 527.455 49.447 527.455 48.1818C527.455 46.9242 527.614 45.8504 527.932 44.9602C528.254 44.0663 528.716 43.3845 529.318 42.9148C529.924 42.4413 530.652 42.2045 531.5 42.2045C532.348 42.2045 533.074 42.4413 533.676 42.9148C534.282 43.3845 534.744 44.0663 535.062 44.9602C535.384 45.8504 535.545 46.9242 535.545 48.1818C535.545 49.447 535.386 50.5265 535.068 51.4205C534.75 52.3106 534.29 52.9905 533.688 53.4602C533.085 53.9261 532.356 54.1591 531.5 54.1591ZM531.5 52.9091C532.348 52.9091 533.008 52.5 533.477 51.6818C533.947 50.8636 534.182 49.697 534.182 48.1818C534.182 47.1742 534.074 46.3163 533.858 45.608C533.646 44.8996 533.339 44.3598 532.938 43.9886C532.54 43.6174 532.061 43.4318 531.5 43.4318C530.659 43.4318 530.002 43.8466 529.528 44.6761C529.055 45.5019 528.818 46.6705 528.818 48.1818C528.818 49.1894 528.924 50.0455 529.136 50.75C529.348 51.4545 529.653 51.9905 530.051 52.358C530.453 52.7254 530.936 52.9091 531.5 52.9091ZM543.636 51.8182V51.2045C543.636 50.7803 543.723 50.392 543.898 50.0398C544.076 49.6837 544.333 49.3996 544.67 49.1875C545.011 48.9716 545.424 48.8636 545.909 48.8636C546.402 48.8636 546.814 48.9716 547.148 49.1875C547.481 49.3996 547.733 49.6837 547.903 50.0398C548.074 50.392 548.159 50.7803 548.159 51.2045V51.8182C548.159 52.2424 548.072 52.6326 547.898 52.9886C547.727 53.3409 547.473 53.625 547.136 53.8409C546.803 54.053 546.394 54.1591 545.909 54.1591C545.417 54.1591 545.002 54.053 544.665 53.8409C544.328 53.625 544.072 53.3409 543.898 52.9886C543.723 52.6326 543.636 52.2424 543.636 51.8182ZM544.795 51.2045V51.8182C544.795 52.1705 544.879 52.4867 545.045 52.767C545.212 53.0436 545.5 53.1818 545.909 53.1818C546.307 53.1818 546.587 53.0436 546.75 52.767C546.917 52.4867 547 52.1705 547 51.8182V51.2045C547 50.8523 546.92 50.5379 546.761 50.2614C546.602 49.9811 546.318 49.8409 545.909 49.8409C545.511 49.8409 545.225 49.9811 545.051 50.2614C544.881 50.5379 544.795 50.8523 544.795 51.2045ZM537.841 45.1591V44.5455C537.841 44.1212 537.928 43.733 538.102 43.3807C538.28 43.0246 538.538 42.7405 538.875 42.5284C539.216 42.3125 539.629 42.2045 540.114 42.2045C540.606 42.2045 541.019 42.3125 541.352 42.5284C541.686 42.7405 541.938 43.0246 542.108 43.3807C542.278 43.733 542.364 44.1212 542.364 44.5455V45.1591C542.364 45.5833 542.277 45.9735 542.102 46.3295C541.932 46.6818 541.678 46.9659 541.341 47.1818C541.008 47.3939 540.598 47.5 540.114 47.5C539.621 47.5 539.206 47.3939 538.869 47.1818C538.532 46.9659 538.277 46.6818 538.102 46.3295C537.928 45.9735 537.841 45.5833 537.841 45.1591ZM539 44.5455V45.1591C539 45.5114 539.083 45.8277 539.25 46.108C539.417 46.3845 539.705 46.5227 540.114 46.5227C540.511 46.5227 540.792 46.3845 540.955 46.108C541.121 45.8277 541.205 45.5114 541.205 45.1591V44.5455C541.205 44.1932 541.125 43.8788 540.966 43.6023C540.807 43.322 540.523 43.1818 540.114 43.1818C539.716 43.1818 539.43 43.322 539.256 43.6023C539.085 43.8788 539 44.1932 539 44.5455ZM538.273 54L546.273 42.3636H547.568L539.568 54H538.273Z" fill="#667085"/>
</g>
<path d="M617.866 6.14062V4.81818H625.746V6.14062H622.57V15H621.038V6.14062H617.866ZM629.478 15.1541C628.762 15.1541 628.137 14.9901 627.603 14.6619C627.07 14.3338 626.655 13.8748 626.36 13.2848C626.065 12.6948 625.918 12.0054 625.918 11.2166C625.918 10.4245 626.065 9.73177 626.36 9.13849C626.655 8.54522 627.07 8.08452 627.603 7.75639C628.137 7.42827 628.762 7.2642 629.478 7.2642C630.194 7.2642 630.818 7.42827 631.352 7.75639C631.886 8.08452 632.3 8.54522 632.595 9.13849C632.89 9.73177 633.037 10.4245 633.037 11.2166C633.037 12.0054 632.89 12.6948 632.595 13.2848C632.3 13.8748 631.886 14.3338 631.352 14.6619C630.818 14.9901 630.194 15.1541 629.478 15.1541ZM629.483 13.9062C629.947 13.9062 630.331 13.7836 630.636 13.5384C630.941 13.2931 631.166 12.9666 631.312 12.5589C631.461 12.1513 631.536 11.7022 631.536 11.2116C631.536 10.7244 631.461 10.277 631.312 9.86932C631.166 9.45833 630.941 9.12855 630.636 8.87997C630.331 8.63139 629.947 8.5071 629.483 8.5071C629.015 8.5071 628.627 8.63139 628.319 8.87997C628.014 9.12855 627.787 9.45833 627.638 9.86932C627.492 10.277 627.419 10.7244 627.419 11.2116C627.419 11.7022 627.492 12.1513 627.638 12.5589C627.787 12.9666 628.014 13.2931 628.319 13.5384C628.627 13.7836 629.015 13.9062 629.483 13.9062ZM638.261 7.36364V8.55682H634.09V7.36364H638.261ZM635.209 5.53409H636.695V12.7578C636.695 13.0462 636.738 13.2633 636.824 13.4091C636.911 13.5516 637.022 13.6494 637.157 13.7024C637.297 13.7521 637.448 13.777 637.61 13.777C637.729 13.777 637.834 13.7687 637.923 13.7521C638.013 13.7356 638.082 13.7223 638.132 13.7124L638.4 14.9403C638.314 14.9735 638.192 15.0066 638.032 15.0398C637.873 15.0762 637.675 15.0961 637.436 15.0994C637.045 15.1061 636.68 15.0365 636.342 14.8906C636.004 14.7448 635.731 14.5194 635.522 14.2145C635.313 13.9096 635.209 13.5268 635.209 13.0661V5.53409ZM642.128 15.169C641.644 15.169 641.206 15.0795 640.815 14.9006C640.424 14.7183 640.114 14.4548 639.886 14.1101C639.66 13.7654 639.548 13.3428 639.548 12.8423C639.548 12.4115 639.63 12.0568 639.796 11.7784C639.962 11.5 640.186 11.2796 640.467 11.1172C640.749 10.9548 641.064 10.8321 641.412 10.7493C641.76 10.6664 642.115 10.6035 642.476 10.5604C642.933 10.5073 643.304 10.4643 643.589 10.4311C643.875 10.3946 644.082 10.3366 644.211 10.2571C644.34 10.1776 644.405 10.0483 644.405 9.86932V9.83452C644.405 9.40033 644.282 9.06392 644.037 8.82528C643.795 8.58665 643.434 8.46733 642.953 8.46733C642.453 8.46733 642.058 8.57836 641.77 8.80043C641.485 9.01918 641.288 9.26278 641.178 9.53125L639.781 9.21307C639.947 8.74905 640.189 8.37453 640.507 8.08949C640.829 7.80114 641.198 7.59233 641.616 7.46307C642.033 7.33049 642.473 7.2642 642.933 7.2642C643.238 7.2642 643.561 7.30066 643.903 7.37358C644.247 7.44318 644.569 7.57244 644.867 7.76136C645.169 7.95028 645.416 8.22041 645.608 8.57173C645.8 8.91974 645.896 9.37216 645.896 9.92898V15H644.445V13.956H644.385C644.289 14.1482 644.145 14.3371 643.952 14.5227C643.76 14.7083 643.513 14.8625 643.212 14.9851C642.91 15.1077 642.549 15.169 642.128 15.169ZM642.451 13.9759C642.862 13.9759 643.213 13.8946 643.505 13.7322C643.8 13.5698 644.024 13.3577 644.176 13.0959C644.332 12.8307 644.41 12.5473 644.41 12.2457V11.2614C644.357 11.3144 644.254 11.3641 644.102 11.4105C643.952 11.4536 643.782 11.4917 643.589 11.5249C643.397 11.5547 643.21 11.5829 643.028 11.6094C642.845 11.6326 642.693 11.6525 642.57 11.669C642.282 11.7055 642.018 11.7668 641.78 11.853C641.545 11.9392 641.356 12.0634 641.213 12.2259C641.074 12.3849 641.004 12.5971 641.004 12.8622C641.004 13.2301 641.14 13.5085 641.412 13.6974C641.684 13.883 642.03 13.9759 642.451 13.9759ZM649.363 4.81818V15H647.876V4.81818H649.363ZM655.187 15V4.81818H658.816C659.608 4.81818 660.265 4.96236 660.785 5.25071C661.305 5.53906 661.695 5.93347 661.953 6.43395C662.212 6.93111 662.341 7.49124 662.341 8.11435C662.341 8.74077 662.21 9.30421 661.948 9.80469C661.69 10.3018 661.299 10.6963 660.775 10.9879C660.255 11.2763 659.6 11.4205 658.811 11.4205H656.316V10.1179H658.672C659.173 10.1179 659.579 10.0317 659.89 9.85938C660.202 9.68371 660.43 9.44508 660.576 9.14347C660.722 8.84186 660.795 8.49882 660.795 8.11435C660.795 7.72988 660.722 7.38849 660.576 7.0902C660.43 6.7919 660.2 6.55824 659.885 6.3892C659.574 6.22017 659.163 6.13565 658.652 6.13565H656.723V15H655.187ZM664.023 15V7.36364H665.46V8.5767H665.539C665.678 8.16572 665.924 7.84257 666.275 7.60724C666.629 7.36861 667.031 7.24929 667.478 7.24929C667.571 7.24929 667.68 7.2526 667.806 7.25923C667.935 7.26586 668.036 7.27415 668.109 7.28409V8.70597C668.05 8.68939 667.944 8.67116 667.791 8.65128C667.639 8.62808 667.486 8.61648 667.334 8.61648C666.982 8.61648 666.669 8.69105 666.394 8.8402C666.122 8.98603 665.907 9.18987 665.748 9.4517C665.589 9.71023 665.509 10.0052 665.509 10.3366V15H664.023ZM669.396 15V7.36364H670.882V15H669.396ZM670.146 6.18537C669.888 6.18537 669.666 6.09919 669.48 5.92685C669.298 5.75118 669.207 5.54238 669.207 5.30043C669.207 5.05516 669.298 4.84635 669.48 4.67401C669.666 4.49834 669.888 4.41051 670.146 4.41051C670.405 4.41051 670.625 4.49834 670.808 4.67401C670.993 4.84635 671.086 5.05516 671.086 5.30043C671.086 5.54238 670.993 5.75118 670.808 5.92685C670.625 6.09919 670.405 6.18537 670.146 6.18537ZM676.099 15.1541C675.36 15.1541 674.723 14.9867 674.19 14.652C673.659 14.3139 673.252 13.8482 672.967 13.255C672.682 12.6617 672.539 11.9822 672.539 11.2166C672.539 10.4411 672.685 9.75663 672.977 9.16335C673.268 8.56676 673.679 8.10109 674.21 7.76633C674.74 7.43158 675.365 7.2642 676.084 7.2642C676.664 7.2642 677.181 7.37192 677.635 7.58736C678.089 7.79948 678.455 8.09777 678.734 8.48224C679.015 8.86671 679.183 9.31581 679.236 9.82955H677.789C677.71 9.47159 677.527 9.16335 677.242 8.90483C676.96 8.64631 676.583 8.51705 676.109 8.51705C675.694 8.51705 675.331 8.62642 675.02 8.84517C674.712 9.06061 674.471 9.36884 674.299 9.76989C674.127 10.1676 674.04 10.6383 674.04 11.1818C674.04 11.7386 674.125 12.2192 674.294 12.6236C674.463 13.0279 674.702 13.3411 675.01 13.5632C675.321 13.7853 675.688 13.8963 676.109 13.8963C676.39 13.8963 676.646 13.8449 676.874 13.7422C677.106 13.6361 677.3 13.4853 677.456 13.2898C677.615 13.0942 677.726 12.8589 677.789 12.5838H679.236C679.183 13.0777 679.022 13.5185 678.754 13.9062C678.485 14.294 678.125 14.599 677.675 14.821C677.227 15.0431 676.702 15.1541 676.099 15.1541ZM684.117 15.1541C683.364 15.1541 682.716 14.9934 682.173 14.6719C681.633 14.3471 681.215 13.8913 680.92 13.3047C680.628 12.7147 680.482 12.0237 680.482 11.2315C680.482 10.4493 680.628 9.75994 680.92 9.16335C681.215 8.56676 681.626 8.10109 682.153 7.76633C682.683 7.43158 683.303 7.2642 684.012 7.2642C684.443 7.2642 684.861 7.33546 685.265 7.47798C685.669 7.6205 686.032 7.84422 686.354 8.14915C686.675 8.45407 686.929 8.85014 687.115 9.33736C687.3 9.82126 687.393 10.4096 687.393 11.1023V11.6293H681.323V10.5156H685.936C685.936 10.1245 685.857 9.77817 685.698 9.47656C685.539 9.17164 685.315 8.93134 685.026 8.75568C684.741 8.58002 684.407 8.49219 684.022 8.49219C683.605 8.49219 683.24 8.59493 682.928 8.80043C682.62 9.0026 682.382 9.26776 682.213 9.59588C682.047 9.92069 681.964 10.2737 681.964 10.6548V11.5249C681.964 12.0353 682.053 12.4695 682.232 12.8274C682.415 13.1854 682.668 13.4588 682.993 13.6477C683.318 13.8333 683.697 13.9261 684.132 13.9261C684.413 13.9261 684.67 13.8864 684.902 13.8068C685.134 13.724 685.335 13.6013 685.504 13.4389C685.673 13.2765 685.802 13.076 685.892 12.8374L687.298 13.0909C687.186 13.5052 686.984 13.8681 686.692 14.1797C686.404 14.4879 686.041 14.7282 685.603 14.9006C685.169 15.0696 684.673 15.1541 684.117 15.1541Z" fill="#344054"/>
<g filter="url(#filter4_d_6833_16216)">
<rect x="617.25" y="26" width="94.75" height="44" rx="8" fill="white"/>
<rect x="617.75" y="26.5" width="93.75" height="43" rx="7.5" stroke="#D0D5DD"/>
<path d="M636.545 42.3636V54H635.136V43.8409H635.068L632.227 45.7273V44.2955L635.136 42.3636H636.545ZM643.688 54.1591C642.831 54.1591 642.102 53.9261 641.5 53.4602C640.898 52.9905 640.438 52.3106 640.119 51.4205C639.801 50.5265 639.642 49.447 639.642 48.1818C639.642 46.9242 639.801 45.8504 640.119 44.9602C640.441 44.0663 640.903 43.3845 641.506 42.9148C642.112 42.4413 642.839 42.2045 643.688 42.2045C644.536 42.2045 645.261 42.4413 645.864 42.9148C646.47 43.3845 646.932 44.0663 647.25 44.9602C647.572 45.8504 647.733 46.9242 647.733 48.1818C647.733 49.447 647.574 50.5265 647.256 51.4205C646.938 52.3106 646.477 52.9905 645.875 53.4602C645.273 53.9261 644.544 54.1591 643.688 54.1591ZM643.688 52.9091C644.536 52.9091 645.195 52.5 645.665 51.6818C646.134 50.8636 646.369 49.697 646.369 48.1818C646.369 47.1742 646.261 46.3163 646.045 45.608C645.833 44.8996 645.527 44.3598 645.125 43.9886C644.727 43.6174 644.248 43.4318 643.688 43.4318C642.847 43.4318 642.189 43.8466 641.716 44.6761C641.242 45.5019 641.006 46.6705 641.006 48.1818C641.006 49.1894 641.112 50.0455 641.324 50.75C641.536 51.4545 641.841 51.9905 642.239 52.358C642.64 52.7254 643.123 52.9091 643.688 52.9091ZM653.688 54.1591C652.831 54.1591 652.102 53.9261 651.5 53.4602C650.898 52.9905 650.438 52.3106 650.119 51.4205C649.801 50.5265 649.642 49.447 649.642 48.1818C649.642 46.9242 649.801 45.8504 650.119 44.9602C650.441 44.0663 650.903 43.3845 651.506 42.9148C652.112 42.4413 652.839 42.2045 653.688 42.2045C654.536 42.2045 655.261 42.4413 655.864 42.9148C656.47 43.3845 656.932 44.0663 657.25 44.9602C657.572 45.8504 657.733 46.9242 657.733 48.1818C657.733 49.447 657.574 50.5265 657.256 51.4205C656.938 52.3106 656.477 52.9905 655.875 53.4602C655.273 53.9261 654.544 54.1591 653.688 54.1591ZM653.688 52.9091C654.536 52.9091 655.195 52.5 655.665 51.6818C656.134 50.8636 656.369 49.697 656.369 48.1818C656.369 47.1742 656.261 46.3163 656.045 45.608C655.833 44.8996 655.527 44.3598 655.125 43.9886C654.727 43.6174 654.248 43.4318 653.688 43.4318C652.847 43.4318 652.189 43.8466 651.716 44.6761C651.242 45.5019 651.006 46.6705 651.006 48.1818C651.006 49.1894 651.112 50.0455 651.324 50.75C651.536 51.4545 651.841 51.9905 652.239 52.358C652.64 52.7254 653.123 52.9091 653.688 52.9091ZM663.688 54.1591C662.831 54.1591 662.102 53.9261 661.5 53.4602C660.898 52.9905 660.438 52.3106 660.119 51.4205C659.801 50.5265 659.642 49.447 659.642 48.1818C659.642 46.9242 659.801 45.8504 660.119 44.9602C660.441 44.0663 660.903 43.3845 661.506 42.9148C662.112 42.4413 662.839 42.2045 663.688 42.2045C664.536 42.2045 665.261 42.4413 665.864 42.9148C666.47 43.3845 666.932 44.0663 667.25 44.9602C667.572 45.8504 667.733 46.9242 667.733 48.1818C667.733 49.447 667.574 50.5265 667.256 51.4205C666.938 52.3106 666.477 52.9905 665.875 53.4602C665.273 53.9261 664.544 54.1591 663.688 54.1591ZM663.688 52.9091C664.536 52.9091 665.195 52.5 665.665 51.6818C666.134 50.8636 666.369 49.697 666.369 48.1818C666.369 47.1742 666.261 46.3163 666.045 45.608C665.833 44.8996 665.527 44.3598 665.125 43.9886C664.727 43.6174 664.248 43.4318 663.688 43.4318C662.847 43.4318 662.189 43.8466 661.716 44.6761C661.242 45.5019 661.006 46.6705 661.006 48.1818C661.006 49.1894 661.112 50.0455 661.324 50.75C661.536 51.4545 661.841 51.9905 662.239 52.358C662.64 52.7254 663.123 52.9091 663.688 52.9091Z" fill="#667085"/>
</g>
<path d="M729.5 2.5H734.5M724.5 5H739.5M737.833 5L737.249 13.7661C737.161 15.0813 737.117 15.7389 736.833 16.2375C736.583 16.6765 736.206 17.0294 735.751 17.2497C735.235 17.5 734.576 17.5 733.258 17.5H730.742C729.424 17.5 728.765 17.5 728.249 17.2497C727.794 17.0294 727.417 16.6765 727.167 16.2375C726.883 15.7389 726.839 15.0813 726.751 13.7661L726.167 5M730.333 8.75V12.9167M733.667 8.75V12.9167" stroke="#667085" stroke-width="1.66667" stroke-linecap="round" stroke-linejoin="round"/>
<defs>
<filter id="filter0_d_6833_16216" x="0" y="25" width="295" height="48" filterUnits="userSpaceOnUse" color-interpolation-filters="sRGB">
<feFlood flood-opacity="0" result="BackgroundImageFix"/>
<feColorMatrix in="SourceAlpha" type="matrix" values="0 0 0 0 0 0 0 0 0 0 0 0 0 0 0 0 0 0 127 0" result="hardAlpha"/>
<feOffset dy="1"/>
<feGaussianBlur stdDeviation="1"/>
<feColorMatrix type="matrix" values="0 0 0 0 0.0627451 0 0 0 0 0.0941176 0 0 0 0 0.156863 0 0 0 0.05 0"/>
<feBlend mode="normal" in2="BackgroundImageFix" result="effect1_dropShadow_6833_16216"/>
<feBlend mode="normal" in="SourceGraphic" in2="effect1_dropShadow_6833_16216" result="shape"/>
</filter>
<filter id="filter1_d_6833_16216" x="301" y="25" width="98.75" height="48" filterUnits="userSpaceOnUse" color-interpolation-filters="sRGB">
<feFlood flood-opacity="0" result="BackgroundImageFix"/>
<feColorMatrix in="SourceAlpha" type="matrix" values="0 0 0 0 0 0 0 0 0 0 0 0 0 0 0 0 0 0 127 0" result="hardAlpha"/>
<feOffset dy="1"/>
<feGaussianBlur stdDeviation="1"/>
<feColorMatrix type="matrix" values="0 0 0 0 0.0627451 0 0 0 0 0.0941176 0 0 0 0 0.156863 0 0 0 0.05 0"/>
<feBlend mode="normal" in2="BackgroundImageFix" result="effect1_dropShadow_6833_16216"/>
<feBlend mode="normal" in="SourceGraphic" in2="effect1_dropShadow_6833_16216" result="shape"/>
</filter>
<filter id="filter2_d_6833_16216" x="405.75" y="25" width="98.75" height="48" filterUnits="userSpaceOnUse" color-interpolation-filters="sRGB">
<feFlood flood-opacity="0" result="BackgroundImageFix"/>
<feColorMatrix in="SourceAlpha" type="matrix" values="0 0 0 0 0 0 0 0 0 0 0 0 0 0 0 0 0 0 127 0" result="hardAlpha"/>
<feOffset dy="1"/>
<feGaussianBlur stdDeviation="1"/>
<feColorMatrix type="matrix" values="0 0 0 0 0.0627451 0 0 0 0 0.0941176 0 0 0 0 0.156863 0 0 0 0.05 0"/>
<feBlend mode="normal" in2="BackgroundImageFix" result="effect1_dropShadow_6833_16216"/>
<feBlend mode="normal" in="SourceGraphic" in2="effect1_dropShadow_6833_16216" result="shape"/>
</filter>
<filter id="filter3_d_6833_16216" x="510.5" y="25" width="98.75" height="48" filterUnits="userSpaceOnUse" color-interpolation-filters="sRGB">
<feFlood flood-opacity="0" result="BackgroundImageFix"/>
<feColorMatrix in="SourceAlpha" type="matrix" values="0 0 0 0 0 0 0 0 0 0 0 0 0 0 0 0 0 0 127 0" result="hardAlpha"/>
<feOffset dy="1"/>
<feGaussianBlur stdDeviation="1"/>
<feColorMatrix type="matrix" values="0 0 0 0 0.0627451 0 0 0 0 0.0941176 0 0 0 0 0.156863 0 0 0 0.05 0"/>
<feBlend mode="normal" in2="BackgroundImageFix" result="effect1_dropShadow_6833_16216"/>
<feBlend mode="normal" in="SourceGraphic" in2="effect1_dropShadow_6833_16216" result="shape"/>
</filter>
<filter id="filter4_d_6833_16216" x="615.25" y="25" width="98.75" height="48" filterUnits="userSpaceOnUse" color-interpolation-filters="sRGB">
<feFlood flood-opacity="0" result="BackgroundImageFix"/>
<feColorMatrix in="SourceAlpha" type="matrix" values="0 0 0 0 0 0 0 0 0 0 0 0 0 0 0 0 0 0 127 0" result="hardAlpha"/>
<feOffset dy="1"/>
<feGaussianBlur stdDeviation="1"/>
<feColorMatrix type="matrix" values="0 0 0 0 0.0627451 0 0 0 0 0.0941176 0 0 0 0 0.156863 0 0 0 0.05 0"/>
<feBlend mode="normal" in2="BackgroundImageFix" result="effect1_dropShadow_6833_16216"/>
<feBlend mode="normal" in="SourceGraphic" in2="effect1_dropShadow_6833_16216" result="shape"/>
</filter>
</defs>
</svg>
