<svg width="740" height="24" viewBox="0 0 740 24" fill="none" xmlns="http://www.w3.org/2000/svg">
<path d="M3.03409 6.36364V18H1.27841V6.36364H3.03409ZM7.15341 12.8182V18H5.45455V9.27273H7.08523V10.6932H7.19318C7.39394 10.2311 7.70833 9.85985 8.13636 9.57955C8.56818 9.29924 9.11174 9.15909 9.76705 9.15909C10.3617 9.15909 10.8826 9.28409 11.3295 9.53409C11.7765 9.7803 12.1231 10.1477 12.3693 10.6364C12.6155 11.125 12.7386 11.7292 12.7386 12.4489V18H11.0398V12.6534C11.0398 12.0208 10.875 11.5265 10.5455 11.1705C10.2159 10.8106 9.76326 10.6307 9.1875 10.6307C8.79356 10.6307 8.44318 10.7159 8.13636 10.8864C7.83333 11.0568 7.5928 11.3068 7.41477 11.6364C7.24053 11.9621 7.15341 12.3561 7.15341 12.8182ZM22.1705 9.27273L19.0057 18H17.1875L14.017 9.27273H15.8409L18.0511 15.9886H18.142L20.3466 9.27273H22.1705ZM27.1463 18.1761C26.3281 18.1761 25.6141 17.9886 25.0043 17.6136C24.3944 17.2386 23.9209 16.714 23.5838 16.0398C23.2467 15.3655 23.0781 14.5777 23.0781 13.6761C23.0781 12.7708 23.2467 11.9792 23.5838 11.3011C23.9209 10.6231 24.3944 10.0966 25.0043 9.72159C25.6141 9.34659 26.3281 9.15909 27.1463 9.15909C27.9645 9.15909 28.6785 9.34659 29.2884 9.72159C29.8982 10.0966 30.3717 10.6231 30.7088 11.3011C31.0459 11.9792 31.2145 12.7708 31.2145 13.6761C31.2145 14.5777 31.0459 15.3655 30.7088 16.0398C30.3717 16.714 29.8982 17.2386 29.2884 17.6136C28.6785 17.9886 27.9645 18.1761 27.1463 18.1761ZM27.152 16.75C27.6823 16.75 28.1217 16.6098 28.4702 16.3295C28.8187 16.0492 29.0762 15.6761 29.2429 15.2102C29.4134 14.7443 29.4986 14.2311 29.4986 13.6705C29.4986 13.1136 29.4134 12.6023 29.2429 12.1364C29.0762 11.6667 28.8187 11.2898 28.4702 11.0057C28.1217 10.7216 27.6823 10.5795 27.152 10.5795C26.6179 10.5795 26.1747 10.7216 25.8224 11.0057C25.474 11.2898 25.2145 11.6667 25.044 12.1364C24.8774 12.6023 24.794 13.1136 24.794 13.6705C24.794 14.2311 24.8774 14.7443 25.044 15.2102C25.2145 15.6761 25.474 16.0492 25.8224 16.3295C26.1747 16.6098 26.6179 16.75 27.152 16.75ZM33.1108 18V9.27273H34.8097V18H33.1108ZM33.9688 7.92614C33.6733 7.92614 33.4195 7.82765 33.2074 7.63068C32.9991 7.42992 32.8949 7.19129 32.8949 6.91477C32.8949 6.63447 32.9991 6.39583 33.2074 6.19886C33.4195 5.99811 33.6733 5.89773 33.9688 5.89773C34.2642 5.89773 34.5161 5.99811 34.7244 6.19886C34.9366 6.39583 35.0426 6.63447 35.0426 6.91477C35.0426 7.19129 34.9366 7.42992 34.7244 7.63068C34.5161 7.82765 34.2642 7.92614 33.9688 7.92614ZM40.7713 18.1761C39.9266 18.1761 39.1993 17.9848 38.5895 17.6023C37.9834 17.2159 37.5175 16.6837 37.1918 16.0057C36.866 15.3277 36.7031 14.5511 36.7031 13.6761C36.7031 12.7898 36.8698 12.0076 37.2031 11.3295C37.5365 10.6477 38.0062 10.1155 38.6122 9.73295C39.2183 9.35038 39.9323 9.15909 40.7543 9.15909C41.4171 9.15909 42.008 9.2822 42.527 9.52841C43.0459 9.77083 43.4645 10.1117 43.7827 10.5511C44.1046 10.9905 44.2959 11.5038 44.3565 12.0909H42.7031C42.6122 11.6818 42.4039 11.3295 42.0781 11.0341C41.7562 10.7386 41.3243 10.5909 40.7827 10.5909C40.3092 10.5909 39.8944 10.7159 39.5384 10.9659C39.1861 11.2121 38.9115 11.5644 38.7145 12.0227C38.5175 12.4773 38.419 13.0152 38.419 13.6364C38.419 14.2727 38.5156 14.822 38.7088 15.2841C38.902 15.7462 39.1747 16.1042 39.527 16.358C39.883 16.6117 40.3016 16.7386 40.7827 16.7386C41.1046 16.7386 41.3963 16.6799 41.6577 16.5625C41.9228 16.4413 42.1444 16.2689 42.3224 16.0455C42.5043 15.822 42.6312 15.553 42.7031 15.2386H44.3565C44.2959 15.803 44.1122 16.3068 43.8054 16.75C43.4986 17.1932 43.0876 17.5417 42.5724 17.7955C42.0611 18.0492 41.4607 18.1761 40.7713 18.1761ZM49.9347 18.1761C49.0748 18.1761 48.3343 17.9924 47.7131 17.625C47.0956 17.2538 46.6184 16.733 46.2812 16.0625C45.9479 15.3883 45.7812 14.5985 45.7812 13.6932C45.7812 12.7992 45.9479 12.0114 46.2812 11.3295C46.6184 10.6477 47.0881 10.1155 47.6903 9.73295C48.2964 9.35038 49.0047 9.15909 49.8153 9.15909C50.3078 9.15909 50.785 9.24053 51.2472 9.40341C51.7093 9.56629 52.1241 9.82197 52.4915 10.1705C52.8589 10.5189 53.1487 10.9716 53.3608 11.5284C53.5729 12.0814 53.679 12.7538 53.679 13.5455V14.1477H46.7415V12.875H52.0142C52.0142 12.428 51.9233 12.0322 51.7415 11.6875C51.5597 11.339 51.304 11.0644 50.9744 10.8636C50.6487 10.6629 50.2661 10.5625 49.8267 10.5625C49.3494 10.5625 48.9328 10.6799 48.5767 10.9148C48.2244 11.1458 47.9517 11.4489 47.7585 11.8239C47.5691 12.1951 47.4744 12.5985 47.4744 13.0341V14.0284C47.4744 14.6117 47.5767 15.108 47.7812 15.517C47.9896 15.9261 48.2794 16.2386 48.6506 16.4545C49.0218 16.6667 49.4555 16.7727 49.9517 16.7727C50.2737 16.7727 50.5672 16.7273 50.8324 16.6364C51.0975 16.5417 51.3267 16.4015 51.5199 16.2159C51.7131 16.0303 51.8608 15.8011 51.9631 15.5284L53.571 15.8182C53.4422 16.2917 53.2112 16.7064 52.8778 17.0625C52.5483 17.4148 52.1335 17.6894 51.6335 17.8864C51.1373 18.0795 50.571 18.1761 49.9347 18.1761ZM61.6903 6.36364V18H59.9347V6.36364H61.6903ZM68.1847 9.27273V10.6364H63.4176V9.27273H68.1847ZM64.696 7.18182H66.3949V15.4375C66.3949 15.767 66.4441 16.0152 66.5426 16.1818C66.6411 16.3447 66.768 16.4564 66.9233 16.517C67.0824 16.5739 67.2547 16.6023 67.4403 16.6023C67.5767 16.6023 67.696 16.5928 67.7983 16.5739C67.9006 16.5549 67.9801 16.5398 68.0369 16.5284L68.3438 17.9318C68.2453 17.9697 68.1051 18.0076 67.9233 18.0455C67.7415 18.0871 67.5142 18.1098 67.2415 18.1136C66.7945 18.1212 66.3778 18.0417 65.9915 17.875C65.6051 17.7083 65.2926 17.4508 65.054 17.1023C64.8153 16.7538 64.696 16.3163 64.696 15.7898V7.18182ZM73.7315 18.1761C72.8717 18.1761 72.1312 17.9924 71.5099 17.625C70.8925 17.2538 70.4152 16.733 70.0781 16.0625C69.7448 15.3883 69.5781 14.5985 69.5781 13.6932C69.5781 12.7992 69.7448 12.0114 70.0781 11.3295C70.4152 10.6477 70.8849 10.1155 71.4872 9.73295C72.0933 9.35038 72.8016 9.15909 73.6122 9.15909C74.1046 9.15909 74.5819 9.24053 75.044 9.40341C75.5062 9.56629 75.9209 9.82197 76.2884 10.1705C76.6558 10.5189 76.9455 10.9716 77.1577 11.5284C77.3698 12.0814 77.4759 12.7538 77.4759 13.5455V14.1477H70.5384V12.875H75.8111C75.8111 12.428 75.7202 12.0322 75.5384 11.6875C75.3565 11.339 75.1009 11.0644 74.7713 10.8636C74.4455 10.6629 74.063 10.5625 73.6236 10.5625C73.1463 10.5625 72.7296 10.6799 72.3736 10.9148C72.0213 11.1458 71.7486 11.4489 71.5554 11.8239C71.366 12.1951 71.2713 12.5985 71.2713 13.0341V14.0284C71.2713 14.6117 71.3736 15.108 71.5781 15.517C71.7865 15.9261 72.0762 16.2386 72.4474 16.4545C72.8187 16.6667 73.2524 16.7727 73.7486 16.7727C74.0705 16.7727 74.3641 16.7273 74.6293 16.6364C74.8944 16.5417 75.1236 16.4015 75.3168 16.2159C75.5099 16.0303 75.6577 15.8011 75.7599 15.5284L77.3679 15.8182C77.2391 16.2917 77.008 16.7064 76.6747 17.0625C76.3452 17.4148 75.9304 17.6894 75.4304 17.8864C74.9342 18.0795 74.3679 18.1761 73.7315 18.1761ZM79.3608 18V9.27273H80.9915V10.6932H81.0994C81.2813 10.2121 81.5786 9.83712 81.9915 9.56818C82.4044 9.29545 82.8987 9.15909 83.4744 9.15909C84.0578 9.15909 84.5464 9.29545 84.9403 9.56818C85.3381 9.84091 85.6316 10.2159 85.821 10.6932H85.9119C86.1203 10.2273 86.4517 9.85606 86.9062 9.57955C87.3608 9.29924 87.9025 9.15909 88.5312 9.15909C89.3229 9.15909 89.9688 9.4072 90.4688 9.90341C90.9725 10.3996 91.2244 11.1477 91.2244 12.1477V18H89.5256V12.3068C89.5256 11.7159 89.3646 11.2879 89.0426 11.0227C88.7206 10.7576 88.3362 10.625 87.8892 10.625C87.3362 10.625 86.9062 10.7955 86.5994 11.1364C86.2926 11.4735 86.1392 11.9072 86.1392 12.4375V18H84.446V12.1989C84.446 11.7254 84.2983 11.3447 84.0028 11.0568C83.7074 10.7689 83.3229 10.625 82.8494 10.625C82.5275 10.625 82.2301 10.7102 81.9574 10.8807C81.6884 11.0473 81.4706 11.2803 81.304 11.5795C81.1411 11.8788 81.0597 12.2254 81.0597 12.6193V18H79.3608ZM100.041 11.4034L98.5014 11.6761C98.437 11.4792 98.3348 11.2917 98.1946 11.1136C98.0582 10.9356 97.8726 10.7898 97.6378 10.6761C97.4029 10.5625 97.1094 10.5057 96.7571 10.5057C96.276 10.5057 95.8745 10.6136 95.5526 10.8295C95.2306 11.0417 95.0696 11.3163 95.0696 11.6534C95.0696 11.9451 95.1776 12.1799 95.3935 12.358C95.6094 12.536 95.9579 12.6818 96.4389 12.7955L97.8253 13.1136C98.6283 13.2992 99.2268 13.5852 99.6207 13.9716C100.015 14.358 100.212 14.8598 100.212 15.4773C100.212 16 100.06 16.4659 99.7571 16.875C99.4579 17.2803 99.0393 17.5985 98.5014 17.8295C97.9673 18.0606 97.348 18.1761 96.6435 18.1761C95.6662 18.1761 94.8688 17.9678 94.2514 17.5511C93.634 17.1307 93.2552 16.5341 93.1151 15.7614L94.7571 15.5114C94.8594 15.9394 95.0696 16.2633 95.3878 16.483C95.706 16.6989 96.1207 16.8068 96.6321 16.8068C97.1889 16.8068 97.634 16.6913 97.9673 16.4602C98.3007 16.2254 98.4673 15.9394 98.4673 15.6023C98.4673 15.3295 98.3651 15.1004 98.1605 14.9148C97.9598 14.7292 97.651 14.589 97.2344 14.4943L95.7571 14.1705C94.9427 13.9848 94.3404 13.6894 93.9503 13.2841C93.5639 12.8788 93.3707 12.3655 93.3707 11.7443C93.3707 11.2292 93.5147 10.7784 93.8026 10.392C94.0904 10.0057 94.4882 9.70455 94.9957 9.48864C95.5033 9.26894 96.0848 9.15909 96.7401 9.15909C97.6832 9.15909 98.4257 9.36364 98.9673 9.77273C99.509 10.178 99.867 10.7216 100.041 11.4034Z" fill="#101828"/>
<g clip-path="url(#clip0_6833_16213)">
<path d="M661 6.16699V17.8337M655.167 12.0003H666.834" stroke="#3538CD" stroke-width="1.66667" stroke-linecap="round" stroke-linejoin="round"/>
<path d="M681.312 17H679.343L682.928 6.81818H685.205L688.794 17H686.825L684.106 8.90625H684.026L681.312 17ZM681.376 13.0078H686.746V14.4893H681.376V13.0078ZM692.657 17.1342C692.057 17.1342 691.52 16.9801 691.046 16.6719C690.572 16.3636 690.198 15.9162 689.923 15.3295C689.647 14.7429 689.51 14.0303 689.51 13.1918C689.51 12.3433 689.649 11.6274 689.928 11.044C690.209 10.4574 690.589 10.0149 691.066 9.71662C691.543 9.41501 692.075 9.2642 692.662 9.2642C693.109 9.2642 693.477 9.34044 693.766 9.4929C694.054 9.64205 694.283 9.82268 694.452 10.0348C694.621 10.2436 694.752 10.4408 694.844 10.6264H694.919V6.81818H696.724V17H694.954V15.7969H694.844C694.752 15.9825 694.617 16.1797 694.442 16.3885C694.266 16.594 694.034 16.7696 693.746 16.9155C693.457 17.0613 693.094 17.1342 692.657 17.1342ZM693.159 15.6577C693.54 15.6577 693.865 15.5549 694.134 15.3494C694.402 15.1406 694.606 14.8506 694.745 14.4794C694.884 14.1082 694.954 13.6757 694.954 13.1818C694.954 12.688 694.884 12.2588 694.745 11.8942C694.609 11.5296 694.407 11.2462 694.138 11.044C693.873 10.8419 693.547 10.7408 693.159 10.7408C692.758 10.7408 692.423 10.8452 692.155 11.054C691.886 11.2628 691.684 11.5511 691.548 11.919C691.412 12.2869 691.344 12.7079 691.344 13.1818C691.344 13.6591 691.412 14.085 691.548 14.4595C691.688 14.8307 691.891 15.1241 692.16 15.3395C692.432 15.5516 692.765 15.6577 693.159 15.6577ZM701.475 17.1342C700.875 17.1342 700.338 16.9801 699.865 16.6719C699.391 16.3636 699.016 15.9162 698.741 15.3295C698.466 14.7429 698.328 14.0303 698.328 13.1918C698.328 12.3433 698.468 11.6274 698.746 11.044C699.028 10.4574 699.407 10.0149 699.884 9.71662C700.362 9.41501 700.894 9.2642 701.48 9.2642C701.928 9.2642 702.296 9.34044 702.584 9.4929C702.872 9.64205 703.101 9.82268 703.27 10.0348C703.439 10.2436 703.57 10.4408 703.663 10.6264H703.737V6.81818H705.542V17H703.772V15.7969H703.663C703.57 15.9825 703.436 16.1797 703.26 16.3885C703.084 16.594 702.852 16.7696 702.564 16.9155C702.276 17.0613 701.913 17.1342 701.475 17.1342ZM701.977 15.6577C702.359 15.6577 702.683 15.5549 702.952 15.3494C703.22 15.1406 703.424 14.8506 703.563 14.4794C703.703 14.1082 703.772 13.6757 703.772 13.1818C703.772 12.688 703.703 12.2588 703.563 11.8942C703.427 11.5296 703.225 11.2462 702.957 11.044C702.692 10.8419 702.365 10.7408 701.977 10.7408C701.576 10.7408 701.242 10.8452 700.973 11.054C700.705 11.2628 700.503 11.5511 700.367 11.919C700.231 12.2869 700.163 12.7079 700.163 13.1818C700.163 13.6591 700.231 14.085 700.367 14.4595C700.506 14.8307 700.71 15.1241 700.978 15.3395C701.25 15.5516 701.583 15.6577 701.977 15.6577ZM712.857 6.81818V17H711.012V6.81818H712.857ZM718.588 9.36364V10.7557H714.198V9.36364H718.588ZM715.281 7.53409H717.081V14.7031C717.081 14.9451 717.118 15.1307 717.191 15.2599C717.267 15.3859 717.366 15.4721 717.489 15.5185C717.611 15.5649 717.747 15.5881 717.896 15.5881C718.009 15.5881 718.112 15.5798 718.205 15.5632C718.301 15.5466 718.374 15.5317 718.423 15.5185L718.727 16.9254C718.631 16.9586 718.493 16.995 718.314 17.0348C718.138 17.0746 717.923 17.0978 717.668 17.1044C717.217 17.1177 716.811 17.0497 716.45 16.9006C716.088 16.7481 715.802 16.5128 715.59 16.1946C715.381 15.8764 715.278 15.4787 715.281 15.0014V7.53409ZM723.391 17.1491C722.626 17.1491 721.964 16.9901 721.408 16.6719C720.854 16.3504 720.428 15.8963 720.13 15.3097C719.832 14.7197 719.683 14.0253 719.683 13.2266C719.683 12.4411 719.832 11.7517 720.13 11.1584C720.432 10.5618 720.853 10.0978 721.393 9.76633C721.933 9.43158 722.568 9.2642 723.297 9.2642C723.768 9.2642 724.212 9.34044 724.629 9.4929C725.05 9.64205 725.421 9.87405 725.743 10.1889C726.068 10.5038 726.323 10.9048 726.509 11.392C726.694 11.8759 726.787 12.4527 726.787 13.1222V13.674H720.528V12.4609H725.062C725.058 12.1162 724.984 11.8097 724.838 11.5412C724.692 11.2694 724.488 11.0556 724.227 10.8999C723.968 10.7441 723.666 10.6662 723.322 10.6662C722.954 10.6662 722.631 10.7557 722.352 10.9347C722.074 11.1103 721.857 11.3423 721.701 11.6307C721.549 11.9157 721.471 12.2289 721.467 12.5703V13.6293C721.467 14.0734 721.549 14.4545 721.711 14.7727C721.873 15.0876 722.1 15.3295 722.392 15.4986C722.684 15.6643 723.025 15.7472 723.416 15.7472C723.678 15.7472 723.915 15.7107 724.127 15.6378C724.339 15.5616 724.523 15.4505 724.679 15.3047C724.835 15.1589 724.952 14.9782 725.032 14.7628L726.712 14.9517C726.606 15.3958 726.404 15.7836 726.106 16.1151C725.811 16.4432 725.433 16.6984 724.972 16.8807C724.512 17.0597 723.985 17.1491 723.391 17.1491ZM728.309 17V9.36364H730.03V10.6612H730.119C730.278 10.2237 730.542 9.88234 730.91 9.63707C731.278 9.38849 731.717 9.2642 732.227 9.2642C732.744 9.2642 733.18 9.39015 733.535 9.64205C733.893 9.89062 734.144 10.2304 734.29 10.6612H734.37C734.539 10.237 734.824 9.89891 735.225 9.64702C735.629 9.39181 736.108 9.2642 736.662 9.2642C737.364 9.2642 737.938 9.48627 738.382 9.9304C738.826 10.3745 739.048 11.0225 739.048 11.8743V17H737.243V12.1527C737.243 11.6787 737.117 11.3324 736.866 11.1136C736.614 10.8916 736.305 10.7805 735.941 10.7805C735.507 10.7805 735.167 10.9164 734.922 11.1882C734.68 11.4567 734.559 11.8063 734.559 12.2372V17H732.794V12.0781C732.794 11.6837 732.675 11.3688 732.436 11.1335C732.201 10.8982 731.892 10.7805 731.511 10.7805C731.253 10.7805 731.017 10.8468 730.805 10.9794C730.593 11.1087 730.424 11.2926 730.298 11.5312C730.172 11.7666 730.109 12.0417 730.109 12.3565V17H728.309Z" fill="#3538CD"/>
</g>
<defs>
<clipPath id="clip0_6833_16213">
<rect width="89" height="20" fill="white" transform="translate(651 2)"/>
</clipPath>
</defs>
</svg>
